<?xml version="1.0" standalone="no"?>
<!DOCTYPE svg PUBLIC "-//W3C//DTD SVG 1.1//EN" "http://www.w3.org/Graphics/SVG/1.1/DTD/svg11.dtd" >
<svg>
<metadata>
Created by FontForge 20120731 at Tue Jul  2 20:26:44 2019
 By www
Copyright (c) 2015 by Eduardo Manso. All rights reserved.
</metadata>
<defs>
<font id="CiutadellaRoundedW04-Rg" horiz-adv-x="498" >
  <font-face 
    font-family="CiutadellaRoundedW04-Rg"
    font-weight="400"
    font-stretch="normal"
    units-per-em="1000"
    panose-1="1 0 0 0 0 0 0 0 0 0"
    ascent="800"
    descent="-200"
    x-height="489"
    cap-height="662"
    bbox="-155 -226 1370 875"
    underline-thickness="50"
    underline-position="-75"
    unicode-range="U+000D-FB05"
  />
<missing-glyph horiz-adv-x="841" 
d="M421 236l-92 -92q-12 -12 -21 -12q-11 0 -21 12l-51 52q-11 11 -11 19q0 10 12 21l92 92l-92 92q-13 12 -13 22q0 8 11 19l51 52q10 11 21 11q10 0 22 -12l92 -92l92 92q13 13 22 13q8 0 19 -11l52 -51q11 -10 11 -22q0 -11 -12 -21l-92 -92l92 -92q12 -14 12 -21
q0 -11 -12 -21l-52 -51q-11 -11 -19 -11q-9 0 -21 12zM80 328q0 70 26.5 132t73 108t108 72.5t132.5 26.5q70 0 132 -26.5t108.5 -72.5t73 -108t26.5 -132q0 -71 -27 -132.5t-73 -107t-108.5 -72t-132.5 -26.5q-71 0 -132.5 26.5t-107.5 72t-72.5 107t-26.5 132.5zM128 328
q0 -61 22.5 -114.5t62 -93t92.5 -62.5t114 -23t114 23t92.5 62.5t62.5 93t23 114.5t-22.5 114.5t-62 93.5t-92.5 63t-114 23t-114 -23t-92.5 -63t-62.5 -93.5t-23 -114.5z" />
    <glyph glyph-name="uniFB01" unicode="fi" horiz-adv-x="542" 
d="M276 614q-53 0 -73.5 -27.5t-20.5 -71.5v-29h256q15 0 24 -9t9 -25v-421q0 -16 -10 -26t-27 -10q-16 0 -26 10t-10 26v393h-216v-393q0 -16 -10 -26t-27 -10t-27 10t-10 26v393h-52q-31 0 -31 31q0 14 8.5 22.5t22.5 8.5h52v24q0 81 41.5 124t122.5 43h173q14 0 22.5 -9
t8.5 -23t-8.5 -22.5t-22.5 -8.5h-169z" />
    <glyph glyph-name="uniFB02" unicode="fl" horiz-adv-x="547" 
d="M25 455q0 31 31 31h52v24q0 81 41.5 124t122.5 43h163q16 0 26 -10t10 -26v-610q0 -16 -10 -26t-27 -10q-16 0 -26 10t-10 26v583h-122q-53 0 -73.5 -27.5t-20.5 -71.5v-29h93q14 0 22 -8.5t8 -22.5t-8 -22.5t-22 -8.5h-93v-393q0 -16 -10 -26t-27 -10t-27 10t-10 26v393
h-52q-31 0 -31 31z" />
    <glyph glyph-name=".notdef" horiz-adv-x="841" 
d="M421 236l-92 -92q-12 -12 -21 -12q-11 0 -21 12l-51 52q-11 11 -11 19q0 10 12 21l92 92l-92 92q-13 12 -13 22q0 8 11 19l51 52q10 11 21 11q10 0 22 -12l92 -92l92 92q13 13 22 13q8 0 19 -11l52 -51q11 -10 11 -22q0 -11 -12 -21l-92 -92l92 -92q12 -14 12 -21
q0 -11 -12 -21l-52 -51q-11 -11 -19 -11q-9 0 -21 12zM80 328q0 70 26.5 132t73 108t108 72.5t132.5 26.5q70 0 132 -26.5t108.5 -72.5t73 -108t26.5 -132q0 -71 -27 -132.5t-73 -107t-108.5 -72t-132.5 -26.5q-71 0 -132.5 26.5t-107.5 72t-72.5 107t-26.5 132.5zM128 328
q0 -61 22.5 -114.5t62 -93t92.5 -62.5t114 -23t114 23t92.5 62.5t62.5 93t23 114.5t-22.5 114.5t-62 93.5t-92.5 63t-114 23t-114 -23t-92.5 -63t-62.5 -93.5t-23 -114.5z" />
    <glyph glyph-name="glyph1" horiz-adv-x="0" 
 />
    <glyph glyph-name="glyph1" horiz-adv-x="0" 
 />
    <glyph glyph-name="uni000D" unicode="&#xd;" horiz-adv-x="212" 
 />
    <glyph glyph-name="space" unicode=" " horiz-adv-x="212" 
 />
    <glyph glyph-name="exclam" unicode="!" horiz-adv-x="237" 
d="M143 185q-2 -22 -25 -22q-22 0 -24 22l-14 304v135q0 17 10.5 27.5t27.5 10.5t28 -10.5t11 -27.5v-135zM68 40q0 22 15 36.5t35 14.5q22 0 36.5 -14.5t14.5 -36.5q0 -21 -14.5 -35.5t-36.5 -14.5q-20 0 -35 14.5t-15 35.5z" />
    <glyph glyph-name="quotedbl" unicode="&#x22;" horiz-adv-x="320" 
d="M98 423q-19 0 -21 19q-7 45 -10.5 82.5t-3.5 62.5v40q0 16 10 25.5t25 9.5q16 0 26.5 -9.5t10.5 -25.5v-40q0 -25 -3.5 -62.5t-10.5 -82.5q-3 -19 -23 -19zM220 423q-19 0 -21 19q-7 45 -10.5 82.5t-3.5 62.5v40q0 16 10 25.5t25 9.5q17 0 27 -9.5t10 -25.5v-40
q0 -25 -3.5 -62.5t-10.5 -82.5q-3 -19 -23 -19z" />
    <glyph glyph-name="numbersign" unicode="#" horiz-adv-x="653" 
d="M412 23q-5 -28 -32 -28q-14 0 -22.5 9t-6.5 24l26 140h-161l-27 -145q-5 -28 -31 -28q-14 0 -23 9t-6 24l25 140h-86q-13 0 -20 8t-7 20t7 20t20 8h97l39 209h-106q-13 0 -20 7.5t-7 19.5t7 20.5t20 8.5h116l27 145q5 28 32 28q14 0 22.5 -9t5.5 -24l-25 -140h161l26 145
q5 28 32 28q14 0 22.5 -9t6.5 -24l-26 -140h87q12 0 19.5 -8t7.5 -20q0 -13 -7.5 -20.5t-19.5 -7.5h-98l-38 -209h106q12 0 19.5 -8t7.5 -20t-7.5 -20t-19.5 -8h-117zM227 224h161l38 209h-161z" />
    <glyph glyph-name="dollar" unicode="$" horiz-adv-x="499" 
d="M404 467q-15 0 -24 9t-12 23q-8 45 -35 74.5t-84 29.5t-88 -28t-31 -71q0 -33 18.5 -57.5t48.5 -37.5l106 -45q26 -11 52.5 -25t48.5 -35t35.5 -51t13.5 -72q0 -81 -47.5 -131t-126.5 -58v-75q0 -14 -8.5 -22t-22.5 -8t-22.5 8t-8.5 22v75q-75 8 -119.5 51t-50.5 109
q-2 18 8.5 30t27.5 12q14 0 24 -8.5t12 -24.5q5 -46 37.5 -76t92.5 -30q63 0 96.5 33t33.5 84q0 27 -8 46t-22 33t-32.5 24t-39.5 19l-92 39q-26 11 -49.5 25.5t-41 34.5t-28 46t-10.5 59q0 67 44 112.5t117 54.5v75q0 14 8.5 22t22.5 8t22.5 -8t8.5 -22v-75q33 -3 61.5 -16
t50.5 -34.5t34.5 -49.5t14.5 -61q1 -18 -10.5 -27.5t-25.5 -9.5z" />
    <glyph glyph-name="percent" unicode="%" horiz-adv-x="627" 
d="M107 437q0 -26 14.5 -43.5t43.5 -17.5t43.5 17.5t14.5 43.5v121q0 26 -14.5 43.5t-43.5 17.5t-43.5 -17.5t-14.5 -43.5v-121zM279 438q0 -50 -31 -80t-83 -30q-53 0 -83.5 30t-30.5 80v119q0 50 30.5 80t83.5 30q52 0 83 -30t31 -80v-119zM403 99q0 -26 15 -43.5
t44 -17.5q28 0 43 17.5t15 43.5v121q0 26 -15 43.5t-43 17.5q-29 0 -44 -17.5t-15 -43.5v-121zM575 100q0 -50 -31 -80t-82 -30q-53 0 -83.5 30t-30.5 80v119q0 50 30.5 80t83.5 30q51 0 82 -30t31 -80v-119zM155 8q-7 -13 -24 -13q-11 0 -19.5 8t-8.5 19q0 7 5 17l175 290
l188 320q3 7 9.5 10t14.5 3q11 0 19.5 -8t8.5 -19q0 -7 -5 -17l-175 -290z" />
    <glyph glyph-name="ampersand" unicode="&#x26;" horiz-adv-x="579" 
d="M546 342q0 -13 -7.5 -21t-21.5 -8h-42v-123q0 -45 -15 -82t-42 -63.5t-65.5 -40.5t-85.5 -14q-49 0 -89 13t-68 37.5t-43.5 59.5t-15.5 78q0 60 29 103t85 63q-45 21 -67 59t-22 90q0 39 13.5 71t38.5 55t60 35.5t77 12.5q79 0 127 -42t56 -109q2 -17 -7 -29.5t-28 -12.5
q-15 0 -24.5 8.5t-11.5 22.5q-7 39 -32 67.5t-79 28.5q-56 0 -85 -31t-29 -81q0 -25 7 -46t22 -36.5t40 -24.5t61 -9h235q14 0 21.5 -8.5t7.5 -22.5zM269 55q65 0 99.5 37.5t34.5 95.5v125h-124q-41 0 -69.5 -11t-46.5 -29t-26 -41t-8 -47q0 -60 35.5 -95t104.5 -35z" />
    <glyph glyph-name="quotesingle" unicode="'" horiz-adv-x="200" 
d="M100 423q-21 0 -23 19q-7 45 -10.5 82.5t-3.5 62.5v40q0 16 10 25.5t27 9.5q16 0 26.5 -9.5t10.5 -25.5v-40q0 -25 -3.5 -62.5t-10.5 -82.5q-3 -19 -23 -19z" />
    <glyph glyph-name="parenleft" unicode="(" horiz-adv-x="297" 
d="M72 589q0 80 40 125t113 50q15 2 26 -7.5t11 -25.5q0 -14 -8 -23t-20 -11q-48 -5 -67 -32t-19 -72v-532q0 -45 19 -72t67 -32q12 -2 20 -11t8 -23q0 -16 -11 -25.5t-26 -7.5q-73 5 -113 50t-40 125v524z" />
    <glyph glyph-name="parenright" unicode=")" horiz-adv-x="297" 
d="M225 65q0 -80 -40 -125t-113 -50q-15 -2 -26 7.5t-11 25.5q0 14 8 23t20 11q48 5 67 32t19 72v532q0 45 -19 72t-67 32q-12 2 -20 11t-8 23q0 16 11 25.5t26 7.5q73 -5 113 -50t40 -125v-524z" />
    <glyph glyph-name="asterisk" unicode="*" horiz-adv-x="396" 
d="M226 634q0 -8 -2 -22.5t-5 -31.5t-6 -33.5t-6 -27.5q8 7 20.5 18.5t25.5 23t24.5 21t17.5 13.5q11 8 22 5.5t18 -13.5q13 -23 -12 -39q-6 -4 -19.5 -10t-30 -12.5t-32.5 -12t-27 -9.5q10 -4 26.5 -10t32.5 -12.5t30 -12.5t20 -10q12 -7 15 -17.5t-4 -21.5t-17.5 -14
t-21.5 5q-6 4 -17.5 13.5t-24 20.5t-25 22.5t-20.5 19.5l5 -27.5t6 -33.5t5 -31.5t2 -21.5q0 -29 -28 -29q-27 0 -27 29q0 7 2 21.5t5 31t6 33.5t5 28q-8 -8 -20.5 -19t-25 -22.5t-24.5 -21t-18 -13.5q-24 -15 -39 9q-15 23 10 39q6 4 20 10t30.5 12.5t32 12.5t26.5 10
q-10 3 -26 9t-32.5 12.5t-30.5 12.5t-20 10q-12 8 -14.5 18t3.5 21q7 11 17.5 13.5t22.5 -5.5q6 -4 17.5 -13.5t24.5 -20.5t25.5 -22.5t20.5 -19.5q-2 10 -5 26.5t-6 34t-5 32t-2 22.5q0 29 27 29q28 0 28 -29z" />
    <glyph glyph-name="plus" unicode="+" horiz-adv-x="479" 
d="M274 361h130q14 0 22.5 -9.5t8.5 -24.5q0 -14 -8.5 -23t-22.5 -9h-130v-116q0 -15 -9.5 -24.5t-25.5 -9.5q-15 0 -25 9.5t-10 24.5v116h-129q-14 0 -22.5 9t-8.5 23q0 15 8.5 24.5t22.5 9.5h129v115q0 16 10 25.5t25 9.5t25 -9.5t10 -25.5v-115z" />
    <glyph glyph-name="comma" unicode="," horiz-adv-x="222" 
d="M97 -78q-5 -11 -10.5 -16.5t-16.5 -5.5q-14 0 -22 9.5t-4 24.5l28 118q4 17 13.5 28t26.5 11q21 0 34.5 -16.5t0.5 -42.5z" />
    <glyph glyph-name="hyphen" unicode="-" horiz-adv-x="371" 
d="M63 262q0 14 9 23.5t23 9.5h181q14 0 23 -9.5t9 -23.5q0 -15 -9 -24t-23 -9h-181q-14 0 -23 9t-9 24z" />
    <glyph glyph-name="period" unicode="." horiz-adv-x="220" 
d="M60 40q0 22 14.5 36.5t35.5 14.5t36 -14.5t15 -36.5q0 -21 -15 -35.5t-36 -14.5t-35.5 14.5t-14.5 35.5z" />
    <glyph glyph-name="slash" unicode="/" horiz-adv-x="418" 
d="M104 -91q-8 -25 -33 -25q-14 0 -24 10t-10 25q0 3 1 7.5t2 7.5l273 812q8 25 35 25q14 0 23.5 -10t9.5 -25q0 -3 -1 -7.5t-2 -7.5z" />
    <glyph glyph-name="zero" unicode="0" horiz-adv-x="546" 
d="M145 192q0 -58 33 -95.5t95 -37.5t95 37.5t33 95.5v273q0 58 -33 95.5t-95 37.5t-95 -37.5t-33 -95.5v-273zM478 194q0 -47 -15 -85t-42 -64.5t-65 -40.5t-83 -14t-82.5 14t-64.5 40.5t-42 64.5t-15 85v269q0 47 14.5 85t41 64.5t64 40.5t84.5 14q45 0 83 -14t65 -40.5
t42 -64.5t15 -85v-269z" />
    <glyph glyph-name="one" unicode="1" horiz-adv-x="396" 
d="M45 622q0 15 9.5 25t23.5 10h134q15 0 24 -9t9 -24v-556h92q14 0 23 -10.5t9 -24.5t-9 -23.5t-23 -9.5h-260q-14 0 -23 9.5t-9 23.5q0 15 9 25t23 10h92v521h-91q-14 0 -23.5 9.5t-9.5 23.5z" />
    <glyph glyph-name="two" unicode="2" horiz-adv-x="514" 
d="M431 71q15 0 24 -11t9 -25q0 -15 -9 -25t-24 -10h-344q-14 0 -23 9t-9 24v4q0 79 31.5 137.5t106.5 110.5l103 71q38 26 60.5 59.5t22.5 78.5q0 47 -31 75.5t-92 28.5q-59 0 -90.5 -29.5t-34.5 -78.5q-1 -15 -11 -22.5t-25 -7.5q-17 0 -27 10t-9 25q1 40 16.5 71.5t42 54
t63 34.5t78.5 12q45 0 81.5 -11.5t62.5 -34t40.5 -54.5t14.5 -72q0 -59 -28.5 -105t-82.5 -83l-123 -85q-28 -19 -44.5 -39.5t-26 -40.5t-12.5 -38t-4 -33h294v0z" />
    <glyph glyph-name="three" unicode="3" horiz-adv-x="520" 
d="M193 342q0 14 9 22.5t22 8.5h30q33 0 56 9t37.5 24.5t20.5 36.5t6 45q0 49 -30.5 79.5t-90.5 30.5q-57 0 -86 -27.5t-34 -72.5q-2 -14 -11.5 -23t-25.5 -9t-26 10.5t-10 26.5q0 19 5 39q17 57 67 91t123 34q45 0 81 -12.5t61.5 -35t39.5 -54.5t14 -71q0 -54 -21.5 -92.5
t-64.5 -58.5q48 -21 73 -63.5t25 -102.5q0 -43 -15 -77.5t-42 -59t-65 -37.5t-84 -13q-89 0 -141.5 43.5t-60.5 115.5q-2 20 9 30.5t27 10.5q15 0 25 -8t12 -24q4 -42 35.5 -71.5t91.5 -29.5q64 0 96.5 34.5t32.5 93.5q0 23 -7 45.5t-22.5 40.5t-40.5 29t-60 11h-30
q-13 0 -22 8.5t-9 22.5z" />
    <glyph glyph-name="four" unicode="4" horiz-adv-x="533" 
d="M369 663q26 0 39 -15t13 -32v-394h46q14 0 23 -10t9 -24t-9 -23.5t-23 -9.5h-46v-123q0 -17 -10.5 -27t-27.5 -10t-27.5 10t-10.5 27v123h-274q-18 0 -30 10.5t-12 29.5q0 18 8 33t18 29l246 367q10 14 24.5 26.5t43.5 12.5zM345 222v349l-235 -349h235z" />
    <glyph glyph-name="five" unicode="5" horiz-adv-x="512" 
d="M439 623q0 -15 -9 -24.5t-23 -9.5h-257v-221q21 14 50 24t69 10q45 0 81 -14.5t61 -41t38.5 -64t13.5 -82.5q0 -49 -15 -88t-42 -66t-64.5 -41.5t-83.5 -14.5q-84 0 -137 38.5t-62 102.5q-2 17 7 30.5t29 13.5q27 0 32 -28q6 -38 37.5 -64t91.5 -26q64 0 96.5 38.5
t32.5 104.5q0 27 -6.5 51.5t-21.5 43.5t-38.5 30.5t-57.5 11.5q-37 0 -60 -8t-43 -21q-8 -5 -18 -10t-24 -5q-17 0 -27.5 9.5t-10.5 26.5v293q0 16 9.5 25.5t25.5 9.5h294q14 0 23 -10t9 -24z" />
    <glyph glyph-name="six" unicode="6" horiz-adv-x="531" 
d="M477 191q0 -48 -15.5 -85t-43 -63t-65.5 -39.5t-83 -13.5t-82.5 15t-64 43t-41 68.5t-14.5 91.5v260q0 46 14.5 83t41 62.5t64 39.5t84.5 14q82 0 134 -41t60 -113q3 -16 -6.5 -29.5t-28.5 -13.5q-31 0 -36 29q-2 43 -33.5 72t-88.5 29q-63 0 -96 -35t-33 -90v-138
q23 22 57.5 38t82.5 16q45 0 81 -15t61 -41.5t38 -63t13 -80.5zM274 325q-53 0 -83 -20t-47 -42v-57q0 -67 33 -108.5t95 -41.5t94 36.5t32 94.5q0 27 -6.5 51.5t-21.5 44t-38.5 31t-57.5 11.5z" />
    <glyph glyph-name="seven" unicode="7" horiz-adv-x="450" 
d="M193 19q-5 -11 -14 -17.5t-23 -6.5q-23 0 -32.5 16.5t-1.5 36.5l213 541h-272q-15 0 -24 9.5t-9 24.5t9 24.5t24 9.5h317q19 0 30 -8.5t11 -26.5q0 -11 -3 -21t-8 -23z" />
    <glyph glyph-name="eight" unicode="8" horiz-adv-x="527" 
d="M459 489q0 -54 -23.5 -91.5t-63.5 -56.5q45 -20 72 -61t27 -101q0 -43 -15 -78t-42.5 -59.5t-65.5 -38t-84 -13.5t-84 13.5t-65.5 38t-42.5 59.5t-15 78q0 60 26.5 101t71.5 61q-40 19 -63.5 57t-23.5 91q0 40 14 73t40 56t62 36t80 13q43 0 79 -13t62 -36t40 -56t14 -73
zM135 182q0 -56 33 -92t96 -36t96 36t33 92q0 27 -7.5 50t-23.5 40t-40 27t-58 10t-58.5 -10t-40 -27t-23 -40t-7.5 -50zM144 486q0 -50 28 -83.5t92 -33.5q63 0 91 33.5t28 83.5q0 51 -31 83t-88 32q-59 0 -89.5 -32t-30.5 -83z" />
    <glyph glyph-name="nine" unicode="9" horiz-adv-x="531" 
d="M54 466q0 48 15.5 85t43 63t65.5 39.5t83 13.5t82.5 -15t64 -44t41 -70.5t14.5 -93.5v-255q0 -46 -14.5 -83t-41 -62.5t-64.5 -39.5t-84 -14q-82 0 -134 41t-60 113q-2 16 7.5 29.5t28.5 13.5q14 0 23.5 -7.5t11.5 -21.5q5 -44 35 -72.5t87 -28.5q63 0 96 35t33 91v136
q-23 -22 -57.5 -37.5t-82.5 -15.5q-45 0 -81 15t-61 41.5t-38 63t-13 80.5zM257 332q52 0 82.5 20t47.5 42v52q0 33 -8.5 61.5t-25 49t-40 32.5t-54.5 12q-62 0 -94 -36.5t-32 -94.5q0 -27 6.5 -51.5t21.5 -44t38.5 -31t57.5 -11.5z" />
    <glyph glyph-name="colon" unicode=":" horiz-adv-x="237" 
d="M68 40q0 22 14.5 36.5t35.5 14.5t36 -14.5t15 -36.5q0 -21 -15 -35.5t-36 -14.5t-35.5 14.5t-14.5 35.5zM68 448q0 21 14.5 36t35.5 15t36 -15t15 -36t-15 -35.5t-36 -14.5t-35.5 14.5t-14.5 35.5z" />
    <glyph glyph-name="semicolon" unicode=";" horiz-adv-x="255" 
d="M83 448q0 21 14.5 36t35.5 15t36 -15t15 -36t-15 -35.5t-36 -14.5t-35.5 14.5t-14.5 35.5zM113 -78q-5 -11 -11 -16.5t-17 -5.5q-14 0 -21.5 9.5t-4.5 24.5l28 118q5 17 14.5 28t26.5 11q21 0 34 -16.5t1 -42.5z" />
    <glyph glyph-name="less" unicode="&#x3c;" horiz-adv-x="473" 
d="M72 285q-31 11 -31 41q0 29 31 42l293 117q6 2 12 2q14 0 23.5 -9t9.5 -23q0 -11 -6 -18t-15 -11l-255 -98l255 -100q9 -3 15 -11t6 -19q0 -14 -9.5 -23.5t-23.5 -9.5q-6 0 -12 2z" />
    <glyph glyph-name="equal" unicode="=" horiz-adv-x="521" 
d="M66 424q0 15 9 24.5t23 9.5h325q14 0 23 -10t9 -24t-9 -23t-23 -9h-325q-14 0 -23 9t-9 23zM66 233q0 15 9 24.5t23 9.5h325q14 0 23 -9.5t9 -24.5q0 -14 -9 -23t-23 -9h-325q-14 0 -23 9t-9 23z" />
    <glyph glyph-name="greater" unicode="&#x3e;" horiz-adv-x="473" 
d="M401 365q31 -11 31 -41q0 -29 -31 -42l-293 -117q-6 -2 -12 -2q-14 0 -23.5 9t-9.5 23q0 11 6 18t15 11l255 98l-255 100q-9 3 -15 11t-6 19q0 14 9.5 23.5t23.5 9.5q6 0 12 -2z" />
    <glyph glyph-name="question" unicode="?" horiz-adv-x="475" 
d="M225 166q-13 0 -21.5 8.5t-10.5 21.5q-5 32 2 57.5t21 47t32.5 40.5t38.5 39q12 12 25 24.5t23 27t16.5 31.5t6.5 37q0 45 -30.5 71.5t-87.5 26.5q-61 0 -93 -30t-34 -78q-1 -15 -11 -24t-25 -9q-16 0 -26.5 9.5t-10.5 26.5q0 40 15.5 72t42 54.5t63 35t80.5 12.5
q43 0 79 -11.5t62 -33t40 -52.5t14 -69q0 -26 -8 -48.5t-21.5 -43t-30.5 -39t-36 -36.5q-16 -15 -30 -29t-25 -29.5t-18.5 -35.5t-9.5 -48q-1 -11 -10.5 -18.5t-21.5 -7.5zM175 40q0 21 14.5 35.5t35.5 14.5t35.5 -14.5t14.5 -35.5t-14.5 -35.5t-35.5 -14.5t-35.5 14.5
t-14.5 35.5z" />
    <glyph glyph-name="at" unicode="@" horiz-adv-x="797" 
d="M368 92q36 0 61.5 25t31.5 62l18 104q6 37 -13.5 62t-64.5 25q-35 0 -55.5 -25.5t-27.5 -63.5l-18 -100q-7 -38 9 -63.5t59 -25.5zM518 150q-5 -29 -1.5 -49t13.5 -32.5t26.5 -18t38.5 -5.5q50 0 69 37t19 98v140q0 54 -19.5 97.5t-56 74t-88.5 47.5t-116 17
q-65 0 -117 -17t-88 -47.5t-55.5 -74t-19.5 -97.5v-177q0 -54 19.5 -97.5t55.5 -74t88 -47.5t117 -17h62q14 0 21.5 -8.5t7.5 -21.5q0 -14 -7.5 -22t-21.5 -8h-62q-83 0 -147 21.5t-107.5 62t-66.5 97t-23 127.5v153q0 70 22 127t65.5 97.5t107.5 62t149 21.5
q82 0 146 -21.5t107.5 -62t66.5 -97.5t23 -127v-116q0 -55 -11.5 -93.5t-32 -62.5t-48.5 -35t-61 -11q-59 0 -95.5 27t-39.5 81q-20 -28 -47 -43.5t-60 -15.5q-65 0 -95 40.5t-18 106.5l17 94q12 68 47 106t92 38q37 0 64 -14.5t41 -40.5l12 36q6 16 24 16q11 0 19 -7t6 -21
z" />
    <glyph glyph-name="A" unicode="A" horiz-adv-x="548" 
d="M166 221h212l-107 333zM512 47q3 -8 3 -14q0 -16 -10.5 -27t-27.5 -11q-27 0 -37 29l-42 131h-253l-42 -134q-3 -11 -12.5 -18.5t-23.5 -7.5q-15 0 -24.5 10.5t-9.5 25.5q0 3 2 11l190 583q13 37 49 37q35 0 48 -37z" />
    <glyph glyph-name="B" unicode="B" horiz-adv-x="558" 
d="M83 620q0 17 10 27t27 10h174q43 0 80 -12t63.5 -34.5t41.5 -53.5t15 -70q0 -55 -26 -92t-73 -55v-1q54 -17 84.5 -56.5t30.5 -102.5q0 -41 -15 -74t-41 -56.5t-62.5 -36.5t-79.5 -13h-192q-17 0 -27 10t-10 27v583zM159 304v-240h144q60 0 94 32.5t34 86.5
q0 56 -33 88.5t-91 32.5h-148zM159 593v-224h132q58 0 91.5 30.5t33.5 84.5q0 51 -34.5 80t-94.5 29h-128z" />
    <glyph glyph-name="C" unicode="C" horiz-adv-x="546" 
d="M454 216q17 0 27.5 -12.5t9.5 -29.5q-2 -43 -18 -77t-44 -58t-66 -36.5t-83 -12.5q-48 0 -87.5 14.5t-68 42t-44 66.5t-15.5 87v257q0 48 15 87t43 66.5t68 42t89 14.5q45 0 83 -12.5t65.5 -36t43.5 -57t19 -75.5q1 -17 -9 -28t-28 -11q-33 0 -36 30q-5 54 -39 87.5
t-99 33.5q-66 0 -102.5 -39.5t-36.5 -99.5v-261q0 -60 36.5 -99.5t102.5 -39.5q64 0 99.5 34t38.5 90q1 15 10.5 24t25.5 9z" />
    <glyph glyph-name="D" unicode="D" horiz-adv-x="576" 
d="M291 657q50 0 91 -15t70 -43t44.5 -68t15.5 -89v-227q0 -50 -15.5 -89.5t-44.5 -67.5t-70 -43t-91 -15h-171q-17 0 -27 10t-10 27v583q0 17 10 27t27 10h171zM159 588v-519h132q70 0 107.5 40.5t37.5 103.5v231q0 63 -37.5 103.5t-107.5 40.5h-132z" />
    <glyph glyph-name="E" unicode="E" horiz-adv-x="514" 
d="M159 302v-233h278q16 0 25 -10t9 -25t-9 -24.5t-25 -9.5h-317q-17 0 -27 10t-10 27v583q0 17 10 27t27 10h309q15 0 24.5 -9.5t9.5 -24.5q0 -16 -9.5 -25.5t-24.5 -9.5h-270v-218h246q15 0 24 -10t9 -25t-9 -24t-24 -9h-246z" />
    <glyph glyph-name="F" unicode="F" 
d="M159 284v-252q0 -17 -10.5 -27t-27.5 -10t-27.5 10t-10.5 27v588q0 17 10 27t27 10h309q15 0 24.5 -10t9.5 -25t-9.5 -24.5t-24.5 -9.5h-270v-236h246q15 0 24 -10t9 -25t-9 -24t-24 -9h-246z" />
    <glyph glyph-name="G" unicode="G" horiz-adv-x="551" 
d="M293 290q0 14 8.5 22.5t22.5 8.5h136q14 0 23 -9t9 -24v-99q0 -46 -15.5 -83t-43 -62.5t-66.5 -39.5t-86 -14q-48 0 -87.5 14.5t-68 42t-44.5 66.5t-16 87v257q0 48 15.5 87t44 66.5t68 42t88.5 14.5q91 0 148 -46t62 -128q1 -15 -8.5 -26t-27.5 -11q-32 0 -35 29
q-6 51 -40 82t-99 31q-67 0 -103.5 -39.5t-36.5 -99.5v-261q0 -60 36.5 -99.5t103.5 -39.5q68 0 104 36t36 92v72h-97q-14 0 -22.5 8.5t-8.5 22.5z" />
    <glyph glyph-name="H" unicode="H" horiz-adv-x="588" 
d="M505 32q0 -17 -11 -27t-28 -10t-27.5 10t-10.5 27v269h-269v-269q0 -17 -10.5 -27t-27.5 -10t-27.5 10t-10.5 27v593q0 17 10.5 27t27.5 10t27.5 -10t10.5 -27v-255h269v255q0 17 10.5 27t27.5 10t28 -10t11 -27v-593z" />
    <glyph glyph-name="I" unicode="I" horiz-adv-x="242" 
d="M159 32q0 -17 -10.5 -27t-27.5 -10t-27.5 10t-10.5 27v593q0 17 10.5 27t27.5 10t27.5 -10t10.5 -27v-593z" />
    <glyph glyph-name="J" unicode="J" horiz-adv-x="487" 
d="M62 215q17 0 27 -10.5t11 -30.5q1 -50 31.5 -82.5t84.5 -32.5q57 0 86.5 34t29.5 85v447q0 17 10.5 27t27.5 10t27.5 -10t10.5 -27v-445q0 -44 -14 -79t-39.5 -60t-60.5 -38t-78 -13q-42 0 -77 13t-60.5 37.5t-39.5 58.5t-14 76q0 18 10 29t27 11z" />
    <glyph glyph-name="K" unicode="K" horiz-adv-x="541" 
d="M323 389l178 -337q2 -5 3.5 -9t1.5 -10q0 -16 -11 -27t-28 -11q-13 0 -22 7.5t-14 16.5l-159 306l-113 -150v-143q0 -17 -10.5 -27t-27.5 -10t-27.5 10t-10.5 27v593q0 17 10.5 27t27.5 10t27.5 -10t10.5 -27v-337l269 360q11 14 28 14q16 0 26 -10t10 -26q0 -8 -5 -18z
" />
    <glyph glyph-name="L" unicode="L" horiz-adv-x="462" 
d="M159 69h259q15 0 24 -10t9 -25t-9 -24.5t-24 -9.5h-298q-17 0 -27 10t-10 27v588q0 17 10.5 27t27.5 10t27.5 -10t10.5 -27v-556z" />
    <glyph glyph-name="M" unicode="M" horiz-adv-x="643" 
d="M322 316l160 319q8 16 16.5 21.5t24.5 5.5q17 0 27 -10t10 -27v-594q0 -17 -10.5 -26.5t-27.5 -9.5q-16 0 -26 9.5t-10 26.5v469l-135 -268q-5 -9 -11.5 -14.5t-19.5 -5.5q-12 0 -19 5.5t-12 14.5l-135 269v-472q0 -15 -10.5 -24.5t-25.5 -9.5t-25 9.5t-10 24.5v596
q0 17 10 27t27 10q16 0 25 -5.5t17 -21.5z" />
    <glyph glyph-name="N" unicode="N" horiz-adv-x="585" 
d="M502 32q0 -17 -10 -27t-27 -10q-15 0 -23.5 7.5t-14.5 17.5l-273 488v-479q0 -15 -10.5 -24.5t-25.5 -9.5t-25 9.5t-10 24.5v596q0 17 11 27t28 10q16 0 24.5 -6t16.5 -22l268 -477v471q0 15 10 24.5t25 9.5t25.5 -9.5t10.5 -24.5v-596z" />
    <glyph glyph-name="O" unicode="O" horiz-adv-x="562" 
d="M141 198q0 -60 36.5 -99.5t103.5 -39.5t103 39.5t36 99.5v261q0 60 -36 99.5t-103 39.5t-103.5 -39.5t-36.5 -99.5v-261zM497 200q0 -48 -16 -87t-44.5 -66.5t-68 -42t-87.5 -14.5t-88 14.5t-68.5 42t-44 66.5t-15.5 87v257q0 48 15 87t43.5 66.5t68 42t89.5 14.5
q48 0 87.5 -14.5t68 -42t44.5 -66.5t16 -87v-257z" />
    <glyph glyph-name="P" unicode="P" horiz-adv-x="544" 
d="M83 620q0 17 10 27t27 10h164q48 0 89 -15t70.5 -42t46 -65.5t16.5 -86.5t-16.5 -87.5t-46 -67.5t-70.5 -43t-89 -15h-125v-203q0 -17 -10.5 -27t-27.5 -10t-27.5 10t-10.5 27v588zM159 590v-288h120q69 0 109 39.5t40 105.5t-40 104.5t-109 38.5h-120z" />
    <glyph glyph-name="Q" unicode="Q" horiz-adv-x="564" 
d="M141 198q0 -60 36.5 -99.5t103.5 -39.5t103 39.5t36 99.5v261q0 60 -36 99.5t-103 39.5t-103.5 -39.5t-36.5 -99.5v-261zM462 -83q6 -9 6 -21q0 -16 -11 -27.5t-28 -11.5q-21 0 -32 18l-81 118q-17 -3 -35 -3q-48 0 -88 14.5t-68.5 42t-44 66.5t-15.5 87v257q0 48 15 87
t43.5 66.5t68 42t89.5 14.5q48 0 87.5 -14.5t68 -42t44.5 -66.5t16 -87v-257q0 -66 -28.5 -113t-77.5 -72z" />
    <glyph glyph-name="R" unicode="R" horiz-adv-x="557" 
d="M159 590v-265h120q69 0 109 37t40 98q0 60 -40 95t-109 35h-120zM487 48q4 -8 4 -15q0 -16 -11.5 -27t-27.5 -11q-11 0 -20.5 6.5t-14.5 17.5l-109 241q-7 0 -13.5 -0.5t-13.5 -0.5h-122v-227q0 -17 -10.5 -27t-27.5 -10t-27.5 10t-10.5 27v588q0 17 10 27t27 10h165
q48 0 88.5 -14t70 -39.5t46 -61.5t16.5 -81q0 -66 -33 -113.5t-89 -69.5z" />
    <glyph glyph-name="S" unicode="S" horiz-adv-x="525" 
d="M426 460q-14 0 -23.5 8t-11.5 22q-7 51 -39 82t-91 31q-60 0 -93.5 -27.5t-33.5 -71.5q0 -35 21.5 -59t53.5 -37l108 -44q28 -11 56.5 -25t51 -35t37 -51t14.5 -72q0 -44 -15.5 -79t-44 -60t-67.5 -38.5t-87 -13.5q-91 0 -147.5 43t-65.5 122q-2 17 7 30t29 13
q32 0 35 -31q5 -50 40 -81t101 -31q67 0 103.5 33t36.5 84q0 27 -9 46t-24 33t-35.5 24.5t-43.5 19.5l-93 38q-28 11 -52.5 25.5t-43 34.5t-29 46t-10.5 59q0 37 14.5 68t40.5 53.5t63 35t82 12.5q85 0 139.5 -43.5t61.5 -120.5q2 -17 -8 -30t-28 -13z" />
    <glyph glyph-name="T" unicode="T" horiz-adv-x="461" 
d="M14 623q0 15 9.5 24.5t24.5 9.5h364q16 0 25 -10t9 -25t-9 -24.5t-25 -9.5h-144v-556q0 -17 -10.5 -27t-27.5 -10t-27.5 10t-10.5 27v556h-144q-15 0 -24.5 10t-9.5 25z" />
    <glyph glyph-name="U" unicode="U" horiz-adv-x="579" 
d="M463 662q17 0 27.5 -10t10.5 -27v-425q0 -48 -15.5 -87t-43.5 -66.5t-67 -42t-86 -14.5t-86 14.5t-66.5 42t-43 66.5t-15.5 87v425q0 17 10.5 27t27.5 10t27.5 -10t10.5 -27v-427q0 -60 35 -99.5t100 -39.5q66 0 101 39.5t35 99.5v427q0 17 10.5 27t27.5 10z" />
    <glyph glyph-name="V" unicode="V" horiz-adv-x="509" 
d="M303 32q-5 -17 -18 -27t-31 -10q-17 0 -30 10t-18 27l-170 576q-3 7 -3 15q0 17 11.5 28t27.5 11q14 0 24 -8t13 -21l147 -513l149 514q3 12 12 20t22 8q16 0 27 -10t11 -26q0 -2 -0.5 -6t-2.5 -8z" />
    <glyph glyph-name="W" unicode="W" horiz-adv-x="738" 
d="M560 28q-3 -15 -14 -24t-26 -9q-16 0 -27 9t-14 24l-111 492l-109 -492q-3 -15 -14 -24t-27 -9q-15 0 -26 9t-14 24l-138 587q-1 3 -1 5.5v4.5q0 17 10.5 27t25.5 10q14 0 24 -9t13 -23l109 -492l108 489q3 15 14 24.5t26 9.5q16 0 27 -9.5t14 -24.5l109 -488l109 493
q3 14 12.5 22t23.5 8q15 0 25 -10t10 -26v-4.5t-1 -5.5z" />
    <glyph glyph-name="X" unicode="X" horiz-adv-x="490" 
d="M247 397l136 247q11 18 32 18q14 0 24.5 -10t10.5 -24q0 -5 -2 -10t-4 -9l-154 -271l160 -287q2 -4 4 -9t2 -11q0 -16 -10.5 -26t-26.5 -10q-24 0 -33 19l-143 259l-142 -260q-10 -18 -32 -18q-15 0 -25 10t-10 24q0 5 2 10t4 9l161 285l-154 273q-2 4 -3.5 9t-1.5 11
q0 15 10 25.5t26 10.5q22 0 33 -18z" />
    <glyph glyph-name="Y" unicode="Y" horiz-adv-x="488" 
d="M282 262v-230q0 -17 -10.5 -27t-27.5 -10t-27.5 10t-10.5 27v230l-170 346q-4 7 -4 17q0 15 10.5 26t25.5 11q23 0 33 -20l145 -305l147 306q5 11 13 15t18 4q14 0 24 -9.5t10 -21.5q1 -5 -1 -11t-4 -11z" />
    <glyph glyph-name="Z" unicode="Z" horiz-adv-x="464" 
d="M388 657q14 0 24 -8t10 -22q0 -10 -4.5 -20t-9.5 -19l-279 -520h272q15 0 24 -9.5t9 -24.5q0 -16 -9 -25t-24 -9h-334q-14 0 -23.5 8t-9.5 22q0 10 4 20.5t9 18.5l279 520h-250q-15 0 -24.5 9t-9.5 25q0 15 9.5 24.5t24.5 9.5h312v0z" />
    <glyph glyph-name="bracketleft" unicode="[" horiz-adv-x="306" 
d="M157 -42h79q15 0 24.5 -10t9.5 -25t-9.5 -24.5t-24.5 -9.5h-120q-17 0 -26 9.5t-9 25.5v806q0 16 9 25.5t26 9.5h120q15 0 24.5 -10t9.5 -25t-9.5 -24.5t-24.5 -9.5h-79v-738z" />
    <glyph glyph-name="backslash" unicode="\" horiz-adv-x="420" 
d="M40 721q-1 3 -2 7.5t-1 7.5q0 15 10 25t24 10q28 0 36 -25l272 -812q1 -3 2 -7.5t1 -7.5q0 -15 -10 -25t-24 -10q-27 0 -34 25z" />
    <glyph glyph-name="bracketright" unicode="]" horiz-adv-x="306" 
d="M149 696h-79q-15 0 -24.5 9.5t-9.5 24.5t9.5 25t24.5 10h120q17 0 26 -9.5t9 -25.5v-806q0 -16 -9 -25.5t-26 -9.5h-120q-15 0 -24.5 9.5t-9.5 24.5t9.5 25t24.5 10h79v738z" />
    <glyph glyph-name="asciicircum" unicode="^" horiz-adv-x="388" 
d="M193 573l-75 -169q-8 -20 -30 -20q-12 0 -21 8.5t-9 20.5q0 6 4 16l93 206q5 12 15 19.5t24 7.5t24 -7.5t16 -19.5l92 -205q4 -8 4 -15q0 -13 -9.5 -22t-22.5 -9q-21 0 -30 19z" />
    <glyph glyph-name="underscore" unicode="_" horiz-adv-x="692" 
d="M63 -58q0 12 7.5 20t19.5 8h512q12 0 19.5 -8t7.5 -20t-7.5 -20t-19.5 -8h-512q-12 0 -19.5 8t-7.5 20z" />
    <glyph glyph-name="grave" unicode="`" horiz-adv-x="204" 
d="M169 597q9 -11 9 -21t-7 -17t-18 -7q-8 0 -15 5l-96 74q-12 12 -12 26q0 15 9.5 24.5t23.5 9.5t25 -11l81 -83v0z" />
    <glyph glyph-name="a" unicode="a" 
d="M238 55q54 0 84.5 34.5t30.5 85.5v138q0 51 -30.5 86t-84.5 35q-53 0 -80.5 -33t-27.5 -80v-153q0 -48 27 -80.5t81 -32.5zM359 56q-22 -31 -56 -48.5t-77 -17.5q-80 0 -124.5 49t-44.5 132v147q0 83 44.5 132t124.5 49q44 0 77.5 -17.5t55.5 -48.5l5 35q4 14 12 20t19 6
q15 0 23 -9t8 -24v-433q0 -33 -31 -33q-11 0 -20 5.5t-11 20.5z" />
    <glyph glyph-name="b" unicode="b" 
d="M260 55q54 0 81 32.5t27 80.5v153q0 47 -27.5 80t-80.5 33q-54 0 -84.5 -35t-30.5 -86v-138q0 -51 30.5 -85.5t84.5 -34.5zM72 644q0 17 10 27t27 10q16 0 26 -10t10 -27v-204q22 28 54 43.5t73 15.5q80 0 124.5 -49t44.5 -132v-147q0 -83 -44.5 -132t-124.5 -49
q-44 0 -77.5 17.5t-55.5 48.5l-6 -35q-3 -15 -11 -20.5t-19 -5.5q-31 0 -31 33v616z" />
    <glyph glyph-name="c" unicode="c" horiz-adv-x="473" 
d="M389 175q17 0 26.5 -12t7.5 -28q-8 -68 -57 -106.5t-124 -38.5q-42 0 -76.5 13t-59 38t-38 60t-13.5 79v129q0 88 51 139t136 51q74 0 123 -38.5t56 -101.5q2 -16 -6.5 -28.5t-26.5 -12.5q-30 0 -34 28q-7 40 -34.5 64.5t-77.5 24.5q-56 0 -85 -34.5t-29 -86.5v-140
q0 -52 29 -86.5t85 -34.5q53 0 79 24.5t34 68.5q6 29 34 29z" />
    <glyph glyph-name="d" unicode="d" 
d="M426 28q0 -33 -31 -33q-11 0 -19 5.5t-12 20.5l-5 35q-22 -31 -56 -48.5t-77 -17.5q-80 0 -124.5 49t-44.5 132v147q0 83 44.5 132t124.5 49q41 0 73 -15.5t54 -43.5v206q0 16 9.5 26t26.5 10t27 -10t10 -26v-618zM238 55q54 0 84.5 34.5t30.5 85.5v138q0 51 -30.5 86
t-84.5 35q-53 0 -80.5 -33t-27.5 -80v-153q0 -48 27 -80.5t81 -32.5z" />
    <glyph glyph-name="e" unicode="e" horiz-adv-x="474" 
d="M387 168q16 0 25 -11t7 -29q-7 -63 -55 -100.5t-123 -37.5q-84 0 -135 48.5t-51 133.5v137q0 44 13.5 79t38 60t58.5 38t76 13q40 0 73.5 -13t57.5 -38t37 -60t13 -79v-38q0 -17 -9.5 -26.5t-26.5 -9.5h-259v-70q0 -49 30 -82t85 -33q54 0 81.5 27t32.5 64q4 27 31 27z
M127 292h226v24q0 53 -29 88t-83 35q-55 0 -84.5 -35t-29.5 -88v-24z" />
    <glyph glyph-name="f" unicode="f" horiz-adv-x="330" 
d="M24 455q0 14 8 22.5t22 8.5h54v24q0 81 42 124t121 43h18q14 0 22.5 -9t8.5 -23q0 -31 -31 -31h-19q-50 0 -69 -27.5t-19 -71.5v-29h101q14 0 22 -8.5t8 -22.5t-8 -22.5t-22 -8.5h-101v-393q0 -16 -10 -26t-27 -10t-27 10t-10 26v393h-54q-14 0 -22 8.5t-8 22.5z" />
    <glyph glyph-name="g" unicode="g" 
d="M364 468q2 14 11 20t20 6q15 0 23 -9t8 -24v-488q0 -81 -50 -125.5t-132 -44.5q-72 0 -116.5 30t-56.5 80q-5 17 3 32t28 15q24 0 32 -26q4 -13 11.5 -25.5t20.5 -22.5t32 -16t45 -6q54 0 82 28.5t28 76.5v97q-22 -28 -54 -43t-73 -15q-80 0 -124.5 49t-44.5 131v130
q0 83 44.5 132t124.5 49q44 0 77.5 -17.5t55.5 -48.5zM238 73q54 0 84.5 34.5t30.5 85.5v120q0 51 -30.5 86t-84.5 35q-53 0 -80.5 -33t-27.5 -80v-135q0 -48 27 -80.5t81 -32.5z" />
    <glyph glyph-name="h" unicode="h" horiz-adv-x="509" 
d="M109 -5q-17 0 -27 10t-10 26v615q0 16 10 26t27 10q16 0 26 -10t10 -26v-206q22 28 54 43.5t74 15.5q81 0 124.5 -48.5t43.5 -130.5v-289q0 -16 -10 -26t-27 -10t-26.5 10t-9.5 26v290q0 47 -27.5 80t-80.5 33q-54 0 -84.5 -35t-30.5 -86v-282q0 -16 -10 -26t-26 -10z
" />
    <glyph glyph-name="i" unicode="i" horiz-adv-x="217" 
d="M109 494q16 0 26 -10t10 -26v-427q0 -16 -10 -26t-26 -10q-17 0 -27 10t-10 26v427q0 16 10 26t27 10zM61 627q0 20 14 34t34 14t33.5 -14t13.5 -34t-13.5 -33.5t-33.5 -13.5t-34 13.5t-14 33.5z" />
    <glyph glyph-name="j" unicode="j" horiz-adv-x="217" 
d="M61 627q0 20 13.5 34t33.5 14t34 -14t14 -34t-14 -33.5t-34 -13.5t-33.5 13.5t-13.5 33.5zM-29 -134q52 2 76.5 30.5t24.5 78.5v482q0 17 9.5 27t26.5 10t27 -10t10 -27v-477q0 -88 -47 -132.5t-125 -44.5q-37 0 -37 32q0 30 35 31z" />
    <glyph glyph-name="k" unicode="k" horiz-adv-x="471" 
d="M408 -5q-22 0 -32 19l-147 231l-84 -84v-130q0 -16 -10 -26t-26 -10q-17 0 -27 10t-10 26v615q0 16 10 26t27 10t26.5 -10t9.5 -26v-394l230 231q5 5 10 8t13 3q14 0 24 -10t10 -24q0 -5 -2 -11t-7 -10l-141 -142l156 -246q6 -9 6 -20q0 -14 -10.5 -25t-25.5 -11z" />
    <glyph glyph-name="l" unicode="l" horiz-adv-x="226" 
d="M113 682q17 0 27 -10t10 -26v-615q0 -16 -10 -26t-27 -10t-27 10t-10 26v615q0 16 10 26t27 10z" />
    <glyph glyph-name="m" unicode="m" horiz-adv-x="793" 
d="M139 432q21 32 54.5 49.5t76.5 17.5q54 0 91 -23t56 -65q20 42 57 65t86 23q79 0 122.5 -48.5t43.5 -130.5v-289q0 -16 -10 -26t-27 -10t-27 10t-10 26v290q0 48 -26.5 80.5t-78.5 32.5q-51 0 -81.5 -33.5t-30.5 -81.5v-288q0 -16 -10 -26t-26 -10q-17 0 -27 10t-10 26
v290q0 48 -26.5 80.5t-78.5 32.5q-51 0 -81.5 -33.5t-30.5 -83.5v-286q0 -16 -10 -26t-26 -10q-17 0 -27 10t-10 26v430q0 15 8 24t23 9q11 0 19.5 -6t10.5 -20z" />
    <glyph glyph-name="n" unicode="n" horiz-adv-x="509" 
d="M139 431q22 32 56 50t78 18q81 0 124.5 -48.5t43.5 -130.5v-289q0 -16 -10 -26t-27 -10q-16 0 -26 10t-10 26v290q0 47 -27.5 80t-80.5 33q-54 0 -84.5 -35t-30.5 -86v-282q0 -16 -10 -26t-26 -10q-17 0 -27 10t-10 26v430q0 15 8 24t23 9q11 0 19.5 -6t10.5 -20z" />
    <glyph glyph-name="o" unicode="o" horiz-adv-x="483" 
d="M128 174q0 -52 29.5 -86.5t83.5 -34.5t83.5 34.5t29.5 86.5v140q0 52 -29.5 86.5t-83.5 34.5t-83.5 -34.5t-29.5 -86.5v-140zM428 180q0 -44 -13.5 -79t-38.5 -60t-59 -38t-76 -13t-76 13t-58.5 38t-38 60t-13.5 79v129q0 44 13.5 79t38 60t58.5 38t76 13t76 -13t59 -38
t38.5 -60t13.5 -79v-129z" />
    <glyph glyph-name="p" unicode="p" 
d="M260 434q-54 0 -84.5 -35t-30.5 -86v-138q0 -51 30.5 -85.5t84.5 -34.5t81 32.5t27 80.5v153q0 47 -27.5 80t-80.5 33zM139 432q22 32 55.5 49.5t77.5 17.5q80 0 124.5 -49t44.5 -132v-147q0 -83 -44.5 -132t-124.5 -49q-82 0 -127 59v-205q0 -16 -9.5 -26t-26.5 -10
t-27 10t-10 26v617q0 15 8 24t23 9q11 0 19.5 -6t10.5 -20z" />
    <glyph glyph-name="q" unicode="q" 
d="M364 468q2 14 11 20t20 6q15 0 23 -9t8 -24v-617q0 -16 -10 -26t-26 -10q-17 0 -27 10t-10 26v205q-45 -59 -127 -59q-80 0 -124.5 49t-44.5 132v147q0 83 44.5 132t124.5 49q43 0 77 -17.5t56 -49.5zM238 434q-53 0 -80.5 -33t-27.5 -80v-153q0 -48 27 -80.5t81 -32.5
t84.5 34.5t30.5 85.5v138q0 51 -30.5 86t-84.5 35z" />
    <glyph glyph-name="r" unicode="r" horiz-adv-x="315" 
d="M140 427q20 33 52 51.5t73 18.5q15 0 24.5 -9.5t9.5 -24.5t-8.5 -24t-22.5 -9q-57 0 -90 -34t-33 -88v-277q0 -16 -9.5 -26t-26.5 -10t-27 10t-10 26v430q0 15 8 24t23 9q11 0 19.5 -5.5t10.5 -20.5z" />
    <glyph glyph-name="s" unicode="s" horiz-adv-x="448" 
d="M170 234q-21 7 -41.5 17t-36.5 25t-25.5 36t-9.5 50q0 28 12 52.5t34 43.5t52.5 30t67.5 11q71 0 115.5 -31t54.5 -82q3 -16 -4.5 -29.5t-25.5 -13.5q-25 0 -33 27q-9 29 -33.5 50t-72.5 21q-18 0 -35.5 -4.5t-31.5 -13.5t-22.5 -22.5t-8.5 -32.5q0 -25 14 -40t45 -25
l83 -26q27 -9 51 -19.5t42 -26.5t28.5 -38t10.5 -54q0 -33 -12.5 -60.5t-35 -47t-55 -30.5t-72.5 -11q-75 0 -124.5 34t-56.5 94q-2 14 6.5 26.5t25.5 12.5q26 0 31 -26q7 -33 34 -57.5t83 -24.5q52 0 78.5 23t26.5 59q0 30 -15 46.5t-50 27.5z" />
    <glyph glyph-name="t" unicode="t" horiz-adv-x="314" 
d="M17 454q0 14 8 23t22 9h73v102q0 16 10 26t27 10q16 0 26.5 -10t10.5 -26v-102h73q14 0 22 -8t8 -22t-8 -23t-22 -9h-73v-393q0 -16 -10.5 -26t-26.5 -10q-17 0 -27 10t-10 26v393h-73q-14 0 -22 8t-8 22z" />
    <glyph glyph-name="u" unicode="u" horiz-adv-x="503" 
d="M364 56q-22 -31 -56 -48.5t-77 -17.5q-78 0 -120.5 47.5t-42.5 127.5v292q0 17 9.5 27t26.5 10t27 -10t10 -27v-292q0 -47 26 -78.5t77 -31.5q54 0 84 34.5t30 85.5v282q0 17 10 27t26 10q17 0 27 -10t10 -27v-429q0 -33 -31 -33q-11 0 -19.5 6t-10.5 20z" />
    <glyph glyph-name="v" unicode="v" horiz-adv-x="458" 
d="M70 494q13 0 22 -7.5t14 -18.5l125 -372l125 371q5 12 13.5 19.5t20.5 7.5q20 0 29.5 -16t3.5 -33l-148 -417q-12 -34 -46 -34t-46 34l-147 414q-7 19 3.5 35.5t30.5 16.5z" />
    <glyph glyph-name="w" unicode="w" horiz-adv-x="657" 
d="M500 26q-10 -31 -40 -31q-29 0 -39 31l-92 339l-91 -339q-10 -31 -40 -31q-31 0 -41 31l-117 417q-2 8 -2 12q0 17 10.5 28t25.5 11t24.5 -8.5t12.5 -21.5l90 -352l89 350q4 14 14.5 23t25.5 9q14 0 25 -9t15 -23l89 -349l91 354q3 12 11.5 19.5t22.5 7.5t23.5 -9.5
t11.5 -23.5q1 -7 -2 -20z" />
    <glyph glyph-name="x" unicode="x" horiz-adv-x="441" 
d="M374 -5q-19 0 -30 16l-126 184l-125 -182q-5 -7 -12 -12.5t-17 -5.5q-14 0 -24.5 9.5t-10.5 23.5q0 9 7 18l142 197l-137 195q-2 3 -4.5 8.5t-2.5 11.5q0 14 11 25t26 11q9 0 16.5 -4.5t12.5 -11.5l123 -179l120 176q5 8 12 13.5t17 5.5q14 0 24.5 -10t10.5 -24
q0 -9 -7 -18l-138 -192l141 -200q6 -8 6 -19q0 -14 -10 -25t-25 -11z" />
    <glyph glyph-name="y" unicode="y" horiz-adv-x="457" 
d="M205 -167q-4 -11 -12.5 -18t-19.5 -7q-17 0 -26.5 13t-4.5 30l54 147l-161 445q-5 15 3.5 33t30.5 18q28 0 36 -26l126 -369l126 370q7 25 32 25q19 0 29.5 -15t4.5 -33z" />
    <glyph glyph-name="z" unicode="z" horiz-adv-x="429" 
d="M127 61h239q13 0 21 -9t8 -22q0 -14 -8 -22t-21 -8h-299q-31 0 -31 28q0 11 4 18.5t9 16.5l246 364h-225q-14 0 -22 8.5t-8 22.5q0 13 8 22t22 9h286q30 0 30 -28q0 -11 -4 -19t-9 -16z" />
    <glyph glyph-name="braceleft" unicode="{" horiz-adv-x="334" 
d="M109 216q0 16 -2.5 30.5t-9.5 26t-19 18.5t-30 9q-13 2 -19 10t-6 20t5.5 20t18.5 10q36 4 49 26.5t13 57.5v150q0 77 39 120.5t115 49.5q14 1 25 -8t11 -25q0 -12 -6.5 -22t-18.5 -11q-51 -4 -70 -31t-19 -71v-150q0 -84 -60 -116q60 -34 60 -117v-155q0 -44 19 -71
t70 -31q12 -1 18.5 -10.5t6.5 -21.5q0 -16 -10 -25.5t-24 -8.5q-78 6 -117 49.5t-39 120.5v156z" />
    <glyph glyph-name="bar" unicode="|" horiz-adv-x="231" 
d="M150 -83q0 -15 -9.5 -24t-24.5 -9t-25 9t-10 24v820q0 15 10 24t25 9t24.5 -9t9.5 -24v-820z" />
    <glyph glyph-name="braceright" unicode="}" horiz-adv-x="334" 
d="M225 60q0 -77 -39 -120.5t-117 -49.5q-14 -1 -24 8.5t-10 25.5q0 12 6.5 21.5t18.5 10.5q51 4 70 31t19 71v155q0 83 60 117q-60 32 -60 116v150q0 44 -19 71t-70 31q-12 1 -18.5 11t-6.5 22q0 16 11 25t25 8q76 -6 115 -49.5t39 -120.5v-150q0 -35 13 -57.5t49 -26.5
q13 -2 18.5 -10t5.5 -20t-6 -20t-19 -10q-18 -2 -30 -9t-19 -18.5t-9.5 -26t-2.5 -30.5v-156z" />
    <glyph glyph-name="asciitilde" unicode="~" horiz-adv-x="511" 
d="M454 352q-19 -33 -43.5 -56t-61.5 -23q-27 0 -47.5 10.5t-43.5 26.5q-16 11 -33 20.5t-37 9.5q-26 0 -44.5 -17.5t-35.5 -46.5q-7 -12 -23 -12q-12 0 -20 8.5t-8 20.5q0 5 2 8.5t4 8.5q23 41 53 66t73 25q32 0 55.5 -12.5t43.5 -26.5q17 -11 31 -19.5t30 -8.5
q18 0 31.5 13.5t26.5 33.5q8 14 23 14q12 0 20 -8.5t8 -20.5q0 -6 -4 -14z" />
    <glyph glyph-name="uni00A0" unicode="&#xa0;" horiz-adv-x="212" 
 />
    <glyph glyph-name="exclamdown" unicode="&#xa1;" horiz-adv-x="224" 
d="M151 0v-135q0 -17 -11 -27.5t-28 -10.5t-27.5 10.5t-10.5 27.5v135l14 304q2 22 24 22q23 0 25 -22zM62 449q0 21 15 35.5t35 14.5q22 0 36.5 -14.5t14.5 -35.5q0 -22 -14.5 -36.5t-36.5 -14.5q-20 0 -35 14.5t-15 36.5z" />
    <glyph glyph-name="cent" unicode="&#xa2;" horiz-adv-x="475" 
d="M239 672q14 0 22.5 -8t8.5 -22v-61q63 -7 103 -44t47 -98q2 -14 -7 -26.5t-26 -12.5q-14 0 -22.5 6.5t-10.5 17.5q-7 44 -35 70t-79 26q-54 0 -83.5 -34.5t-29.5 -86.5v-140q0 -52 29.5 -86.5t83.5 -34.5t80.5 26.5t33.5 69.5q2 14 11.5 21t22.5 7q16 0 25.5 -11.5
t7.5 -26.5q-6 -63 -46 -101.5t-105 -45.5v-62q0 -14 -8.5 -22t-22.5 -8t-22 8t-8 22v62q-72 9 -114 58t-42 129v130q0 79 42 128t114 59v61q0 14 8 22t22 8z" />
    <glyph glyph-name="sterling" unicode="&#xa3;" horiz-adv-x="557" 
d="M45 290q0 14 8 22.5t22 8.5h39v140q0 48 14.5 86t40.5 64.5t62 41t80 14.5q79 0 130 -48t56 -132q1 -15 -8.5 -26.5t-26.5 -11.5q-14 0 -25 9t-12 23q-4 54 -32 86.5t-82 32.5q-60 0 -91 -38.5t-31 -98.5v-142h159q14 0 21.5 -8.5t7.5 -22.5t-7.5 -22t-21.5 -8h-159v-195
h285q15 0 23.5 -9.5t8.5 -23.5q0 -32 -32 -32h-397q-14 0 -23 9t-9 24q0 14 9 23t23 9h37v195h-39q-14 0 -22 8t-8 22z" />
    <glyph glyph-name="currency" unicode="&#xa4;" horiz-adv-x="585" 
d="M65 140q0 15 11 24l65 61q-26 41 -26 100v9q0 58 25 100l-64 61q-11 9 -11 24q0 13 9.5 23t23.5 10t25 -11l59 -63q22 15 49.5 23.5t60.5 8.5q63 0 110 -33l60 64q11 11 24 11q14 0 23.5 -10t9.5 -23q0 -14 -10 -24l-66 -62q13 -20 20 -45t7 -54v-9q0 -29 -7 -54.5
t-20 -45.5l66 -61q10 -10 10 -24q0 -12 -9.5 -22.5t-23.5 -10.5q-13 0 -24 11l-60 64q-45 -33 -110 -33q-66 0 -110 32l-59 -63q-11 -11 -25 -11t-23.5 10.5t-9.5 22.5zM185 323q0 -48 28 -78.5t79 -30.5q52 0 80 30.5t28 78.5v14q0 47 -28 78t-80 31q-51 0 -79 -31t-28 -78
v-14z" />
    <glyph glyph-name="yen" unicode="&#xa5;" horiz-adv-x="533" 
d="M91 301q-12 0 -19 7.5t-7 18.5q0 12 7 19.5t19 7.5h100l-130 256q-3 6 -3 15q0 15 10.5 26t25.5 11q23 0 33 -20l141 -288l141 289q5 11 13.5 15t17.5 4q15 0 24.5 -9.5t10.5 -21.5q0 -9 -5 -21l-131 -256h103q12 0 19 -7.5t7 -19.5q0 -26 -26 -26h-130l-9 -18v-60h139
q12 0 19 -7.5t7 -19.5q0 -26 -26 -26h-139v-138q0 -17 -11 -27t-28 -10t-27.5 10t-10.5 27v138h-135q-26 0 -26 26q0 12 7 19.5t19 7.5h135l1 60l-9 18h-127v0z" />
    <glyph glyph-name="brokenbar" unicode="&#xa6;" horiz-adv-x="239" 
d="M82 734q0 16 10.5 26t27.5 10q16 0 26.5 -10t10.5 -26v-298q0 -16 -10.5 -26t-26.5 -10q-17 0 -27.5 10t-10.5 26v298zM82 218q0 16 10 26t27 10q16 0 27 -10t11 -26v-298q0 -16 -10.5 -26t-26.5 -10q-17 0 -27.5 10t-10.5 26v298z" />
    <glyph glyph-name="section" unicode="&#xa7;" horiz-adv-x="512" 
d="M194 327q-27 11 -51.5 26t-43 35.5t-29.5 46.5t-11 59q0 38 14 70t40 55t62 35.5t80 12.5q81 0 135 -44t61 -126q1 -14 -8.5 -25t-26.5 -11q-14 0 -24 7t-12 20q-5 53 -35.5 84.5t-89.5 31.5q-60 0 -92 -29t-32 -74q0 -35 21.5 -61.5t54.5 -40.5l149 -64
q42 -18 68.5 -39.5t28.5 -51.5q1 -11 -8 -15.5t-20 0.5zM319 143q27 -11 51.5 -26t42.5 -35.5t29 -46.5t11 -60q0 -38 -14 -69.5t-39.5 -54.5t-62 -35.5t-80.5 -12.5q-80 0 -134 44t-61 126q-1 14 8.5 25t26.5 11q14 0 23.5 -7t11.5 -21q5 -51 35.5 -83t89.5 -32
q60 0 92.5 29t32.5 74q0 35 -21.5 61.5t-55.5 40.5l-149 64q-42 18 -68 39.5t-28 51.5q-1 11 7.5 15.5t20.5 -0.5z" />
    <glyph glyph-name="dieresis" unicode="&#xa8;" horiz-adv-x="241" 
d="M20 607q0 18 13 30.5t32 12.5q18 0 30 -12.5t12 -30.5q0 -19 -12 -32t-30 -13q-19 0 -32 13t-13 32zM134 607q0 18 13 30.5t31 12.5t30.5 -12.5t12.5 -30.5q0 -19 -12.5 -32t-30.5 -13t-31 13t-13 32z" />
    <glyph glyph-name="copyright" unicode="&#xa9;" horiz-adv-x="771" 
d="M46 327q0 70 26.5 132t72.5 108.5t107.5 73t132.5 26.5q70 0 132 -26.5t108.5 -73t73 -108.5t26.5 -132q0 -71 -26.5 -132.5t-73 -107t-108.5 -72t-132 -26.5q-71 0 -132.5 26.5t-107.5 72t-72.5 107t-26.5 132.5zM100 327q0 -60 22.5 -112t61 -91t90.5 -61.5t111 -22.5
t111 22.5t90.5 61.5t61 91t22.5 112t-22 112.5t-60.5 91.5t-90.5 62t-112 23q-59 0 -111 -23t-90.5 -62t-61 -91.5t-22.5 -112.5zM500 280q14 0 23 -10.5t7 -25.5q-7 -49 -45.5 -80t-100.5 -31q-68 0 -109.5 40t-41.5 109v93q0 69 41.5 108.5t109.5 39.5q62 0 100 -30
t45 -76q2 -14 -5.5 -25.5t-24.5 -11.5q-24 0 -29 25q-5 23 -25.5 42.5t-60.5 19.5q-41 0 -64 -25t-23 -63v-101q0 -38 23 -63.5t64 -25.5q42 0 61 19t24 45q2 12 10 19.5t21 7.5z" />
    <glyph glyph-name="ordfeminine" unicode="&#xaa;" horiz-adv-x="322" 
d="M203 437q-21 -29 -61 -29q-42 0 -62.5 25.5t-20.5 67.5v68q0 42 20.5 67.5t62.5 25.5t61 -29l2 9q3 20 23 20q26 0 26 -24v-207q0 -23 -26 -23q-20 0 -23 19zM155 455q20 0 32 13.5t12 33.5v65q0 20 -12 33.5t-32 13.5t-30.5 -12.5t-10.5 -32.5v-68q0 -20 10.5 -33
t30.5 -13z" />
    <glyph glyph-name="guillemotleft" unicode="&#xab;" horiz-adv-x="329" 
d="M223 233l37 -138q3 -13 -4 -21.5t-20 -8.5q-19 0 -27 20l-40 119q-2 6 -5 13.5t-3 15.5t3 15.5t5 13.5l41 122q7 20 27 20q12 0 20 -9t4 -22zM118 233l40 -136q4 -14 -4 -23t-20 -9q-20 0 -28 20l-42 119l-4.5 13.5t-2.5 15.5t2.5 15.5l4.5 13.5l43 122q8 20 27 20
q13 0 20.5 -9.5t3.5 -22.5z" />
    <glyph glyph-name="logicalnot" unicode="&#xac;" horiz-adv-x="523" 
d="M62 328q0 14 8.5 23.5t22.5 9.5h324q31 0 31 -31v-150q0 -16 -9.5 -25.5t-25.5 -9.5q-17 0 -26.5 9.5t-9.5 25.5v115h-284q-14 0 -22.5 9.5t-8.5 23.5z" />
    <glyph glyph-name="uni00AD" unicode="&#xad;" horiz-adv-x="371" 
d="M63 262q0 14 8.5 23.5t22.5 9.5h183q14 0 22.5 -9.5t8.5 -23.5t-8.5 -23.5t-22.5 -9.5h-183q-14 0 -22.5 9.5t-8.5 23.5z" />
    <glyph glyph-name="registered" unicode="&#xae;" horiz-adv-x="517" 
d="M53 460q0 43 16 81t43.5 66t65 44t80.5 16t80.5 -16t65.5 -44t44.5 -66t16.5 -81t-16.5 -80.5t-44.5 -65t-65.5 -43.5t-80.5 -16t-80.5 16t-65 43.5t-43.5 65t-16 80.5zM97 460q0 -34 12.5 -64t34 -52t51 -34.5t63.5 -12.5q33 0 62.5 12.5t51.5 34.5t34.5 52t12.5 64
t-12.5 64t-34.5 52.5t-51.5 35.5t-62.5 13q-34 0 -63.5 -13t-51 -35.5t-34 -52.5t-12.5 -64zM224 534v-66h41q19 0 28 9.5t9 24.5q0 32 -37 32h-41zM337 377q2 -3 2 -5.5v-4.5q0 -10 -6.5 -16t-15.5 -6q-16 0 -19 12l-31 75h-43v-65q0 -22 -22 -22q-21 0 -21 22v182
q0 22 22 22h66q35 0 57 -18t22 -50q0 -21 -10.5 -37.5t-27.5 -24.5z" />
    <glyph glyph-name="macron" unicode="&#xaf;" horiz-adv-x="275" 
d="M15 600q0 12 7.5 19.5t19.5 7.5h191q12 0 19.5 -7.5t7.5 -19.5q0 -13 -7.5 -20.5t-19.5 -7.5h-191q-12 0 -19.5 8t-7.5 20z" />
    <glyph glyph-name="degree" unicode="&#xb0;" horiz-adv-x="413" 
d="M49 509q0 33 12.5 61.5t33.5 50t49.5 34t60.5 12.5q33 0 62 -12.5t50.5 -34t34 -50t12.5 -61.5t-12.5 -61.5t-34 -49.5t-50.5 -33.5t-62 -12.5q-32 0 -60.5 12.5t-49.5 33.5t-33.5 49.5t-12.5 61.5zM110 509q0 -21 7.5 -39t20 -32t30 -22t37.5 -8t37.5 8t30.5 22t20.5 32
t7.5 39t-7.5 39t-20.5 32t-30.5 22t-37.5 8t-37.5 -8t-30 -22t-20 -32t-7.5 -39z" />
    <glyph glyph-name="plusminus" unicode="&#xb1;" horiz-adv-x="521" 
d="M296 398h133q13 0 20.5 -8t7.5 -21t-7.5 -21t-20.5 -8h-133v-101q0 -15 -10.5 -24t-25.5 -9q-16 0 -25 9t-9 24v101h-133q-13 0 -20 8t-7 21t7 21t20 8h133v102q0 34 34 34q15 0 25.5 -9t10.5 -25v-102zM66 137q0 12 7 20t19 8h336q12 0 19 -8t7 -20t-7 -19.5t-19 -7.5
h-336q-12 0 -19 7.5t-7 19.5z" />
    <glyph glyph-name="uni00B2" unicode="&#xb2;" horiz-adv-x="279" 
d="M32 510q0 28 11.5 58t47.5 53l57 37q17 11 27.5 26t10.5 36q0 19 -12 30.5t-35 11.5t-34.5 -11t-15.5 -27q-5 -23 -27 -23q-11 0 -19.5 7t-8.5 19q1 34 30.5 60t75.5 26q48 0 76.5 -24t28.5 -67q0 -33 -15 -57t-44 -44l-58 -38q-20 -13 -25.5 -27t-7.5 -24h129
q12 0 19 -7.5t7 -19.5q0 -25 -26 -25h-163q-13 0 -21 8t-8 21v1z" />
    <glyph glyph-name="uni00B3" unicode="&#xb3;" horiz-adv-x="278" 
d="M102 650q0 22 21 22h10q26 0 37.5 12.5t11.5 33.5t-12 33t-35 12q-20 0 -31.5 -10t-16.5 -27q-7 -20 -26 -20q-11 0 -19 7t-8 18q0 17 8.5 32t22.5 26.5t32.5 18t39.5 6.5q47 0 74.5 -24.5t27.5 -64.5q0 -27 -10.5 -45.5t-28.5 -27.5q21 -11 33 -31t12 -49
q0 -45 -29.5 -70.5t-79.5 -25.5q-21 0 -40 6.5t-33.5 17t-22.5 25t-8 31.5q0 12 7.5 20t19.5 8q11 0 17.5 -6.5t9.5 -16.5q5 -14 15.5 -25t33.5 -11q25 0 38 14t13 39q0 22 -13 36t-40 14h-10q-21 0 -21 22z" />
    <glyph glyph-name="acute" unicode="&#xb4;" horiz-adv-x="204" 
d="M116 680q11 11 25 11t23.5 -9.5t9.5 -24.5q0 -14 -12 -26l-96 -74q-7 -5 -15 -5q-11 0 -18 7t-7 17t9 21z" />
    <glyph glyph-name="uni00B5" unicode="&#xb5;" horiz-adv-x="501" 
d="M371 56q-21 -31 -55 -48.5t-78 -17.5q-61 0 -95 36l6 -170v-12q0 -16 -10 -26t-27 -10t-27 10t-10 26v613q0 17 10 27t27 10t27 -10t10 -27v-292q0 -47 26 -78.5t77 -31.5q53 0 83 34.5t30 85.5v282q0 17 10 27t27 10t27 -10t10 -27v-429q0 -33 -30 -33q-24 0 -30 26z
" />
    <glyph glyph-name="paragraph" unicode="&#xb6;" horiz-adv-x="510" 
d="M294 252q0 -15 -9 -22t-24 -6q-51 2 -92.5 17.5t-70.5 43t-45 66.5t-16 89t18 90t50.5 68.5t77.5 43.5t99 15h109q17 0 26.5 -10t9.5 -26v-701q0 -16 -10.5 -26t-27.5 -10t-27 10t-10 26v672h-58v-340z" />
    <glyph glyph-name="periodcentered" unicode="&#xb7;" horiz-adv-x="230" 
d="M65 274q0 22 14.5 36.5t35.5 14.5t36 -14.5t15 -36.5q0 -21 -15 -35.5t-36 -14.5t-35.5 14.5t-14.5 35.5z" />
    <glyph glyph-name="cedilla" unicode="&#xb8;" horiz-adv-x="239" 
d="M140 -45q39 0 60 -19t21 -51q0 -34 -22 -53t-59 -19h-80q-10 0 -16 6.5t-6 15.5q0 22 22 22h79q12 0 20.5 6.5t8.5 20.5t-8.5 20.5t-20.5 6.5h-45q-12 0 -18 7t-2 19l27 93l44 -17l-17 -58h12z" />
    <glyph glyph-name="uni00B9" unicode="&#xb9;" horiz-adv-x="222" 
d="M26 784q0 25 25 25h69q25 0 25 -25v-254h39q11 0 17.5 -7t6.5 -18t-6.5 -17.5t-17.5 -6.5h-134q-11 0 -17.5 6.5t-6.5 17.5t6.5 18t17.5 7h38v229h-37q-25 0 -25 25z" />
    <glyph glyph-name="ordmasculine" unicode="&#xba;" horiz-adv-x="310" 
d="M112 501q0 -20 11 -33.5t32 -13.5q20 0 32 13.5t12 33.5v68q0 20 -12 33t-32 13q-21 0 -32 -13t-11 -33v-68zM253 505q0 -45 -27 -71.5t-71 -26.5q-45 0 -71.5 26.5t-26.5 71.5v59q0 45 26.5 71.5t71.5 26.5q44 0 71 -26.5t27 -71.5v-59z" />
    <glyph glyph-name="guillemotright" unicode="&#xbb;" horiz-adv-x="329" 
d="M68 373q-4 13 4 22t20 9q20 0 27 -20l41 -122q2 -6 5 -13.5t3 -15.5t-3 -15.5t-5 -13.5l-40 -119q-8 -20 -27 -20q-13 0 -20 8.5t-4 21.5l37 138zM171 372q-4 13 3.5 22.5t20.5 9.5q19 0 27 -20l43 -122l4.5 -13.5t2.5 -15.5t-2.5 -15.5l-4.5 -13.5l-42 -119
q-8 -20 -28 -20q-12 0 -20 9t-4 23l40 136z" />
    <glyph glyph-name="onequarter" unicode="&#xbc;" horiz-adv-x="620" 
d="M502 333q17 0 27 -8.5t10 -22.5v-182h17q11 0 17 -7t6 -17q0 -11 -6 -18t-17 -7h-17v-48q0 -13 -8 -20.5t-21 -7.5q-28 0 -28 28v48h-115q-17 0 -26.5 10.5t-9.5 22.5q0 16 4.5 25t13.5 22l105 154q9 14 19.5 21t28.5 7zM482 120v142l-98 -142h98zM49 632q0 25 25 25h69
q25 0 25 -25v-254h39q11 0 17.5 -7t6.5 -18t-6.5 -17.5t-17.5 -6.5h-134q-11 0 -17.5 6.5t-6.5 17.5t6.5 18t17.5 7h38v229h-37q-25 0 -25 25zM351 328l-187 -320q-8 -13 -24 -13q-12 0 -20.5 8t-8.5 20q0 8 5 15l175 291l188 320q8 13 24 13q11 0 19.5 -8t8.5 -20
q0 -7 -4 -15z" />
    <glyph glyph-name="onehalf" unicode="&#xbd;" horiz-adv-x="631" 
d="M366 30q0 28 11.5 58t47.5 53l57 37q17 11 27.5 26t10.5 36q0 19 -12 30.5t-35 11.5t-34.5 -11t-15.5 -27q-5 -23 -27 -23q-11 0 -19.5 7t-8.5 19q1 34 30.5 60t75.5 26q48 0 76.5 -24t28.5 -67q0 -33 -15 -57t-44 -44l-58 -38q-20 -13 -25.5 -27t-7.5 -24h129
q12 0 19 -7.5t7 -19.5q0 -25 -26 -25h-163q-13 0 -21 8t-8 21v1zM48 632q0 25 25 25h69q25 0 25 -25v-254h39q11 0 17.5 -7t6.5 -18t-6.5 -17.5t-17.5 -6.5h-134q-11 0 -17.5 6.5t-6.5 17.5t6.5 18t17.5 7h38v229h-37q-25 0 -25 25zM350 328l-187 -320q-8 -13 -24 -13
q-12 0 -20.5 8t-8.5 20q0 8 5 15l175 291l188 320q8 13 24 13q11 0 19.5 -8t8.5 -20q0 -7 -4 -15z" />
    <glyph glyph-name="threequarters" unicode="&#xbe;" horiz-adv-x="621" 
d="M502 333q17 0 27 -8.5t10 -22.5v-182h17q11 0 17 -7t6 -17q0 -11 -6 -18t-17 -7h-17v-48q0 -13 -8 -20.5t-21 -7.5q-28 0 -28 28v48h-115q-17 0 -26.5 10.5t-9.5 22.5q0 16 4.5 25t13.5 22l105 154q9 14 19.5 21t28.5 7zM482 120v142l-98 -142h98zM351 328l-187 -320
q-8 -13 -24 -13q-12 0 -20.5 8t-8.5 20q0 8 5 15l175 291l188 320q8 13 24 13q11 0 19.5 -8t8.5 -20q0 -7 -4 -15zM121 503q0 22 21 22h10q26 0 37.5 12.5t11.5 33.5t-12 33t-35 12q-20 0 -31.5 -10t-16.5 -27q-7 -20 -26 -20q-11 0 -19 7t-8 18q0 17 8.5 32t22.5 26.5
t32.5 18t39.5 6.5q47 0 74.5 -24.5t27.5 -64.5q0 -27 -10.5 -45.5t-28.5 -27.5q21 -11 33 -31t12 -49q0 -45 -29.5 -70.5t-79.5 -25.5q-21 0 -40 6.5t-33.5 17t-22.5 25t-8 31.5q0 12 7.5 20t19.5 8q11 0 17.5 -6.5t9.5 -16.5q5 -14 15.5 -25t33.5 -11q25 0 38 14t13 39
q0 22 -13 36t-40 14h-10q-21 0 -21 22z" />
    <glyph glyph-name="questiondown" unicode="&#xbf;" horiz-adv-x="471" 
d="M248 323q13 0 21.5 -8.5t10.5 -21.5q4 -32 -2.5 -57.5t-20.5 -47t-33 -41t-38 -38.5q-12 -12 -25 -24.5t-23 -27t-16.5 -31.5t-6.5 -37q0 -45 30.5 -71.5t87.5 -26.5q61 0 93 30t34 78q1 15 11 24t25 9q16 0 26.5 -9.5t10.5 -26.5q0 -40 -15.5 -72t-42 -54.5t-63.5 -35
t-80 -12.5q-44 0 -79.5 11.5t-61.5 33t-40 52.5t-14 69q0 26 8 48.5t21.5 43t30.5 39t36 36.5q16 15 30 28.5t25 29.5t18.5 36t9.5 48q1 11 10.5 18.5t21.5 7.5zM298 449q0 -21 -14.5 -35.5t-35.5 -14.5t-35.5 14.5t-14.5 35.5t14.5 35.5t35.5 14.5t35.5 -14.5t14.5 -35.5z
" />
    <glyph glyph-name="Agrave" unicode="&#xc0;" horiz-adv-x="548" 
d="M166 221h212l-107 333zM512 47q3 -8 3 -14q0 -16 -10.5 -27t-27.5 -11q-27 0 -37 29l-42 131h-253l-42 -134q-3 -11 -12.5 -18.5t-23.5 -7.5q-15 0 -24.5 10.5t-9.5 25.5q0 3 2 11l190 583q13 37 49 37q35 0 48 -37zM293 743q5 -5 7 -9.5t2 -10.5q0 -10 -7 -17t-18 -7
q-8 0 -15 5l-96 74q-12 10 -12 26q0 14 9.5 24t23.5 10q13 0 25 -12z" />
    <glyph glyph-name="Aacute" unicode="&#xc1;" horiz-adv-x="548" 
d="M166 221h212l-107 333zM512 47q3 -8 3 -14q0 -16 -10.5 -27t-27.5 -11q-27 0 -37 29l-42 131h-253l-42 -134q-3 -11 -12.5 -18.5t-23.5 -7.5q-15 0 -24.5 10.5t-9.5 25.5q0 3 2 11l190 583q13 37 49 37q35 0 48 -37zM334 826q12 12 25 12q14 0 23.5 -10t9.5 -24
q0 -16 -12 -26l-96 -74q-7 -5 -15 -5q-11 0 -18 7t-7 17q0 6 2 10.5t7 9.5z" />
    <glyph glyph-name="Acircumflex" unicode="&#xc2;" horiz-adv-x="548" 
d="M166 221h212l-107 333zM512 47q3 -8 3 -14q0 -16 -10.5 -27t-27.5 -11q-27 0 -37 29l-42 131h-253l-42 -134q-3 -11 -12.5 -18.5t-23.5 -7.5q-15 0 -24.5 10.5t-9.5 25.5q0 3 2 11l190 583q13 37 49 37q35 0 48 -37zM389 730q6 -6 6 -14t-6 -14t-14 -6q-9 0 -16 7l-86 77
l-86 -78q-6 -6 -15 -6q-8 0 -13.5 5.5t-5.5 13.5q0 7 5 14l85 103q5 7 12.5 12t18.5 5t19 -5t13 -12z" />
    <glyph glyph-name="Atilde" unicode="&#xc3;" horiz-adv-x="548" 
d="M166 221h212l-107 333zM512 47q3 -8 3 -14q0 -16 -10.5 -27t-27.5 -11q-27 0 -37 29l-42 131h-253l-42 -134q-3 -11 -12.5 -18.5t-23.5 -7.5q-15 0 -24.5 10.5t-9.5 25.5q0 3 2 11l190 583q13 37 49 37q35 0 48 -37zM382 790q2 16 20 16q23 0 23 -31q0 -32 -17.5 -55.5
t-53.5 -23.5q-17 0 -32.5 6t-31.5 15l-40 22q-9 5 -19.5 9.5t-20.5 4.5q-13 0 -20.5 -6t-12 -13.5t-6 -15.5t-2.5 -12q-5 -15 -21 -15q-24 0 -24 29q0 35 22.5 59.5t60.5 24.5q27 0 58 -17l41 -22q11 -7 23 -12.5t22 -5.5q18 0 23.5 13.5t7.5 29.5z" />
    <glyph glyph-name="Adieresis" unicode="&#xc4;" horiz-adv-x="548" 
d="M166 221h212l-107 333zM512 47q3 -8 3 -14q0 -16 -10.5 -27t-27.5 -11q-27 0 -37 29l-42 131h-253l-42 -134q-3 -11 -12.5 -18.5t-23.5 -7.5q-15 0 -24.5 10.5t-9.5 25.5q0 3 2 11l190 583q13 37 49 37q35 0 48 -37zM174 762q0 18 13 30.5t32 12.5q18 0 30 -12.5
t12 -30.5q0 -19 -12 -32t-30 -13q-19 0 -32 13t-13 32zM288 762q0 18 13 30.5t31 12.5t30.5 -12.5t12.5 -30.5q0 -19 -12.5 -32t-30.5 -13t-31 13t-13 32z" />
    <glyph glyph-name="Aring" unicode="&#xc5;" horiz-adv-x="548" 
d="M512 47q3 -8 3 -14q0 -16 -10.5 -27t-27.5 -11q-27 0 -37 29l-42 131h-253l-42 -134q-3 -11 -12.5 -18.5t-23.5 -7.5q-15 0 -24.5 10.5t-9.5 25.5q0 3 2 11l190 583q0 1 0.5 1.5t0.5 2.5q-23 12 -36.5 34.5t-13.5 49.5q0 40 27.5 68t70.5 28t70.5 -28t27.5 -68
q0 -28 -14 -50.5t-38 -34.5l2 -3zM166 221h212l-107 333zM274 658q23 0 37 16t14 39t-14 39t-37 16t-37 -16t-14 -39t14 -39t37 -16z" />
    <glyph glyph-name="AE" unicode="&#xc6;" horiz-adv-x="806" 
d="M372 212v375l-185 -375h185zM372 146h-216l-64 -131q-10 -20 -34 -20q-15 0 -24.5 10.5t-9.5 24.5q0 10 4 18l290 578q8 14 21.5 22.5t29.5 8.5h353q14 0 23 -10t9 -24q0 -15 -9 -25t-23 -10h-274v-218h250q14 0 23 -10.5t9 -24.5q0 -15 -9 -24t-23 -9h-250v-233h281
q15 0 24 -10t9 -25t-9 -24.5t-24 -9.5h-320q-17 0 -27 10t-10 27v109z" />
    <glyph glyph-name="Ccedilla" unicode="&#xc7;" horiz-adv-x="548" 
d="M289 -45q39 0 60 -19t21 -51q0 -34 -22 -53t-59 -19h-80q-10 0 -16 6.5t-6 15.5q0 22 22 22h79q12 0 20.5 6.5t8.5 20.5t-8.5 20.5t-20.5 6.5h-45q-12 0 -18 7t-2 19l16 56q-78 12 -125 66.5t-47 140.5v257q0 48 15 87t43 66.5t68 42t89 14.5q45 0 83 -12.5t65.5 -36
t43.5 -57t19 -75.5q1 -17 -9 -28t-28 -11q-33 0 -36 30q-5 54 -39 87.5t-99 33.5q-66 0 -102.5 -39.5t-36.5 -99.5v-261q0 -60 36.5 -99.5t102.5 -39.5q64 0 99.5 34t38.5 90q1 15 10.5 24t25.5 9q17 0 27.5 -12.5t9.5 -29.5q-2 -42 -18 -76t-43 -57.5t-64 -36.5t-81 -14
l-10 -35h12z" />
    <glyph glyph-name="Egrave" unicode="&#xc8;" horiz-adv-x="514" 
d="M294 743q5 -5 7 -9.5t2 -10.5q0 -10 -7 -17t-18 -7q-8 0 -15 5l-96 74q-12 10 -12 26q0 14 9.5 24t23.5 10q13 0 25 -12zM159 302v-233h278q16 0 25 -10t9 -25t-9 -24.5t-25 -9.5h-317q-17 0 -27 10t-10 27v583q0 17 10 27t27 10h309q15 0 24.5 -9.5t9.5 -24.5
q0 -16 -9.5 -25.5t-24.5 -9.5h-270v-218h246q15 0 24 -10t9 -25t-9 -24t-24 -9h-246z" />
    <glyph glyph-name="Eacute" unicode="&#xc9;" horiz-adv-x="514" 
d="M159 302v-233h278q16 0 25 -10t9 -25t-9 -24.5t-25 -9.5h-317q-17 0 -27 10t-10 27v583q0 17 10 27t27 10h309q15 0 24.5 -9.5t9.5 -24.5q0 -16 -9.5 -25.5t-24.5 -9.5h-270v-218h246q15 0 24 -10t9 -25t-9 -24t-24 -9h-246zM335 826q12 12 25 12q14 0 23.5 -10t9.5 -24
q0 -16 -12 -26l-96 -74q-7 -5 -15 -5q-11 0 -18 7t-7 17q0 6 2 10.5t7 9.5z" />
    <glyph glyph-name="Ecircumflex" unicode="&#xca;" horiz-adv-x="514" 
d="M390 730q6 -6 6 -14t-6 -14t-14 -6q-9 0 -16 7l-86 77l-86 -78q-6 -6 -15 -6q-8 0 -13.5 5.5t-5.5 13.5q0 7 5 14l85 103q5 7 12.5 12t18.5 5t19 -5t13 -12zM159 302v-233h278q16 0 25 -10t9 -25t-9 -24.5t-25 -9.5h-317q-17 0 -27 10t-10 27v583q0 17 10 27t27 10h309
q15 0 24.5 -9.5t9.5 -24.5q0 -16 -9.5 -25.5t-24.5 -9.5h-270v-218h246q15 0 24 -10t9 -25t-9 -24t-24 -9h-246z" />
    <glyph glyph-name="Edieresis" unicode="&#xcb;" horiz-adv-x="514" 
d="M159 302v-233h278q16 0 25 -10t9 -25t-9 -24.5t-25 -9.5h-317q-17 0 -27 10t-10 27v583q0 17 10 27t27 10h309q15 0 24.5 -9.5t9.5 -24.5q0 -16 -9.5 -25.5t-24.5 -9.5h-270v-218h246q15 0 24 -10t9 -25t-9 -24t-24 -9h-246zM174 762q0 18 13 30.5t32 12.5q18 0 30 -12.5
t12 -30.5q0 -19 -12 -32t-30 -13q-19 0 -32 13t-13 32zM288 762q0 18 13 30.5t31 12.5t30.5 -12.5t12.5 -30.5q0 -19 -12.5 -32t-30.5 -13t-31 13t-13 32z" />
    <glyph glyph-name="Igrave" unicode="&#xcc;" horiz-adv-x="242" 
d="M159 32q0 -17 -10.5 -27t-27.5 -10t-27.5 10t-10.5 27v593q0 17 10.5 27t27.5 10t27.5 -10t10.5 -27v-593zM142 743q5 -5 7 -9.5t2 -10.5q0 -10 -7 -17t-18 -7q-8 0 -15 5l-96 74q-12 10 -12 26q0 14 9.5 24t23.5 10q13 0 25 -12z" />
    <glyph glyph-name="Iacute" unicode="&#xcd;" horiz-adv-x="242" 
d="M159 32q0 -17 -10.5 -27t-27.5 -10t-27.5 10t-10.5 27v593q0 17 10.5 27t27.5 10t27.5 -10t10.5 -27v-593zM182 826q12 12 25 12q14 0 23.5 -10t9.5 -24q0 -16 -12 -26l-96 -74q-7 -5 -15 -5q-11 0 -18 7t-7 17q0 6 2 10.5t7 9.5z" />
    <glyph glyph-name="Icircumflex" unicode="&#xce;" horiz-adv-x="242" 
d="M159 32q0 -17 -10.5 -27t-27.5 -10t-27.5 10t-10.5 27v593q0 17 10.5 27t27.5 10t27.5 -10t10.5 -27v-593zM236 730q6 -6 6 -14t-6 -14t-14 -6q-9 0 -16 7l-86 77l-86 -78q-6 -6 -15 -6q-8 0 -13.5 5.5t-5.5 13.5q0 7 5 14l85 103q5 7 12.5 12t18.5 5t19 -5t13 -12z" />
    <glyph glyph-name="Idieresis" unicode="&#xcf;" horiz-adv-x="242" 
d="M159 32q0 -17 -10.5 -27t-27.5 -10t-27.5 10t-10.5 27v593q0 17 10.5 27t27.5 10t27.5 -10t10.5 -27v-593zM20 762q0 18 13 30.5t32 12.5q18 0 30 -12.5t12 -30.5q0 -19 -12 -32t-30 -13q-19 0 -32 13t-13 32zM134 762q0 18 13 30.5t31 12.5t30.5 -12.5t12.5 -30.5
q0 -19 -12.5 -32t-30.5 -13t-31 13t-13 32z" />
    <glyph glyph-name="Eth" unicode="&#xd0;" horiz-adv-x="579" 
d="M294 657q50 0 91 -15t70 -43t44.5 -68t15.5 -89v-227q0 -50 -15.5 -89.5t-44.5 -67.5t-70 -43t-91 -15h-171q-17 0 -27 10t-10 27v266h-48q-14 0 -22 8.5t-8 22.5t8 23.5t22 9.5h48v253q0 17 10 27t27 10h171zM162 588v-221h106q14 0 22.5 -9.5t8.5 -23.5t-8.5 -22.5
t-22.5 -8.5h-106v-234h132q70 0 107.5 40.5t37.5 103.5v231q0 63 -37.5 103.5t-107.5 40.5h-132z" />
    <glyph glyph-name="Ntilde" unicode="&#xd1;" horiz-adv-x="585" 
d="M400 790q2 16 20 16q23 0 23 -31q0 -32 -17.5 -55.5t-53.5 -23.5q-17 0 -32.5 6t-31.5 15l-40 22q-9 5 -19.5 9.5t-20.5 4.5q-13 0 -20.5 -6t-12 -13.5t-6 -15.5t-2.5 -12q-5 -15 -21 -15q-24 0 -24 29q0 35 22.5 59.5t60.5 24.5q27 0 58 -17l41 -22q11 -7 23 -12.5
t22 -5.5q18 0 23.5 13.5t7.5 29.5zM502 32q0 -17 -10 -27t-27 -10q-15 0 -23.5 7.5t-14.5 17.5l-273 488v-479q0 -15 -10.5 -24.5t-25.5 -9.5t-25 9.5t-10 24.5v596q0 17 11 27t28 10q16 0 24.5 -6t16.5 -22l268 -477v471q0 15 10 24.5t25 9.5t25.5 -9.5t10.5 -24.5v-596z
" />
    <glyph glyph-name="Ograve" unicode="&#xd2;" horiz-adv-x="562" 
d="M300 743q5 -5 7 -9.5t2 -10.5q0 -10 -7 -17t-18 -7q-8 0 -15 5l-96 74q-12 10 -12 26q0 14 9.5 24t23.5 10q13 0 25 -12zM141 198q0 -60 36.5 -99.5t103.5 -39.5t103 39.5t36 99.5v261q0 60 -36 99.5t-103 39.5t-103.5 -39.5t-36.5 -99.5v-261zM497 200q0 -48 -16 -87
t-44.5 -66.5t-68 -42t-87.5 -14.5t-88 14.5t-68.5 42t-44 66.5t-15.5 87v257q0 48 15 87t43.5 66.5t68 42t89.5 14.5q48 0 87.5 -14.5t68 -42t44.5 -66.5t16 -87v-257z" />
    <glyph glyph-name="Oacute" unicode="&#xd3;" horiz-adv-x="562" 
d="M342 826q12 12 25 12q14 0 23.5 -10t9.5 -24q0 -16 -12 -26l-96 -74q-7 -5 -15 -5q-11 0 -18 7t-7 17q0 6 2 10.5t7 9.5zM141 198q0 -60 36.5 -99.5t103.5 -39.5t103 39.5t36 99.5v261q0 60 -36 99.5t-103 39.5t-103.5 -39.5t-36.5 -99.5v-261zM497 200q0 -48 -16 -87
t-44.5 -66.5t-68 -42t-87.5 -14.5t-88 14.5t-68.5 42t-44 66.5t-15.5 87v257q0 48 15 87t43.5 66.5t68 42t89.5 14.5q48 0 87.5 -14.5t68 -42t44.5 -66.5t16 -87v-257z" />
    <glyph glyph-name="Ocircumflex" unicode="&#xd4;" horiz-adv-x="562" 
d="M396 730q6 -6 6 -14t-6 -14t-14 -6q-9 0 -16 7l-86 77l-86 -78q-6 -6 -15 -6q-8 0 -13.5 5.5t-5.5 13.5q0 7 5 14l85 103q5 7 12.5 12t18.5 5t19 -5t13 -12zM141 198q0 -60 36.5 -99.5t103.5 -39.5t103 39.5t36 99.5v261q0 60 -36 99.5t-103 39.5t-103.5 -39.5
t-36.5 -99.5v-261zM497 200q0 -48 -16 -87t-44.5 -66.5t-68 -42t-87.5 -14.5t-88 14.5t-68.5 42t-44 66.5t-15.5 87v257q0 48 15 87t43.5 66.5t68 42t89.5 14.5q48 0 87.5 -14.5t68 -42t44.5 -66.5t16 -87v-257z" />
    <glyph glyph-name="Otilde" unicode="&#xd5;" horiz-adv-x="562" 
d="M141 198q0 -60 36.5 -99.5t103.5 -39.5t103 39.5t36 99.5v261q0 60 -36 99.5t-103 39.5t-103.5 -39.5t-36.5 -99.5v-261zM497 200q0 -48 -16 -87t-44.5 -66.5t-68 -42t-87.5 -14.5t-88 14.5t-68.5 42t-44 66.5t-15.5 87v257q0 48 15 87t43.5 66.5t68 42t89.5 14.5
q48 0 87.5 -14.5t68 -42t44.5 -66.5t16 -87v-257zM389 790q2 16 20 16q23 0 23 -31q0 -32 -17.5 -55.5t-53.5 -23.5q-17 0 -32.5 6t-31.5 15l-40 22q-9 5 -19.5 9.5t-20.5 4.5q-13 0 -20.5 -6t-12 -13.5t-6 -15.5t-2.5 -12q-5 -15 -21 -15q-24 0 -24 29q0 35 22.5 59.5
t60.5 24.5q27 0 58 -17l41 -22q11 -7 23 -12.5t22 -5.5q18 0 23.5 13.5t7.5 29.5z" />
    <glyph glyph-name="Odieresis" unicode="&#xd6;" horiz-adv-x="562" 
d="M141 198q0 -60 36.5 -99.5t103.5 -39.5t103 39.5t36 99.5v261q0 60 -36 99.5t-103 39.5t-103.5 -39.5t-36.5 -99.5v-261zM497 200q0 -48 -16 -87t-44.5 -66.5t-68 -42t-87.5 -14.5t-88 14.5t-68.5 42t-44 66.5t-15.5 87v257q0 48 15 87t43.5 66.5t68 42t89.5 14.5
q48 0 87.5 -14.5t68 -42t44.5 -66.5t16 -87v-257zM181 762q0 18 13 30.5t32 12.5q18 0 30 -12.5t12 -30.5q0 -19 -12 -32t-30 -13q-19 0 -32 13t-13 32zM295 762q0 18 13 30.5t31 12.5t30.5 -12.5t12.5 -30.5q0 -19 -12.5 -32t-30.5 -13t-31 13t-13 32z" />
    <glyph glyph-name="multiply" unicode="&#xd7;" horiz-adv-x="424" 
d="M164 328l-84 84q-11 11 -10.5 24.5t11.5 24.5q23 23 47 0l85 -85l84 85q24 22 48 0q22 -24 0 -48l-85 -85l85 -84q11 -11 10.5 -24.5t-11.5 -24.5t-23 -11t-23 11l-86 85l-85 -85q-24 -22 -47 0q-11 11 -11 24t11 24z" />
    <glyph glyph-name="Oslash" unicode="&#xd8;" horiz-adv-x="562" 
d="M443 604q26 -27 40 -64t14 -83v-257q0 -48 -16 -87t-44.5 -66.5t-68 -42t-87.5 -14.5q-71 0 -122 30l-27 -57q-7 -17 -25 -17q-11 0 -17.5 7.5t-6.5 18.5q0 6 2 12l33 69q-26 27 -39.5 64t-13.5 83v257q0 48 15 87t43.5 66.5t68 42t89.5 14.5q68 0 121 -31l28 59
q4 7 10 12t15 5q11 0 18 -7.5t7 -18.5q0 -8 -3 -12zM422 460q0 39 -16 71l-217 -446q36 -28 92 -28q68 0 104.5 39.5t36.5 100.5v263zM140 197q0 -41 16 -72l217 446q-17 14 -40 21.5t-52 7.5q-68 0 -104.5 -39.5t-36.5 -100.5v-263z" />
    <glyph glyph-name="Ugrave" unicode="&#xd9;" horiz-adv-x="579" 
d="M309 743q5 -5 7 -9.5t2 -10.5q0 -10 -7 -17t-18 -7q-8 0 -15 5l-96 74q-12 10 -12 26q0 14 9.5 24t23.5 10q13 0 25 -12zM463 662q17 0 27.5 -10t10.5 -27v-425q0 -48 -15.5 -87t-43.5 -66.5t-67 -42t-86 -14.5t-86 14.5t-66.5 42t-43 66.5t-15.5 87v425q0 17 10.5 27
t27.5 10t27.5 -10t10.5 -27v-427q0 -60 35 -99.5t100 -39.5q66 0 101 39.5t35 99.5v427q0 17 10.5 27t27.5 10z" />
    <glyph glyph-name="Uacute" unicode="&#xda;" horiz-adv-x="579" 
d="M463 662q17 0 27.5 -10t10.5 -27v-425q0 -48 -15.5 -87t-43.5 -66.5t-67 -42t-86 -14.5t-86 14.5t-66.5 42t-43 66.5t-15.5 87v425q0 17 10.5 27t27.5 10t27.5 -10t10.5 -27v-427q0 -60 35 -99.5t100 -39.5q66 0 101 39.5t35 99.5v427q0 17 10.5 27t27.5 10zM350 826
q12 12 25 12q14 0 23.5 -10t9.5 -24q0 -16 -12 -26l-96 -74q-7 -5 -15 -5q-11 0 -18 7t-7 17q0 6 2 10.5t7 9.5z" />
    <glyph glyph-name="Ucircumflex" unicode="&#xdb;" horiz-adv-x="579" 
d="M404 730q6 -6 6 -14t-6 -14t-14 -6q-9 0 -16 7l-86 77l-86 -78q-6 -6 -15 -6q-8 0 -13.5 5.5t-5.5 13.5q0 7 5 14l85 103q5 7 12.5 12t18.5 5t19 -5t13 -12zM463 662q17 0 27.5 -10t10.5 -27v-425q0 -48 -15.5 -87t-43.5 -66.5t-67 -42t-86 -14.5t-86 14.5t-66.5 42
t-43 66.5t-15.5 87v425q0 17 10.5 27t27.5 10t27.5 -10t10.5 -27v-427q0 -60 35 -99.5t100 -39.5q66 0 101 39.5t35 99.5v427q0 17 10.5 27t27.5 10z" />
    <glyph glyph-name="Udieresis" unicode="&#xdc;" horiz-adv-x="579" 
d="M463 662q17 0 27.5 -10t10.5 -27v-425q0 -48 -15.5 -87t-43.5 -66.5t-67 -42t-86 -14.5t-86 14.5t-66.5 42t-43 66.5t-15.5 87v425q0 17 10.5 27t27.5 10t27.5 -10t10.5 -27v-427q0 -60 35 -99.5t100 -39.5q66 0 101 39.5t35 99.5v427q0 17 10.5 27t27.5 10zM188 762
q0 18 13 30.5t32 12.5q18 0 30 -12.5t12 -30.5q0 -19 -12 -32t-30 -13q-19 0 -32 13t-13 32zM302 762q0 18 13 30.5t31 12.5t30.5 -12.5t12.5 -30.5q0 -19 -12.5 -32t-30.5 -13t-31 13t-13 32z" />
    <glyph glyph-name="Yacute" unicode="&#xdd;" horiz-adv-x="488" 
d="M282 262v-230q0 -17 -10.5 -27t-27.5 -10t-27.5 10t-10.5 27v230l-170 346q-4 7 -4 17q0 15 10.5 26t25.5 11q23 0 33 -20l145 -305l147 306q5 11 13 15t18 4q14 0 24 -9.5t10 -21.5q1 -5 -1 -11t-4 -11zM306 826q12 12 25 12q14 0 23.5 -10t9.5 -24q0 -16 -12 -26
l-96 -74q-7 -5 -15 -5q-11 0 -18 7t-7 17q0 6 2 10.5t7 9.5z" />
    <glyph glyph-name="Thorn" unicode="&#xde;" horiz-adv-x="547" 
d="M159 539h125q48 0 89 -15t70.5 -42t46 -65.5t16.5 -86.5t-16.5 -87.5t-46 -67.5t-70.5 -43t-89 -15h-125v-85q0 -17 -10.5 -27t-27.5 -10t-27.5 10t-10.5 27v593q0 17 10.5 27t27.5 10t27.5 -10t10.5 -27v-86zM159 472v-288h120q69 0 109 39.5t40 105.5t-40 104.5
t-109 38.5h-120z" />
    <glyph glyph-name="germandbls" unicode="&#xdf;" horiz-adv-x="504" 
d="M215 30q0 13 6.5 22.5t19.5 9.5h13q58 0 92 35.5t34 92.5q0 28 -8 52.5t-24.5 42.5t-42.5 28t-63 10q-13 0 -20 9t-7 22t7.5 22t20.5 9q58 0 89.5 32.5t31.5 83.5t-28 82t-82 31q-31 0 -52 -9t-33.5 -25.5t-18 -38.5t-5.5 -49v-462q0 -16 -10 -25.5t-26 -9.5t-26.5 9.5
t-10.5 25.5v457q0 91 47.5 140.5t135.5 49.5q41 0 75 -12t58.5 -34.5t38 -54t13.5 -69.5q0 -55 -26.5 -93t-73.5 -56v-2q54 -17 85 -60t31 -109q0 -43 -15 -77.5t-41.5 -59t-62.5 -38t-77 -13.5h-15q-14 0 -22 8.5t-8 22.5z" />
    <glyph glyph-name="agrave" unicode="&#xe0;" 
d="M238 55q54 0 84.5 34.5t30.5 85.5v138q0 51 -30.5 86t-84.5 35q-53 0 -80.5 -33t-27.5 -80v-153q0 -48 27 -80.5t81 -32.5zM359 56q-22 -31 -56 -48.5t-77 -17.5q-80 0 -124.5 49t-44.5 132v147q0 83 44.5 132t124.5 49q44 0 77.5 -17.5t55.5 -48.5l5 35q4 14 12 20t19 6
q15 0 23 -9t8 -24v-433q0 -33 -31 -33q-11 0 -20 5.5t-11 20.5zM262 597q9 -11 9 -21t-7 -17t-18 -7q-8 0 -15 5l-96 74q-12 12 -12 26q0 15 9.5 24.5t23.5 9.5t25 -11z" />
    <glyph glyph-name="aacute" unicode="&#xe1;" 
d="M238 55q54 0 84.5 34.5t30.5 85.5v138q0 51 -30.5 86t-84.5 35q-53 0 -80.5 -33t-27.5 -80v-153q0 -48 27 -80.5t81 -32.5zM359 56q-22 -31 -56 -48.5t-77 -17.5q-80 0 -124.5 49t-44.5 132v147q0 83 44.5 132t124.5 49q44 0 77.5 -17.5t55.5 -48.5l5 35q4 14 12 20t19 6
q15 0 23 -9t8 -24v-433q0 -33 -31 -33q-11 0 -20 5.5t-11 20.5zM302 680q11 11 25 11t23.5 -9.5t9.5 -24.5q0 -14 -12 -26l-96 -74q-7 -5 -15 -5q-11 0 -18 7t-7 17t9 21z" />
    <glyph glyph-name="acircumflex" unicode="&#xe2;" 
d="M238 55q54 0 84.5 34.5t30.5 85.5v138q0 51 -30.5 86t-84.5 35q-53 0 -80.5 -33t-27.5 -80v-153q0 -48 27 -80.5t81 -32.5zM359 56q-22 -31 -56 -48.5t-77 -17.5q-80 0 -124.5 49t-44.5 132v147q0 83 44.5 132t124.5 49q44 0 77.5 -17.5t55.5 -48.5l5 35q4 14 12 20t19 6
q15 0 23 -9t8 -24v-433q0 -33 -31 -33q-11 0 -20 5.5t-11 20.5zM356 583q6 -6 6 -14t-6 -14t-14 -6q-9 0 -16 7l-86 77l-86 -78q-6 -6 -15 -6q-8 0 -13.5 6t-5.5 14q0 6 5 13l85 103q5 7 12.5 12t18.5 5t19 -5t13 -12z" />
    <glyph glyph-name="atilde" unicode="&#xe3;" 
d="M238 55q54 0 84.5 34.5t30.5 85.5v138q0 51 -30.5 86t-84.5 35q-53 0 -80.5 -33t-27.5 -80v-153q0 -48 27 -80.5t81 -32.5zM359 56q-22 -31 -56 -48.5t-77 -17.5q-80 0 -124.5 49t-44.5 132v147q0 83 44.5 132t124.5 49q44 0 77.5 -17.5t55.5 -48.5l5 35q4 14 12 20t19 6
q15 0 23 -9t8 -24v-433q0 -33 -31 -33q-11 0 -20 5.5t-11 20.5zM349 650q2 16 20 16q23 0 23 -30q0 -33 -17.5 -56.5t-53.5 -23.5q-17 0 -32.5 6.5t-31.5 14.5l-40 22q-9 5 -19.5 9.5t-20.5 4.5q-13 0 -20.5 -6t-12 -13.5t-6 -15.5t-2.5 -12q-2 -6 -7.5 -10.5t-13.5 -4.5
q-11 0 -17.5 8t-6.5 22q0 35 22.5 59.5t60.5 24.5q27 0 58 -17l41 -23q11 -7 23 -12t22 -5q18 0 23.5 13t7.5 29z" />
    <glyph glyph-name="adieresis" unicode="&#xe4;" 
d="M238 55q54 0 84.5 34.5t30.5 85.5v138q0 51 -30.5 86t-84.5 35q-53 0 -80.5 -33t-27.5 -80v-153q0 -48 27 -80.5t81 -32.5zM359 56q-22 -31 -56 -48.5t-77 -17.5q-80 0 -124.5 49t-44.5 132v147q0 83 44.5 132t124.5 49q44 0 77.5 -17.5t55.5 -48.5l5 35q4 14 12 20t19 6
q15 0 23 -9t8 -24v-433q0 -33 -31 -33q-11 0 -20 5.5t-11 20.5zM141 607q0 18 13 30.5t32 12.5q18 0 30 -12.5t12 -30.5q0 -19 -12 -32t-30 -13q-19 0 -32 13t-13 32zM255 607q0 18 13 30.5t31 12.5t30.5 -12.5t12.5 -30.5q0 -19 -12.5 -32t-30.5 -13t-31 13t-13 32z" />
    <glyph glyph-name="aring" unicode="&#xe5;" 
d="M238 55q54 0 84.5 34.5t30.5 85.5v138q0 51 -30.5 86t-84.5 35q-53 0 -80.5 -33t-27.5 -80v-153q0 -48 27 -80.5t81 -32.5zM359 56q-22 -31 -56 -48.5t-77 -17.5q-80 0 -124.5 49t-44.5 132v147q0 83 44.5 132t124.5 49q44 0 77.5 -17.5t55.5 -48.5l5 35q4 14 12 20t19 6
q15 0 23 -9t8 -24v-433q0 -33 -31 -33q-11 0 -20 5.5t-11 20.5zM241 569q23 0 37 16t14 39t-14 38.5t-37 15.5t-37 -15.5t-14 -38.5t14 -39t37 -16zM241 528q-43 0 -70.5 28.5t-27.5 67.5t27.5 67.5t70.5 28.5t70.5 -28.5t27.5 -67.5t-27.5 -67.5t-70.5 -28.5z" />
    <glyph glyph-name="ae" unicode="&#xe6;" horiz-adv-x="760" 
d="M221 52q56 0 87.5 34.5t31.5 85.5v38h-116q-17 0 -35 -2.5t-33 -11t-24.5 -24t-9.5 -42.5q0 -34 24 -56t75 -22zM413 292h225v24q0 53 -29 88t-83 35t-83.5 -35t-29.5 -88v-24zM527 50q54 0 81 27.5t34 63.5q2 12 9.5 19.5t21.5 7.5q16 0 25 -11.5t7 -28.5
q-8 -62 -56.5 -100t-121.5 -38q-56 0 -97 23.5t-61 67.5q-21 -43 -62 -67t-98 -24q-75 0 -118.5 36.5t-43.5 105.5t45.5 102t126.5 33h121v62q0 46 -28 77t-81 31q-51 0 -77 -27t-33 -62q-2 -12 -10.5 -19.5t-22.5 -7.5q-16 0 -25 11.5t-7 28.5q8 61 55 99.5t122 38.5
q50 0 87.5 -20.5t58.5 -57.5q23 38 60.5 58t86.5 20q40 0 73.5 -13t57.5 -38t37.5 -60t13.5 -79v-38q0 -17 -10 -26.5t-27 -9.5h-258v-70q0 -49 29.5 -82t84.5 -33z" />
    <glyph glyph-name="ccedilla" unicode="&#xe7;" horiz-adv-x="473" 
d="M248 -45q39 0 60 -19t21 -51q0 -34 -22 -53t-59 -19h-80q-10 0 -16 6.5t-6 15.5q0 22 22 22h79q12 0 20.5 6.5t8.5 20.5t-8.5 20.5t-20.5 6.5h-45q-12 0 -18 7t-2 19l16 57q-66 12 -104.5 61t-38.5 125v129q0 88 51 139t136 51q74 0 123 -38.5t56 -101.5
q2 -16 -6.5 -28.5t-26.5 -12.5q-30 0 -34 28q-7 40 -34.5 64.5t-77.5 24.5q-56 0 -85 -34.5t-29 -86.5v-140q0 -52 29 -86.5t85 -34.5q53 0 79 24.5t34 68.5q6 29 34 29q17 0 26.5 -12t7.5 -28q-8 -67 -55.5 -105t-121.5 -40l-10 -35h12z" />
    <glyph glyph-name="egrave" unicode="&#xe8;" horiz-adv-x="474" 
d="M387 168q16 0 25 -11t7 -29q-7 -63 -55 -100.5t-123 -37.5q-84 0 -135 48.5t-51 133.5v137q0 44 13.5 79t38 60t58.5 38t76 13q40 0 73.5 -13t57.5 -38t37 -60t13 -79v-38q0 -17 -9.5 -26.5t-26.5 -9.5h-259v-70q0 -49 30 -82t85 -33q54 0 81.5 27t32.5 64q4 27 31 27z
M127 292h226v24q0 53 -29 88t-83 35q-55 0 -84.5 -35t-29.5 -88v-24zM259 597q9 -11 9 -21t-7 -17t-18 -7q-8 0 -15 5l-96 74q-12 12 -12 26q0 15 9.5 24.5t23.5 9.5t25 -11z" />
    <glyph glyph-name="eacute" unicode="&#xe9;" horiz-adv-x="474" 
d="M299 680q11 11 25 11t23.5 -9.5t9.5 -24.5q0 -14 -12 -26l-96 -74q-7 -5 -15 -5q-11 0 -18 7t-7 17t9 21zM387 168q16 0 25 -11t7 -29q-7 -63 -55 -100.5t-123 -37.5q-84 0 -135 48.5t-51 133.5v137q0 44 13.5 79t38 60t58.5 38t76 13q40 0 73.5 -13t57.5 -38t37 -60
t13 -79v-38q0 -17 -9.5 -26.5t-26.5 -9.5h-259v-70q0 -49 30 -82t85 -33q54 0 81.5 27t32.5 64q4 27 31 27zM127 292h226v24q0 53 -29 88t-83 35q-55 0 -84.5 -35t-29.5 -88v-24z" />
    <glyph glyph-name="ecircumflex" unicode="&#xea;" horiz-adv-x="474" 
d="M354 583q6 -6 6 -14t-6 -14t-14 -6q-9 0 -16 7l-86 77l-86 -78q-6 -6 -15 -6q-8 0 -13.5 6t-5.5 14q0 6 5 13l85 103q5 7 12.5 12t18.5 5t19 -5t13 -12zM387 168q16 0 25 -11t7 -29q-7 -63 -55 -100.5t-123 -37.5q-84 0 -135 48.5t-51 133.5v137q0 44 13.5 79t38 60
t58.5 38t76 13q40 0 73.5 -13t57.5 -38t37 -60t13 -79v-38q0 -17 -9.5 -26.5t-26.5 -9.5h-259v-70q0 -49 30 -82t85 -33q54 0 81.5 27t32.5 64q4 27 31 27zM127 292h226v24q0 53 -29 88t-83 35q-55 0 -84.5 -35t-29.5 -88v-24z" />
    <glyph glyph-name="edieresis" unicode="&#xeb;" horiz-adv-x="474" 
d="M138 607q0 18 13 30.5t32 12.5q18 0 30 -12.5t12 -30.5q0 -19 -12 -32t-30 -13q-19 0 -32 13t-13 32zM252 607q0 18 13 30.5t31 12.5t30.5 -12.5t12.5 -30.5q0 -19 -12.5 -32t-30.5 -13t-31 13t-13 32zM387 168q16 0 25 -11t7 -29q-7 -63 -55 -100.5t-123 -37.5
q-84 0 -135 48.5t-51 133.5v137q0 44 13.5 79t38 60t58.5 38t76 13q40 0 73.5 -13t57.5 -38t37 -60t13 -79v-38q0 -17 -9.5 -26.5t-26.5 -9.5h-259v-70q0 -49 30 -82t85 -33q54 0 81.5 27t32.5 64q4 27 31 27zM127 292h226v24q0 53 -29 88t-83 35q-55 0 -84.5 -35t-29.5 -88
v-24z" />
    <glyph glyph-name="igrave" unicode="&#xec;" horiz-adv-x="217" 
d="M108 494q16 0 26.5 -10t10.5 -26v-427q0 -16 -10 -26t-26 -10q-17 0 -27 10t-10 26v427q0 16 10 26t26 10zM129 597q9 -11 9 -21t-7 -17t-18 -7q-8 0 -15 5l-96 74q-12 12 -12 26q0 15 9.5 24.5t23.5 9.5t25 -11z" />
    <glyph glyph-name="iacute" unicode="&#xed;" horiz-adv-x="217" 
d="M169 680q11 11 25 11t23.5 -9.5t9.5 -24.5q0 -14 -12 -26l-96 -74q-7 -5 -15 -5q-11 0 -18 7t-7 17t9 21zM108 494q16 0 26.5 -10t10.5 -26v-427q0 -16 -10 -26t-26 -10q-17 0 -27 10t-10 26v427q0 16 10 26t26 10z" />
    <glyph glyph-name="icircumflex" unicode="&#xee;" horiz-adv-x="217" 
d="M224 583q6 -6 6 -14t-6 -14t-14 -6q-9 0 -16 7l-86 77l-86 -78q-6 -6 -15 -6q-8 0 -13.5 6t-5.5 14q0 6 5 13l85 103q5 7 12.5 12t18.5 5t19 -5t13 -12zM108 494q16 0 26.5 -10t10.5 -26v-427q0 -16 -10 -26t-26 -10q-17 0 -27 10t-10 26v427q0 16 10 26t26 10z" />
    <glyph glyph-name="idieresis" unicode="&#xef;" horiz-adv-x="217" 
d="M8 607q0 18 13 30.5t32 12.5q18 0 30 -12.5t12 -30.5q0 -19 -12 -32t-30 -13q-19 0 -32 13t-13 32zM122 607q0 18 13 30.5t31 12.5t30.5 -12.5t12.5 -30.5q0 -19 -12.5 -32t-30.5 -13t-31 13t-13 32zM108 494q16 0 26.5 -10t10.5 -26v-427q0 -16 -10 -26t-26 -10
q-17 0 -27 10t-10 26v427q0 16 10 26t26 10z" />
    <glyph glyph-name="eth" unicode="&#xf0;" horiz-adv-x="494" 
d="M367 589q31 -42 46 -92.5t15 -122.5v-194q0 -44 -13.5 -79t-38 -60t-59 -38t-75.5 -13q-42 0 -76 13t-59 38t-38.5 60t-13.5 79v129q0 44 12.5 79t36 60t56 38t72.5 13q42 0 73 -17t51 -49q-3 25 -8 44.5t-11.5 35.5t-14.5 29.5t-18 26.5l-73 -23q-8 -2 -11 -2
q-22 0 -22 22q0 7 4 13.5t13 9.5l57 18q-6 8 -12.5 15t-14.5 16q-7 7 -7 18q0 13 8.5 21.5t20.5 8.5q8 0 13.5 -3.5t10.5 -8.5l45 -47l60 20q6 2 11 2q22 0 22 -22q0 -7 -4 -13.5t-13 -9.5zM128 174q0 -52 29.5 -86.5t84.5 -34.5q54 0 83.5 34.5t29.5 86.5v140
q0 52 -29.5 86.5t-83.5 34.5q-55 0 -84.5 -34.5t-29.5 -86.5v-140z" />
    <glyph glyph-name="ntilde" unicode="&#xf1;" horiz-adv-x="509" 
d="M139 431q22 32 56 50t78 18q81 0 124.5 -48.5t43.5 -130.5v-289q0 -16 -10 -26t-27 -10q-16 0 -26 10t-10 26v290q0 47 -27.5 80t-80.5 33q-54 0 -84.5 -35t-30.5 -86v-282q0 -16 -10 -26t-26 -10q-17 0 -27 10t-10 26v430q0 15 8 24t23 9q11 0 19.5 -6t10.5 -20z
M365 650q2 16 20 16q23 0 23 -30q0 -33 -17.5 -56.5t-53.5 -23.5q-17 0 -32.5 6.5t-31.5 14.5l-40 22q-9 5 -19.5 9.5t-20.5 4.5q-13 0 -20.5 -6t-12 -13.5t-6 -15.5t-2.5 -12q-2 -6 -7.5 -10.5t-13.5 -4.5q-11 0 -17.5 8t-6.5 22q0 35 22.5 59.5t60.5 24.5q27 0 58 -17
l41 -23q11 -7 23 -12t22 -5q18 0 23.5 13t7.5 29z" />
    <glyph glyph-name="ograve" unicode="&#xf2;" horiz-adv-x="483" 
d="M128 174q0 -52 29.5 -86.5t83.5 -34.5t83.5 34.5t29.5 86.5v140q0 52 -29.5 86.5t-83.5 34.5t-83.5 -34.5t-29.5 -86.5v-140zM428 180q0 -44 -13.5 -79t-38.5 -60t-59 -38t-76 -13t-76 13t-58.5 38t-38 60t-13.5 79v129q0 44 13.5 79t38 60t58.5 38t76 13t76 -13t59 -38
t38.5 -60t13.5 -79v-129zM261 597q9 -11 9 -21t-7 -17t-18 -7q-8 0 -15 5l-96 74q-12 12 -12 26q0 15 9.5 24.5t23.5 9.5t25 -11z" />
    <glyph glyph-name="oacute" unicode="&#xf3;" horiz-adv-x="483" 
d="M302 680q11 11 25 11t23.5 -9.5t9.5 -24.5q0 -14 -12 -26l-96 -74q-7 -5 -15 -5q-11 0 -18 7t-7 17t9 21zM128 174q0 -52 29.5 -86.5t83.5 -34.5t83.5 34.5t29.5 86.5v140q0 52 -29.5 86.5t-83.5 34.5t-83.5 -34.5t-29.5 -86.5v-140zM428 180q0 -44 -13.5 -79t-38.5 -60
t-59 -38t-76 -13t-76 13t-58.5 38t-38 60t-13.5 79v129q0 44 13.5 79t38 60t58.5 38t76 13t76 -13t59 -38t38.5 -60t13.5 -79v-129z" />
    <glyph glyph-name="ocircumflex" unicode="&#xf4;" horiz-adv-x="483" 
d="M356 583q6 -6 6 -14t-6 -14t-14 -6q-9 0 -16 7l-86 77l-86 -78q-6 -6 -15 -6q-8 0 -13.5 6t-5.5 14q0 6 5 13l85 103q5 7 12.5 12t18.5 5t19 -5t13 -12zM128 174q0 -52 29.5 -86.5t83.5 -34.5t83.5 34.5t29.5 86.5v140q0 52 -29.5 86.5t-83.5 34.5t-83.5 -34.5
t-29.5 -86.5v-140zM428 180q0 -44 -13.5 -79t-38.5 -60t-59 -38t-76 -13t-76 13t-58.5 38t-38 60t-13.5 79v129q0 44 13.5 79t38 60t58.5 38t76 13t76 -13t59 -38t38.5 -60t13.5 -79v-129z" />
    <glyph glyph-name="otilde" unicode="&#xf5;" horiz-adv-x="483" 
d="M128 174q0 -52 29.5 -86.5t83.5 -34.5t83.5 34.5t29.5 86.5v140q0 52 -29.5 86.5t-83.5 34.5t-83.5 -34.5t-29.5 -86.5v-140zM428 180q0 -44 -13.5 -79t-38.5 -60t-59 -38t-76 -13t-76 13t-58.5 38t-38 60t-13.5 79v129q0 44 13.5 79t38 60t58.5 38t76 13t76 -13t59 -38
t38.5 -60t13.5 -79v-129zM348 650q2 16 20 16q23 0 23 -30q0 -33 -17.5 -56.5t-53.5 -23.5q-17 0 -32.5 6.5t-31.5 14.5l-40 22q-9 5 -19.5 9.5t-20.5 4.5q-13 0 -20.5 -6t-12 -13.5t-6 -15.5t-2.5 -12q-2 -6 -7.5 -10.5t-13.5 -4.5q-11 0 -17.5 8t-6.5 22q0 35 22.5 59.5
t60.5 24.5q27 0 58 -17l41 -23q11 -7 23 -12t22 -5q18 0 23.5 13t7.5 29z" />
    <glyph glyph-name="odieresis" unicode="&#xf6;" horiz-adv-x="483" 
d="M140 607q0 18 13 30.5t32 12.5q18 0 30 -12.5t12 -30.5q0 -19 -12 -32t-30 -13q-19 0 -32 13t-13 32zM254 607q0 18 13 30.5t31 12.5t30.5 -12.5t12.5 -30.5q0 -19 -12.5 -32t-30.5 -13t-31 13t-13 32zM128 174q0 -52 29.5 -86.5t83.5 -34.5t83.5 34.5t29.5 86.5v140
q0 52 -29.5 86.5t-83.5 34.5t-83.5 -34.5t-29.5 -86.5v-140zM428 180q0 -44 -13.5 -79t-38.5 -60t-59 -38t-76 -13t-76 13t-58.5 38t-38 60t-13.5 79v129q0 44 13.5 79t38 60t58.5 38t76 13t76 -13t59 -38t38.5 -60t13.5 -79v-129z" />
    <glyph glyph-name="divide" unicode="&#xf7;" horiz-adv-x="506" 
d="M57 328q0 14 8.5 23t22.5 9h330q14 0 22 -9t8 -23t-8 -23t-22 -9h-330q-14 0 -22.5 9t-8.5 23zM205 172q0 20 14 34t33 14q20 0 33.5 -14t13.5 -34q0 -19 -13.5 -33t-33.5 -14q-19 0 -33 14t-14 33zM205 485q0 19 14 33t33 14q20 0 33.5 -14t13.5 -33q0 -20 -13.5 -34
t-33.5 -14q-19 0 -33 14t-14 34z" />
    <glyph glyph-name="oslash" unicode="&#xf8;" horiz-adv-x="483" 
d="M428 180q0 -44 -13.5 -79t-38.5 -60t-59 -38t-76 -13q-54 0 -96 22l-26 -50q-4 -7 -8.5 -11.5t-14.5 -4.5q-11 0 -17.5 6.5t-6.5 15.5q0 7 4 14l31 58q-25 25 -38.5 60t-13.5 80v129q0 44 13.5 79t38 60t58.5 38t76 13q55 0 96 -23l27 51q4 7 8.5 11.5t15.5 4.5t17 -6.5
t6 -15.5q0 -4 -4 -14l-31 -59q25 -25 38.5 -60t13.5 -79v-129zM127 173q0 -40 16 -68l166 312q-28 20 -68 20q-55 0 -84.5 -34.5t-29.5 -86.5v-143zM356 316q0 37 -16 67l-166 -312q28 -19 67 -19q56 0 85.5 34.5t29.5 86.5v143z" />
    <glyph glyph-name="ugrave" unicode="&#xf9;" horiz-adv-x="503" 
d="M364 56q-22 -31 -56 -48.5t-77 -17.5q-78 0 -120.5 47.5t-42.5 127.5v292q0 17 9.5 27t26.5 10t27 -10t10 -27v-292q0 -47 26 -78.5t77 -31.5q54 0 84 34.5t30 85.5v282q0 17 10 27t26 10q17 0 27 -10t10 -27v-429q0 -33 -31 -33q-11 0 -19.5 6t-10.5 20zM270 597
q9 -11 9 -21t-7 -17t-18 -7q-8 0 -15 5l-96 74q-12 12 -12 26q0 15 9.5 24.5t23.5 9.5t25 -11z" />
    <glyph glyph-name="uacute" unicode="&#xfa;" horiz-adv-x="503" 
d="M311 680q11 11 25 11t23.5 -9.5t9.5 -24.5q0 -14 -12 -26l-96 -74q-7 -5 -15 -5q-11 0 -18 7t-7 17t9 21zM364 56q-22 -31 -56 -48.5t-77 -17.5q-78 0 -120.5 47.5t-42.5 127.5v292q0 17 9.5 27t26.5 10t27 -10t10 -27v-292q0 -47 26 -78.5t77 -31.5q54 0 84 34.5
t30 85.5v282q0 17 10 27t26 10q17 0 27 -10t10 -27v-429q0 -33 -31 -33q-11 0 -19.5 6t-10.5 20z" />
    <glyph glyph-name="ucircumflex" unicode="&#xfb;" horiz-adv-x="503" 
d="M364 583q6 -6 6 -14t-6 -14t-14 -6q-9 0 -16 7l-86 77l-86 -78q-6 -6 -15 -6q-8 0 -13.5 6t-5.5 14q0 6 5 13l85 103q5 7 12.5 12t18.5 5t19 -5t13 -12zM364 56q-22 -31 -56 -48.5t-77 -17.5q-78 0 -120.5 47.5t-42.5 127.5v292q0 17 9.5 27t26.5 10t27 -10t10 -27v-292
q0 -47 26 -78.5t77 -31.5q54 0 84 34.5t30 85.5v282q0 17 10 27t26 10q17 0 27 -10t10 -27v-429q0 -33 -31 -33q-11 0 -19.5 6t-10.5 20z" />
    <glyph glyph-name="udieresis" unicode="&#xfc;" horiz-adv-x="503" 
d="M149 607q0 18 13 30.5t32 12.5q18 0 30 -12.5t12 -30.5q0 -19 -12 -32t-30 -13q-19 0 -32 13t-13 32zM263 607q0 18 13 30.5t31 12.5t30.5 -12.5t12.5 -30.5q0 -19 -12.5 -32t-30.5 -13t-31 13t-13 32zM364 56q-22 -31 -56 -48.5t-77 -17.5q-78 0 -120.5 47.5
t-42.5 127.5v292q0 17 9.5 27t26.5 10t27 -10t10 -27v-292q0 -47 26 -78.5t77 -31.5q54 0 84 34.5t30 85.5v282q0 17 10 27t26 10q17 0 27 -10t10 -27v-429q0 -33 -31 -33q-11 0 -19.5 6t-10.5 20z" />
    <glyph glyph-name="yacute" unicode="&#xfd;" horiz-adv-x="457" 
d="M205 -167q-4 -11 -12.5 -18t-19.5 -7q-17 0 -26.5 13t-4.5 30l54 147l-161 445q-5 15 3.5 33t30.5 18q28 0 36 -26l126 -369l126 370q7 25 32 25q19 0 29.5 -15t4.5 -33zM291 680q11 11 25 11t23.5 -9.5t9.5 -24.5q0 -14 -12 -26l-96 -74q-7 -5 -15 -5q-11 0 -18 7t-7 17
t9 21z" />
    <glyph glyph-name="thorn" unicode="&#xfe;" 
d="M145 440q21 28 53.5 43.5t73.5 15.5q80 0 124.5 -49t44.5 -132v-147q0 -83 -44.5 -132t-124.5 -49q-41 0 -73.5 15t-53.5 43v-204q0 -16 -10.5 -26t-26.5 -10t-26 10t-10 26v802q0 16 10 26t26 10q17 0 27 -10t10 -26v-206zM260 434q-54 0 -84.5 -35t-30.5 -86v-138
q0 -51 30.5 -85.5t84.5 -34.5t81 32.5t27 80.5v153q0 47 -27.5 80t-80.5 33z" />
    <glyph glyph-name="ydieresis" unicode="&#xff;" horiz-adv-x="457" 
d="M205 -167q-4 -11 -12.5 -18t-19.5 -7q-17 0 -26.5 13t-4.5 30l54 147l-161 445q-5 15 3.5 33t30.5 18q28 0 36 -26l126 -369l126 370q7 25 32 25q19 0 29.5 -15t4.5 -33zM129 607q0 18 13 30.5t32 12.5q18 0 30 -12.5t12 -30.5q0 -19 -12 -32t-30 -13q-19 0 -32 13
t-13 32zM243 607q0 18 13 30.5t31 12.5t30.5 -12.5t12.5 -30.5q0 -19 -12.5 -32t-30.5 -13t-31 13t-13 32z" />
    <glyph glyph-name="Amacron" unicode="&#x100;" horiz-adv-x="548" 
d="M166 221h212l-107 333zM512 47q3 -8 3 -14q0 -16 -10.5 -27t-27.5 -11q-27 0 -37 29l-42 131h-253l-42 -134q-3 -11 -12.5 -18.5t-23.5 -7.5q-15 0 -24.5 10.5t-9.5 25.5q0 3 2 11l190 583q13 37 49 37q35 0 48 -37zM152 760q0 12 7.5 19.5t19.5 7.5h191q12 0 19.5 -7.5
t7.5 -19.5q0 -13 -7.5 -20.5t-19.5 -7.5h-191q-12 0 -19.5 8t-7.5 20z" />
    <glyph glyph-name="amacron" unicode="&#x101;" 
d="M238 55q54 0 84.5 34.5t30.5 85.5v138q0 51 -30.5 86t-84.5 35q-53 0 -80.5 -33t-27.5 -80v-153q0 -48 27 -80.5t81 -32.5zM359 56q-22 -31 -56 -48.5t-77 -17.5q-80 0 -124.5 49t-44.5 132v147q0 83 44.5 132t124.5 49q44 0 77.5 -17.5t55.5 -48.5l5 35q4 14 12 20t19 6
q15 0 23 -9t8 -24v-433q0 -33 -31 -33q-11 0 -20 5.5t-11 20.5zM119 600q0 12 7.5 19.5t19.5 7.5h191q12 0 19.5 -7.5t7.5 -19.5q0 -13 -7.5 -20.5t-19.5 -7.5h-191q-12 0 -19.5 8t-7.5 20z" />
    <glyph glyph-name="Abreve" unicode="&#x102;" horiz-adv-x="548" 
d="M166 221h212l-107 333zM512 47q3 -8 3 -14q0 -16 -10.5 -27t-27.5 -11q-27 0 -37 29l-42 131h-253l-42 -134q-3 -11 -12.5 -18.5t-23.5 -7.5q-15 0 -24.5 10.5t-9.5 25.5q0 3 2 11l190 583q13 37 49 37q35 0 48 -37zM351 817q11 0 17.5 -6.5t5.5 -17.5q1 -40 -26 -69
t-75 -29q-24 0 -43 8t-32 21.5t-19.5 31.5t-6.5 37q0 11 7 17.5t18 6.5q22 0 24 -22q-1 -23 11.5 -40t40.5 -17q27 0 40 16.5t13 40.5q0 22 25 22z" />
    <glyph glyph-name="abreve" unicode="&#x103;" 
d="M238 55q54 0 84.5 34.5t30.5 85.5v138q0 51 -30.5 86t-84.5 35q-53 0 -80.5 -33t-27.5 -80v-153q0 -48 27 -80.5t81 -32.5zM359 56q-22 -31 -56 -48.5t-77 -17.5q-80 0 -124.5 49t-44.5 132v147q0 83 44.5 132t124.5 49q44 0 77.5 -17.5t55.5 -48.5l5 35q4 14 12 20t19 6
q15 0 23 -9t8 -24v-433q0 -33 -31 -33q-11 0 -20 5.5t-11 20.5zM318 671q11 0 17.5 -7t5.5 -18q1 -39 -26.5 -68.5t-74.5 -29.5q-24 0 -43 8t-32 21.5t-19.5 31.5t-6.5 37q0 11 7 18t18 7t17 -6.5t7 -16.5q-1 -23 11.5 -40t40.5 -17q27 0 40 16.5t13 40.5q0 10 6.5 16.5
t18.5 6.5z" />
    <glyph glyph-name="Aogonek" unicode="&#x104;" horiz-adv-x="548" 
d="M450 -188q-46 0 -68 21.5t-22 52.5q0 19 7.5 37.5t20 34.5t28.5 29t33 21q-6 5 -9 16l-42 131h-253l-42 -134q-3 -11 -12.5 -18.5t-23.5 -7.5q-15 0 -24.5 10.5t-9.5 25.5q0 3 2 11l190 583q13 37 49 37q35 0 48 -37l190 -578q3 -8 3 -15q0 -14 -9 -24.5t-22 -12.5
q-32 -20 -53 -45.5t-21 -52.5q0 -17 11.5 -27t37.5 -10h28q11 0 17 -6.5t6 -16.5q0 -11 -6 -18t-17 -7h-37zM166 221h212l-107 333z" />
    <glyph glyph-name="aogonek" unicode="&#x105;" 
d="M366 -188q-45 0 -67.5 21.5t-22.5 52.5q0 19 8.5 37.5t22 34t30 28t33.5 20.5q-2 2 -3.5 5t-2.5 10l-5 35q-22 -31 -56 -48.5t-77 -17.5q-80 0 -124.5 49t-44.5 132v147q0 83 44.5 132t124.5 49q44 0 77.5 -17.5t55.5 -48.5l5 35q4 14 12 20t19 6q15 0 23 -9t8 -24v-433
q0 -27 -21 -32q-35 -21 -56.5 -46t-21.5 -53q0 -17 11.5 -27t37.5 -10h27q11 0 17 -6.5t6 -16.5q0 -11 -6 -18t-17 -7h-37zM238 55q54 0 84.5 34.5t30.5 85.5v138q0 51 -30.5 86t-84.5 35q-53 0 -80.5 -33t-27.5 -80v-153q0 -48 27 -80.5t81 -32.5z" />
    <glyph glyph-name="Cacute" unicode="&#x106;" horiz-adv-x="546" 
d="M454 216q17 0 27.5 -12.5t9.5 -29.5q-2 -43 -18 -77t-44 -58t-66 -36.5t-83 -12.5q-48 0 -87.5 14.5t-68 42t-44 66.5t-15.5 87v257q0 48 15 87t43 66.5t68 42t89 14.5q45 0 83 -12.5t65.5 -36t43.5 -57t19 -75.5q1 -17 -9 -28t-28 -11q-33 0 -36 30q-5 54 -39 87.5
t-99 33.5q-66 0 -102.5 -39.5t-36.5 -99.5v-261q0 -60 36.5 -99.5t102.5 -39.5q64 0 99.5 34t38.5 90q1 15 10.5 24t25.5 9zM340 826q12 12 25 12q14 0 23.5 -10t9.5 -24q0 -16 -12 -26l-96 -74q-7 -5 -15 -5q-11 0 -18 7t-7 17q0 6 2 10.5t7 9.5z" />
    <glyph glyph-name="cacute" unicode="&#x107;" horiz-adv-x="473" 
d="M301 680q11 11 25 11t23.5 -9.5t9.5 -24.5q0 -14 -12 -26l-96 -74q-7 -5 -15 -5q-11 0 -18 7t-7 17t9 21zM389 175q17 0 26.5 -12t7.5 -28q-8 -68 -57 -106.5t-124 -38.5q-42 0 -76.5 13t-59 38t-38 60t-13.5 79v129q0 88 51 139t136 51q74 0 123 -38.5t56 -101.5
q2 -16 -6.5 -28.5t-26.5 -12.5q-30 0 -34 28q-7 40 -34.5 64.5t-77.5 24.5q-56 0 -85 -34.5t-29 -86.5v-140q0 -52 29 -86.5t85 -34.5q53 0 79 24.5t34 68.5q6 29 34 29z" />
    <glyph glyph-name="Ccircumflex" unicode="&#x108;" horiz-adv-x="546" 
d="M454 216q17 0 27.5 -12.5t9.5 -29.5q-2 -43 -18 -77t-44 -58t-66 -36.5t-83 -12.5q-48 0 -87.5 14.5t-68 42t-44 66.5t-15.5 87v257q0 48 15 87t43 66.5t68 42t89 14.5q45 0 83 -12.5t65.5 -36t43.5 -57t19 -75.5q1 -17 -9 -28t-28 -11q-33 0 -36 30q-5 54 -39 87.5
t-99 33.5q-66 0 -102.5 -39.5t-36.5 -99.5v-261q0 -60 36.5 -99.5t102.5 -39.5q64 0 99.5 34t38.5 90q1 15 10.5 24t25.5 9zM394 730q6 -6 6 -14t-6 -14t-14 -6q-9 0 -16 7l-86 77l-86 -78q-6 -6 -15 -6q-8 0 -13.5 5.5t-5.5 13.5q0 7 5 14l85 103q5 7 12.5 12t18.5 5t19 -5
t13 -12z" />
    <glyph glyph-name="ccircumflex" unicode="&#x109;" horiz-adv-x="473" 
d="M355 583q6 -6 6 -14t-6 -14t-14 -6q-9 0 -16 7l-86 77l-86 -78q-6 -6 -15 -6q-8 0 -13.5 6t-5.5 14q0 6 5 13l85 103q5 7 12.5 12t18.5 5t19 -5t13 -12zM389 175q17 0 26.5 -12t7.5 -28q-8 -68 -57 -106.5t-124 -38.5q-42 0 -76.5 13t-59 38t-38 60t-13.5 79v129
q0 88 51 139t136 51q74 0 123 -38.5t56 -101.5q2 -16 -6.5 -28.5t-26.5 -12.5q-30 0 -34 28q-7 40 -34.5 64.5t-77.5 24.5q-56 0 -85 -34.5t-29 -86.5v-140q0 -52 29 -86.5t85 -34.5q53 0 79 24.5t34 68.5q6 29 34 29z" />
    <glyph glyph-name="Cdotaccent" unicode="&#x10a;" horiz-adv-x="546" 
d="M230 760q0 21 14 35t34 14q21 0 35 -14t14 -35q0 -20 -14 -34t-35 -14q-20 0 -34 14t-14 34zM454 216q17 0 27.5 -12.5t9.5 -29.5q-2 -43 -18 -77t-44 -58t-66 -36.5t-83 -12.5q-48 0 -87.5 14.5t-68 42t-44 66.5t-15.5 87v257q0 48 15 87t43 66.5t68 42t89 14.5
q45 0 83 -12.5t65.5 -36t43.5 -57t19 -75.5q1 -17 -9 -28t-28 -11q-33 0 -36 30q-5 54 -39 87.5t-99 33.5q-66 0 -102.5 -39.5t-36.5 -99.5v-261q0 -60 36.5 -99.5t102.5 -39.5q64 0 99.5 34t38.5 90q1 15 10.5 24t25.5 9z" />
    <glyph glyph-name="cdotaccent" unicode="&#x10b;" horiz-adv-x="473" 
d="M389 175q17 0 26.5 -12t7.5 -28q-8 -68 -57 -106.5t-124 -38.5q-42 0 -76.5 13t-59 38t-38 60t-13.5 79v129q0 88 51 139t136 51q74 0 123 -38.5t56 -101.5q2 -16 -6.5 -28.5t-26.5 -12.5q-30 0 -34 28q-7 40 -34.5 64.5t-77.5 24.5q-56 0 -85 -34.5t-29 -86.5v-140
q0 -52 29 -86.5t85 -34.5q53 0 79 24.5t34 68.5q6 29 34 29zM190 607q0 20 14 34.5t34 14.5q21 0 35 -14.5t14 -34.5t-14 -34t-35 -14q-20 0 -34 14t-14 34z" />
    <glyph glyph-name="Ccaron" unicode="&#x10c;" horiz-adv-x="546" 
d="M454 216q17 0 27.5 -12.5t9.5 -29.5q-2 -43 -18 -77t-44 -58t-66 -36.5t-83 -12.5q-48 0 -87.5 14.5t-68 42t-44 66.5t-15.5 87v257q0 48 15 87t43 66.5t68 42t89 14.5q45 0 83 -12.5t65.5 -36t43.5 -57t19 -75.5q1 -17 -9 -28t-28 -11q-33 0 -36 30q-5 54 -39 87.5
t-99 33.5q-66 0 -102.5 -39.5t-36.5 -99.5v-261q0 -60 36.5 -99.5t102.5 -39.5q64 0 99.5 34t38.5 90q1 15 10.5 24t25.5 9zM164 805q-6 6 -6 14t6.5 14t14.5 6q9 0 16 -7l86 -77l86 78q6 6 14 6t14 -5.5t6 -13.5q0 -7 -5 -14l-85 -103q-5 -7 -12.5 -12t-18.5 -5t-19 5
t-13 12z" />
    <glyph glyph-name="ccaron" unicode="&#x10d;" horiz-adv-x="473" 
d="M124 662q-6 7 -6 14q0 8 6.5 14t14.5 6q9 0 16 -7l86 -77l86 78q6 6 14 6t14 -5.5t6 -13.5q0 -7 -5 -14l-85 -102q-5 -8 -12.5 -13t-18.5 -5t-19 5t-13 13zM389 175q17 0 26.5 -12t7.5 -28q-8 -68 -57 -106.5t-124 -38.5q-42 0 -76.5 13t-59 38t-38 60t-13.5 79v129
q0 88 51 139t136 51q74 0 123 -38.5t56 -101.5q2 -16 -6.5 -28.5t-26.5 -12.5q-30 0 -34 28q-7 40 -34.5 64.5t-77.5 24.5q-56 0 -85 -34.5t-29 -86.5v-140q0 -52 29 -86.5t85 -34.5q53 0 79 24.5t34 68.5q6 29 34 29z" />
    <glyph glyph-name="Dcaron" unicode="&#x10e;" horiz-adv-x="576" 
d="M291 657q50 0 91 -15t70 -43t44.5 -68t15.5 -89v-227q0 -50 -15.5 -89.5t-44.5 -67.5t-70 -43t-91 -15h-171q-17 0 -27 10t-10 27v583q0 17 10 27t27 10h171zM159 588v-519h132q70 0 107.5 40.5t37.5 103.5v231q0 63 -37.5 103.5t-107.5 40.5h-132zM143 805q-6 6 -6 14
t6.5 14t14.5 6q9 0 16 -7l86 -77l86 78q6 6 14 6t14 -5.5t6 -13.5q0 -7 -5 -14l-85 -103q-5 -7 -12.5 -12t-18.5 -5t-19 5t-13 12z" />
    <glyph glyph-name="dcaron" unicode="&#x10f;" 
d="M521 558q-4 -10 -10 -16t-17 -6t-18.5 7.5t-7.5 18.5q0 1 0.5 4t1.5 8l9 72q2 16 11.5 26t26.5 10q14 0 25.5 -9t11.5 -25q0 -8 -3 -18zM426 28q0 -33 -31 -33q-11 0 -19 5.5t-12 20.5l-5 35q-22 -31 -56 -48.5t-77 -17.5q-80 0 -124.5 49t-44.5 132v147q0 83 44.5 132
t124.5 49q41 0 73 -15.5t54 -43.5v206q0 16 9.5 26t26.5 10t27 -10t10 -26v-618zM238 55q54 0 84.5 34.5t30.5 85.5v138q0 51 -30.5 86t-84.5 35q-53 0 -80.5 -33t-27.5 -80v-153q0 -48 27 -80.5t81 -32.5z" />
    <glyph glyph-name="Dcroat" unicode="&#x110;" horiz-adv-x="594" 
d="M308 657q50 0 91 -15t70 -43t44.5 -68t15.5 -89v-227q0 -50 -15.5 -89.5t-44.5 -67.5t-70 -43t-91 -15h-171q-17 0 -27 10t-10 27v266h-48q-14 0 -22 9t-8 23t8 23t22 9h48v253q0 17 10 27t27 10h171zM176 588v-221h106q14 0 22.5 -9.5t8.5 -23.5t-8.5 -22.5t-22.5 -8.5
h-106v-234h132q70 0 107.5 40.5t37.5 103.5v231q0 63 -37.5 103.5t-107.5 40.5h-132z" />
    <glyph glyph-name="dcroat" unicode="&#x111;" 
d="M426 603h40q11 0 18 -7.5t7 -18.5t-7 -18.5t-18 -7.5h-40v-523q0 -33 -31 -33q-11 0 -19 5.5t-12 20.5l-5 35q-22 -31 -56 -48.5t-77 -17.5q-80 0 -124.5 49t-44.5 132v147q0 83 44.5 132t124.5 49q41 0 73 -15.5t54 -43.5v111h-100q-11 0 -18 7.5t-7 18.5t7 18.5t18 7.5
h100v43q0 16 9.5 26t26.5 10t27 -10t10 -26v-43zM238 55q54 0 84.5 34.5t30.5 85.5v138q0 51 -30.5 86t-84.5 35q-53 0 -80.5 -33t-27.5 -80v-153q0 -48 27 -80.5t81 -32.5z" />
    <glyph glyph-name="Emacron" unicode="&#x112;" horiz-adv-x="514" 
d="M159 302v-233h278q16 0 25 -10t9 -25t-9 -24.5t-25 -9.5h-317q-17 0 -27 10t-10 27v583q0 17 10 27t27 10h309q15 0 24.5 -9.5t9.5 -24.5q0 -16 -9.5 -25.5t-24.5 -9.5h-270v-218h246q15 0 24 -10t9 -25t-9 -24t-24 -9h-246zM151 760q0 12 7.5 19.5t19.5 7.5h191
q12 0 19.5 -7.5t7.5 -19.5q0 -13 -7.5 -20.5t-19.5 -7.5h-191q-12 0 -19.5 8t-7.5 20z" />
    <glyph glyph-name="emacron" unicode="&#x113;" horiz-adv-x="474" 
d="M387 168q16 0 25 -11t7 -29q-7 -63 -55 -100.5t-123 -37.5q-84 0 -135 48.5t-51 133.5v137q0 44 13.5 79t38 60t58.5 38t76 13q40 0 73.5 -13t57.5 -38t37 -60t13 -79v-38q0 -17 -9.5 -26.5t-26.5 -9.5h-259v-70q0 -49 30 -82t85 -33q54 0 81.5 27t32.5 64q4 27 31 27z
M127 292h226v24q0 53 -29 88t-83 35q-55 0 -84.5 -35t-29.5 -88v-24zM116 600q0 12 7.5 19.5t19.5 7.5h191q12 0 19.5 -7.5t7.5 -19.5q0 -13 -7.5 -20.5t-19.5 -7.5h-191q-12 0 -19.5 8t-7.5 20z" />
    <glyph glyph-name="Ebreve" unicode="&#x114;" horiz-adv-x="514" 
d="M159 302v-233h278q16 0 25 -10t9 -25t-9 -24.5t-25 -9.5h-317q-17 0 -27 10t-10 27v583q0 17 10 27t27 10h309q15 0 24.5 -9.5t9.5 -24.5q0 -16 -9.5 -25.5t-24.5 -9.5h-270v-218h246q15 0 24 -10t9 -25t-9 -24t-24 -9h-246zM352 817q11 0 17.5 -6.5t5.5 -17.5
q1 -40 -26 -69t-75 -29q-24 0 -43 8t-32 21.5t-19.5 31.5t-6.5 37q0 11 7 17.5t18 6.5q22 0 24 -22q-1 -23 11.5 -40t40.5 -17q27 0 40 16.5t13 40.5q0 22 25 22z" />
    <glyph glyph-name="ebreve" unicode="&#x115;" horiz-adv-x="474" 
d="M387 168q16 0 25 -11t7 -29q-7 -63 -55 -100.5t-123 -37.5q-84 0 -135 48.5t-51 133.5v137q0 44 13.5 79t38 60t58.5 38t76 13q40 0 73.5 -13t57.5 -38t37 -60t13 -79v-38q0 -17 -9.5 -26.5t-26.5 -9.5h-259v-70q0 -49 30 -82t85 -33q54 0 81.5 27t32.5 64q4 27 31 27z
M127 292h226v24q0 53 -29 88t-83 35q-55 0 -84.5 -35t-29.5 -88v-24zM316 671q11 0 17.5 -7t5.5 -18q1 -39 -26.5 -68.5t-74.5 -29.5q-24 0 -43 8t-32 21.5t-19.5 31.5t-6.5 37q0 11 7 18t18 7t17 -6.5t7 -16.5q-1 -23 11.5 -40t40.5 -17q27 0 40 16.5t13 40.5
q0 10 6.5 16.5t18.5 6.5z" />
    <glyph glyph-name="Edotaccent" unicode="&#x116;" horiz-adv-x="514" 
d="M226 760q0 21 14 35t34 14q21 0 35 -14t14 -35q0 -20 -14 -34t-35 -14q-20 0 -34 14t-14 34zM159 302v-233h278q16 0 25 -10t9 -25t-9 -24.5t-25 -9.5h-317q-17 0 -27 10t-10 27v583q0 17 10 27t27 10h309q15 0 24.5 -9.5t9.5 -24.5q0 -16 -9.5 -25.5t-24.5 -9.5h-270
v-218h246q15 0 24 -10t9 -25t-9 -24t-24 -9h-246z" />
    <glyph glyph-name="edotaccent" unicode="&#x117;" horiz-adv-x="474" 
d="M387 168q16 0 25 -11t7 -29q-7 -63 -55 -100.5t-123 -37.5q-84 0 -135 48.5t-51 133.5v137q0 44 13.5 79t38 60t58.5 38t76 13q40 0 73.5 -13t57.5 -38t37 -60t13 -79v-38q0 -17 -9.5 -26.5t-26.5 -9.5h-259v-70q0 -49 30 -82t85 -33q54 0 81.5 27t32.5 64q4 27 31 27z
M127 292h226v24q0 53 -29 88t-83 35q-55 0 -84.5 -35t-29.5 -88v-24zM190 607q0 20 14 34.5t34 14.5q21 0 35 -14.5t14 -34.5t-14 -34t-35 -14q-20 0 -34 14t-14 34z" />
    <glyph glyph-name="Eogonek" unicode="&#x118;" horiz-adv-x="514" 
d="M449 -163q0 -11 -6 -18t-17 -7h-37q-46 0 -68 21.5t-22 52.5q0 35 23.5 66t55.5 48h-258q-17 0 -27 10t-10 27v583q0 17 10 27t27 10h309q15 0 24.5 -9.5t9.5 -24.5q0 -16 -9.5 -25.5t-24.5 -9.5h-270v-218h246q15 0 24 -10t9 -25t-9 -24t-24 -9h-246v-233h278
q16 0 25 -10t9 -25t-9 -24.5t-25 -9.5h-4q-36 -21 -60 -47.5t-24 -55.5q0 -17 11.5 -27t37.5 -10h28q11 0 17 -6.5t6 -16.5z" />
    <glyph glyph-name="eogonek" unicode="&#x119;" horiz-adv-x="474" 
d="M388 164q16 0 25.5 -11.5t5.5 -28.5q-4 -27 -18.5 -51.5t-31.5 -41.5q-30 -28 -51.5 -56t-21.5 -63q0 -23 11.5 -37.5t37.5 -14.5h28q11 0 17 -6.5t6 -17.5q0 -24 -23 -24h-37q-46 0 -68 26t-22 62q0 27 11 51t28 44q-11 -3 -21.5 -4t-22.5 -1q-84 0 -135 48.5t-51 133.5
v137q0 44 13.5 79t38 60t58.5 38t76 13q40 0 73.5 -13t57.5 -38t37 -60t13 -79v-38q0 -17 -9.5 -26.5t-26.5 -9.5h-259v-70q0 -49 30 -82t85 -33q54 0 80.5 26t32.5 61q8 27 33 27zM127 292h226v24q0 53 -29 88t-83 35q-55 0 -84.5 -35t-29.5 -88v-24z" />
    <glyph glyph-name="Ecaron" unicode="&#x11a;" horiz-adv-x="514" 
d="M159 302v-233h278q16 0 25 -10t9 -25t-9 -24.5t-25 -9.5h-317q-17 0 -27 10t-10 27v583q0 17 10 27t27 10h309q15 0 24.5 -9.5t9.5 -24.5q0 -16 -9.5 -25.5t-24.5 -9.5h-270v-218h246q15 0 24 -10t9 -25t-9 -24t-24 -9h-246zM160 805q-6 6 -6 14t6.5 14t14.5 6q9 0 16 -7
l86 -77l86 78q6 6 14 6t14 -5.5t6 -13.5q0 -7 -5 -14l-85 -103q-5 -7 -12.5 -12t-18.5 -5t-19 5t-13 12z" />
    <glyph glyph-name="ecaron" unicode="&#x11b;" horiz-adv-x="474" 
d="M124 662q-6 7 -6 14q0 8 6.5 14t14.5 6q9 0 16 -7l86 -77l86 78q6 6 14 6t14 -5.5t6 -13.5q0 -7 -5 -14l-85 -102q-5 -8 -12.5 -13t-18.5 -5t-19 5t-13 13zM387 168q16 0 25 -11t7 -29q-7 -63 -55 -100.5t-123 -37.5q-84 0 -135 48.5t-51 133.5v137q0 44 13.5 79t38 60
t58.5 38t76 13q40 0 73.5 -13t57.5 -38t37 -60t13 -79v-38q0 -17 -9.5 -26.5t-26.5 -9.5h-259v-70q0 -49 30 -82t85 -33q54 0 81.5 27t32.5 64q4 27 31 27zM127 292h226v24q0 53 -29 88t-83 35q-55 0 -84.5 -35t-29.5 -88v-24z" />
    <glyph glyph-name="Gcircumflex" unicode="&#x11c;" horiz-adv-x="551" 
d="M393 730q6 -6 6 -14t-6 -14t-14 -6q-9 0 -16 7l-86 77l-86 -78q-6 -6 -15 -6q-8 0 -13.5 5.5t-5.5 13.5q0 7 5 14l85 103q5 7 12.5 12t18.5 5t19 -5t13 -12zM293 290q0 14 8.5 22.5t22.5 8.5h136q14 0 23 -9t9 -24v-99q0 -46 -15.5 -83t-43 -62.5t-66.5 -39.5t-86 -14
q-48 0 -87.5 14.5t-68 42t-44.5 66.5t-16 87v257q0 48 15.5 87t44 66.5t68 42t88.5 14.5q91 0 148 -46t62 -128q1 -15 -8.5 -26t-27.5 -11q-32 0 -35 29q-6 51 -40 82t-99 31q-67 0 -103.5 -39.5t-36.5 -99.5v-261q0 -60 36.5 -99.5t103.5 -39.5q68 0 104 36t36 92v72h-97
q-14 0 -22.5 8.5t-8.5 22.5z" />
    <glyph glyph-name="gcircumflex" unicode="&#x11d;" 
d="M357 583q6 -6 6 -14t-6 -14t-14 -6q-9 0 -16 7l-86 77l-86 -78q-6 -6 -15 -6q-8 0 -13.5 6t-5.5 14q0 6 5 13l85 103q5 7 12.5 12t18.5 5t19 -5t13 -12zM364 468q2 14 11 20t20 6q15 0 23 -9t8 -24v-488q0 -81 -50 -125.5t-132 -44.5q-72 0 -116.5 30t-56.5 80
q-5 17 3 32t28 15q24 0 32 -26q4 -13 11.5 -25.5t20.5 -22.5t32 -16t45 -6q54 0 82 28.5t28 76.5v97q-22 -28 -54 -43t-73 -15q-80 0 -124.5 49t-44.5 131v130q0 83 44.5 132t124.5 49q44 0 77.5 -17.5t55.5 -48.5zM238 73q54 0 84.5 34.5t30.5 85.5v120q0 51 -30.5 86
t-84.5 35q-53 0 -80.5 -33t-27.5 -80v-135q0 -48 27 -80.5t81 -32.5z" />
    <glyph glyph-name="Gbreve" unicode="&#x11e;" horiz-adv-x="551" 
d="M293 290q0 14 8.5 22.5t22.5 8.5h136q14 0 23 -9t9 -24v-99q0 -46 -15.5 -83t-43 -62.5t-66.5 -39.5t-86 -14q-48 0 -87.5 14.5t-68 42t-44.5 66.5t-16 87v257q0 48 15.5 87t44 66.5t68 42t88.5 14.5q91 0 148 -46t62 -128q1 -15 -8.5 -26t-27.5 -11q-32 0 -35 29
q-6 51 -40 82t-99 31q-67 0 -103.5 -39.5t-36.5 -99.5v-261q0 -60 36.5 -99.5t103.5 -39.5q68 0 104 36t36 92v72h-97q-14 0 -22.5 8.5t-8.5 22.5zM356 817q11 0 17.5 -6.5t5.5 -17.5q1 -40 -26 -69t-75 -29q-24 0 -43 8t-32 21.5t-19.5 31.5t-6.5 37q0 11 7 17.5t18 6.5
q22 0 24 -22q-1 -23 11.5 -40t40.5 -17q27 0 40 16.5t13 40.5q0 22 25 22z" />
    <glyph glyph-name="gbreve" unicode="&#x11f;" 
d="M364 468q2 14 11 20t20 6q15 0 23 -9t8 -24v-488q0 -81 -50 -125.5t-132 -44.5q-72 0 -116.5 30t-56.5 80q-5 17 3 32t28 15q24 0 32 -26q4 -13 11.5 -25.5t20.5 -22.5t32 -16t45 -6q54 0 82 28.5t28 76.5v97q-22 -28 -54 -43t-73 -15q-80 0 -124.5 49t-44.5 131v130
q0 83 44.5 132t124.5 49q44 0 77.5 -17.5t55.5 -48.5zM238 73q54 0 84.5 34.5t30.5 85.5v120q0 51 -30.5 86t-84.5 35q-53 0 -80.5 -33t-27.5 -80v-135q0 -48 27 -80.5t81 -32.5zM319 671q11 0 17.5 -7t5.5 -18q1 -39 -26.5 -68.5t-74.5 -29.5q-24 0 -43 8t-32 21.5
t-19.5 31.5t-6.5 37q0 11 7 18t18 7t17 -6.5t7 -16.5q-1 -23 11.5 -40t40.5 -17q27 0 40 16.5t13 40.5q0 10 6.5 16.5t18.5 6.5z" />
    <glyph glyph-name="Gdotaccent" unicode="&#x120;" horiz-adv-x="551" 
d="M230 760q0 21 14 35t34 14q21 0 35 -14t14 -35q0 -20 -14 -34t-35 -14q-20 0 -34 14t-14 34zM293 290q0 14 8.5 22.5t22.5 8.5h136q14 0 23 -9t9 -24v-99q0 -46 -15.5 -83t-43 -62.5t-66.5 -39.5t-86 -14q-48 0 -87.5 14.5t-68 42t-44.5 66.5t-16 87v257q0 48 15.5 87
t44 66.5t68 42t88.5 14.5q91 0 148 -46t62 -128q1 -15 -8.5 -26t-27.5 -11q-32 0 -35 29q-6 51 -40 82t-99 31q-67 0 -103.5 -39.5t-36.5 -99.5v-261q0 -60 36.5 -99.5t103.5 -39.5q68 0 104 36t36 92v72h-97q-14 0 -22.5 8.5t-8.5 22.5z" />
    <glyph glyph-name="gdotaccent" unicode="&#x121;" 
d="M364 468q2 14 11 20t20 6q15 0 23 -9t8 -24v-488q0 -81 -50 -125.5t-132 -44.5q-72 0 -116.5 30t-56.5 80q-5 17 3 32t28 15q24 0 32 -26q4 -13 11.5 -25.5t20.5 -22.5t32 -16t45 -6q54 0 82 28.5t28 76.5v97q-22 -28 -54 -43t-73 -15q-80 0 -124.5 49t-44.5 131v130
q0 83 44.5 132t124.5 49q44 0 77.5 -17.5t55.5 -48.5zM238 73q54 0 84.5 34.5t30.5 85.5v120q0 51 -30.5 86t-84.5 35q-53 0 -80.5 -33t-27.5 -80v-135q0 -48 27 -80.5t81 -32.5zM193 607q0 20 14 34.5t34 14.5q21 0 35 -14.5t14 -34.5t-14 -34t-35 -14q-20 0 -34 14t-14 34
z" />
    <glyph glyph-name="Gcommaaccent" unicode="&#x122;" horiz-adv-x="551" 
d="M276 -203q-5 -10 -11.5 -16.5t-17.5 -6.5q-12 0 -20 8t-8 19q0 4 3 15l23 103q5 17 14 27t26 10q14 0 26 -10t12 -27q0 -9 -3 -18zM293 290q0 14 8.5 22.5t22.5 8.5h136q14 0 23 -9t9 -24v-99q0 -46 -15.5 -83t-43 -62.5t-66.5 -39.5t-86 -14q-48 0 -87.5 14.5t-68 42
t-44.5 66.5t-16 87v257q0 48 15.5 87t44 66.5t68 42t88.5 14.5q91 0 148 -46t62 -128q1 -15 -8.5 -26t-27.5 -11q-32 0 -35 29q-6 51 -40 82t-99 31q-67 0 -103.5 -39.5t-36.5 -99.5v-261q0 -60 36.5 -99.5t103.5 -39.5q68 0 104 36t36 92v72h-97q-14 0 -22.5 8.5t-8.5 22.5
z" />
    <glyph glyph-name="gcommaaccent" unicode="&#x123;" 
d="M247 709q5 10 11.5 16.5t17.5 6.5q12 0 20 -8t8 -19q0 -5 -3 -15l-23 -103q-5 -17 -14 -27t-26 -10q-14 0 -26 10t-12 27q0 9 3 18zM364 468q2 14 11 20t20 6q15 0 23 -9t8 -24v-488q0 -81 -50 -125.5t-132 -44.5q-72 0 -116.5 30t-56.5 80q-5 17 3 32t28 15q24 0 32 -26
q4 -13 11.5 -25.5t20.5 -22.5t32 -16t45 -6q54 0 82 28.5t28 76.5v97q-22 -28 -54 -43t-73 -15q-80 0 -124.5 49t-44.5 131v130q0 83 44.5 132t124.5 49q44 0 77.5 -17.5t55.5 -48.5zM238 73q54 0 84.5 34.5t30.5 85.5v120q0 51 -30.5 86t-84.5 35q-53 0 -80.5 -33
t-27.5 -80v-135q0 -48 27 -80.5t81 -32.5z" />
    <glyph glyph-name="Hcircumflex" unicode="&#x124;" horiz-adv-x="588" 
d="M505 32q0 -17 -11 -27t-28 -10t-27.5 10t-10.5 27v269h-269v-269q0 -17 -10.5 -27t-27.5 -10t-27.5 10t-10.5 27v593q0 17 10.5 27t27.5 10t27.5 -10t10.5 -27v-255h269v255q0 17 10.5 27t27.5 10t28 -10t11 -27v-593zM408 730q6 -6 6 -14t-6 -14t-14 -6q-9 0 -16 7
l-86 77l-86 -78q-6 -6 -15 -6q-8 0 -13.5 5.5t-5.5 13.5q0 7 5 14l85 103q5 7 12.5 12t18.5 5t19 -5t13 -12z" />
    <glyph glyph-name="hcircumflex" unicode="&#x125;" horiz-adv-x="509" 
d="M223 731q6 -6 6 -14t-6 -14t-14 -6q-9 0 -16 7l-86 77l-86 -78q-6 -6 -15 -6q-8 0 -13.5 6t-5.5 14q0 6 5 13l85 103q5 7 12.5 12t18.5 5t19 -5t13 -12zM109 -5q-17 0 -27 10t-10 26v615q0 16 10 26t27 10q16 0 26 -10t10 -26v-206q22 28 54 43.5t74 15.5
q81 0 124.5 -48.5t43.5 -130.5v-289q0 -16 -10 -26t-27 -10t-26.5 10t-9.5 26v290q0 47 -27.5 80t-80.5 33q-54 0 -84.5 -35t-30.5 -86v-282q0 -16 -10 -26t-26 -10z" />
    <glyph glyph-name="Hbar" unicode="&#x126;" horiz-adv-x="589" 
d="M506 544h40q25 0 25 -26q0 -25 -25 -25h-40v-461q0 -17 -11 -27t-28 -10t-27.5 10t-10.5 27v269h-269v-269q0 -17 -10.5 -27t-27.5 -10t-27.5 10t-10.5 27v461h-40q-26 0 -26 25q0 26 26 26h40v81q0 17 10.5 27t27.5 10t27.5 -10t10.5 -27v-81h269v81q0 17 10.5 27
t27.5 10t28 -10t11 -27v-81zM429 370v123h-269v-123h269z" />
    <glyph glyph-name="hbar" unicode="&#x127;" horiz-adv-x="509" 
d="M109 -5q-17 0 -27 10t-10 26v520h-40q-11 0 -18 7.5t-7 18.5t7 18.5t18 7.5h40v43q0 16 10 26t27 10q16 0 26 -10t10 -26v-43h101q11 0 18 -7.5t7 -18.5t-7 -18.5t-18 -7.5h-101v-111q22 28 54 43.5t74 15.5q81 0 124.5 -48.5t43.5 -130.5v-289q0 -16 -10 -26t-27 -10
t-26.5 10t-9.5 26v290q0 47 -27.5 80t-80.5 33q-54 0 -84.5 -35t-30.5 -86v-282q0 -16 -10 -26t-26 -10z" />
    <glyph glyph-name="Itilde" unicode="&#x128;" horiz-adv-x="242" 
d="M159 32q0 -17 -10.5 -27t-27.5 -10t-27.5 10t-10.5 27v593q0 17 10.5 27t27.5 10t27.5 -10t10.5 -27v-593zM229 790q2 16 20 16q23 0 23 -31q0 -32 -17.5 -55.5t-53.5 -23.5q-17 0 -32.5 6t-31.5 15l-40 22q-9 5 -19.5 9.5t-20.5 4.5q-13 0 -20.5 -6t-12 -13.5t-6 -15.5
t-2.5 -12q-5 -15 -21 -15q-24 0 -24 29q0 35 22.5 59.5t60.5 24.5q27 0 58 -17l41 -22q11 -7 23 -12.5t22 -5.5q18 0 23.5 13.5t7.5 29.5z" />
    <glyph glyph-name="itilde" unicode="&#x129;" horiz-adv-x="217" 
d="M108 494q16 0 26.5 -10t10.5 -26v-427q0 -16 -10 -26t-26 -10q-17 0 -27 10t-10 26v427q0 16 10 26t26 10zM216 650q2 16 20 16q23 0 23 -30q0 -33 -17.5 -56.5t-53.5 -23.5q-17 0 -32.5 6.5t-31.5 14.5l-40 22q-9 5 -19.5 9.5t-20.5 4.5q-13 0 -20.5 -6t-12 -13.5
t-6 -15.5t-2.5 -12q-2 -6 -7.5 -10.5t-13.5 -4.5q-11 0 -17.5 8t-6.5 22q0 35 22.5 59.5t60.5 24.5q27 0 58 -17l41 -23q11 -7 23 -12t22 -5q18 0 23.5 13t7.5 29z" />
    <glyph glyph-name="Imacron" unicode="&#x12a;" horiz-adv-x="242" 
d="M159 32q0 -17 -10.5 -27t-27.5 -10t-27.5 10t-10.5 27v593q0 17 10.5 27t27.5 10t27.5 -10t10.5 -27v-593zM-1 760q0 12 7.5 19.5t19.5 7.5h191q12 0 19.5 -7.5t7.5 -19.5q0 -13 -7.5 -20.5t-19.5 -7.5h-191q-12 0 -19.5 8t-7.5 20z" />
    <glyph glyph-name="imacron" unicode="&#x12b;" horiz-adv-x="217" 
d="M108 494q16 0 26.5 -10t10.5 -26v-427q0 -16 -10 -26t-26 -10q-17 0 -27 10t-10 26v427q0 16 10 26t26 10zM-14 600q0 12 7.5 19.5t19.5 7.5h191q12 0 19.5 -7.5t7.5 -19.5q0 -13 -7.5 -20.5t-19.5 -7.5h-191q-12 0 -19.5 8t-7.5 20z" />
    <glyph glyph-name="Iogonek" unicode="&#x12e;" horiz-adv-x="242" 
d="M100 -188q-46 0 -68 21.5t-22 52.5q0 38 25.5 70t59.5 49q-12 10 -12 27v593q0 17 10.5 27t27.5 10t27.5 -10t10.5 -27v-593q0 -27 -23 -35q-33 -21 -54 -46t-21 -54q0 -17 11.5 -27t37.5 -10h26q11 0 17 -6.5t6 -16.5q0 -11 -6 -18t-17 -7h-36z" />
    <glyph glyph-name="iogonek" unicode="&#x12f;" horiz-adv-x="217" 
d="M61 627q0 20 14 34t34 14t33.5 -14t13.5 -34t-13.5 -33.5t-33.5 -13.5t-34 13.5t-14 33.5zM88 -188q-46 0 -68 21.5t-22 52.5q0 38 25.5 70t58.5 50q-10 10 -10 25v427q0 16 10 26t27 10q16 0 26 -10t10 -26v-427q0 -26 -23 -34q-33 -21 -53.5 -46.5t-20.5 -53.5
q0 -17 11.5 -27t37.5 -10h25q11 0 17 -6.5t6 -16.5q0 -11 -6 -18t-17 -7h-34z" />
    <glyph glyph-name="Idotaccent" unicode="&#x130;" horiz-adv-x="242" 
d="M159 32q0 -17 -10.5 -27t-27.5 -10t-27.5 10t-10.5 27v593q0 17 10.5 27t27.5 10t27.5 -10t10.5 -27v-593zM72 760q0 21 14 35t34 14q21 0 35 -14t14 -35q0 -20 -14 -34t-35 -14q-20 0 -34 14t-14 34z" />
    <glyph glyph-name="dotlessi" unicode="&#x131;" horiz-adv-x="217" 
d="M108 494q16 0 26.5 -10t10.5 -26v-427q0 -16 -10 -26t-26 -10q-17 0 -27 10t-10 26v427q0 16 10 26t26 10z" />
    <glyph glyph-name="IJ" unicode="&#x132;" horiz-adv-x="732" 
d="M159 32q0 -17 -10.5 -27t-27.5 -10t-27.5 10t-10.5 27v593q0 17 10.5 27t27.5 10t27.5 -10t10.5 -27v-593zM307 215q17 0 27 -10.5t11 -30.5q1 -50 31.5 -82.5t84.5 -32.5q57 0 86.5 34t29.5 85v447q0 17 10.5 27t27.5 10t27.5 -10t10.5 -27v-445q0 -44 -14 -79
t-39.5 -60t-60.5 -38t-78 -13q-42 0 -77 13t-60.5 37.5t-39.5 58.5t-14 76q0 18 10 29t27 11z" />
    <glyph glyph-name="ij" unicode="&#x133;" horiz-adv-x="440" 
d="M109 494q16 0 26 -10t10 -26v-427q0 -16 -10 -26t-26 -10q-17 0 -27 10t-10 26v427q0 16 10 26t27 10zM61 627q0 20 14 34t34 14t33.5 -14t13.5 -34t-13.5 -33.5t-33.5 -13.5t-34 13.5t-14 33.5zM284 627q0 20 13.5 34t33.5 14t34 -14t14 -34t-14 -33.5t-34 -13.5
t-33.5 13.5t-13.5 33.5zM194 -134q52 2 76.5 30.5t24.5 78.5v482q0 17 9.5 27t26.5 10t27 -10t10 -27v-477q0 -88 -47 -132.5t-125 -44.5q-37 0 -37 32q0 30 35 31z" />
    <glyph glyph-name="Jcircumflex" unicode="&#x134;" horiz-adv-x="487" 
d="M62 215q17 0 27 -10.5t11 -30.5q1 -50 31.5 -82.5t84.5 -32.5q57 0 86.5 34t29.5 85v447q0 17 10.5 27t27.5 10t27.5 -10t10.5 -27v-445q0 -44 -14 -79t-39.5 -60t-60.5 -38t-78 -13q-42 0 -77 13t-60.5 37.5t-39.5 58.5t-14 76q0 18 10 29t27 11zM485 730q6 -6 6 -14
t-6 -14t-14 -6q-9 0 -16 7l-86 77l-86 -78q-6 -6 -15 -6q-8 0 -13.5 5.5t-5.5 13.5q0 7 5 14l85 103q5 7 12.5 12t18.5 5t19 -5t13 -12z" />
    <glyph glyph-name="jcircumflex" unicode="&#x135;" horiz-adv-x="217" 
d="M224 583q6 -6 6 -14t-6 -14t-14 -6q-9 0 -16 7l-86 77l-86 -78q-6 -6 -15 -6q-8 0 -13.5 6t-5.5 14q0 6 5 13l85 103q5 7 12.5 12t18.5 5t19 -5t13 -12zM-29 -134q51 2 76 30.5t25 78.5v482q0 17 9.5 27t26.5 10t27 -10t10 -27v-477q0 -88 -47 -132.5t-125 -44.5
q-17 0 -27 7.5t-10 24.5q0 29 35 31z" />
    <glyph glyph-name="Kcommaaccent" unicode="&#x136;" horiz-adv-x="541" 
d="M269 -203q-5 -10 -11.5 -16.5t-17.5 -6.5q-12 0 -20 8t-8 19q0 4 3 15l23 103q5 17 14 27t26 10q14 0 26 -10t12 -27q0 -9 -3 -18zM323 389l178 -337q2 -5 3.5 -9t1.5 -10q0 -16 -11 -27t-28 -11q-13 0 -22 7.5t-14 16.5l-159 306l-113 -150v-143q0 -17 -10.5 -27
t-27.5 -10t-27.5 10t-10.5 27v593q0 17 10.5 27t27.5 10t27.5 -10t10.5 -27v-337l269 360q11 14 28 14q16 0 26 -10t10 -26q0 -8 -5 -18z" />
    <glyph glyph-name="kcommaaccent" unicode="&#x137;" horiz-adv-x="471" 
d="M233 -203q-5 -10 -11.5 -16.5t-17.5 -6.5q-12 0 -20 8t-8 19q0 4 3 15l23 103q5 17 14 27t26 10q14 0 26 -10t12 -27q0 -9 -3 -18zM408 -5q-22 0 -32 19l-147 231l-84 -84v-130q0 -16 -10 -26t-26 -10q-17 0 -27 10t-10 26v615q0 16 10 26t27 10t26.5 -10t9.5 -26v-394
l230 231q5 5 10 8t13 3q14 0 24 -10t10 -24q0 -5 -2 -11t-7 -10l-141 -142l156 -246q6 -9 6 -20q0 -14 -10.5 -25t-25.5 -11z" />
    <glyph glyph-name="kgreenlandic" unicode="&#x138;" horiz-adv-x="471" 
d="M408 -5q-22 0 -32 19l-147 231l-84 -84v-130q0 -16 -10 -26t-26 -10q-17 0 -27 10t-10 26v425q0 16 10 26t27 10t26.5 -10t9.5 -26v-204l230 231q5 5 10 8t13 3q14 0 24 -10t10 -24q0 -5 -2 -11t-7 -10l-141 -142l156 -246q6 -9 6 -20q0 -14 -10.5 -25t-25.5 -11z" />
    <glyph glyph-name="Lacute" unicode="&#x139;" horiz-adv-x="462" 
d="M182 826q12 12 25 12q14 0 23.5 -10t9.5 -24q0 -16 -12 -26l-96 -74q-7 -5 -15 -5q-11 0 -18 7t-7 17q0 6 2 10.5t7 9.5zM159 69h259q15 0 24 -10t9 -25t-9 -24.5t-24 -9.5h-298q-17 0 -27 10t-10 27v588q0 17 10.5 27t27.5 10t27.5 -10t10.5 -27v-556z" />
    <glyph glyph-name="lacute" unicode="&#x13a;" horiz-adv-x="226" 
d="M174 835q12 12 25 12q14 0 23.5 -10t9.5 -24q0 -16 -12 -26l-96 -74q-7 -5 -15 -5q-11 0 -18 7t-7 17q0 6 2 10.5t7 9.5zM113 682q17 0 27 -10t10 -26v-615q0 -16 -10 -26t-27 -10t-27 10t-10 26v615q0 16 10 26t27 10z" />
    <glyph glyph-name="Lcommaaccent" unicode="&#x13b;" horiz-adv-x="462" 
d="M246 -203q-5 -10 -11.5 -16.5t-17.5 -6.5q-12 0 -20 8t-8 19q0 4 3 15l23 103q5 17 14 27t26 10q14 0 26 -10t12 -27q0 -9 -3 -18zM159 69h259q15 0 24 -10t9 -25t-9 -24.5t-24 -9.5h-298q-17 0 -27 10t-10 27v588q0 17 10.5 27t27.5 10t27.5 -10t10.5 -27v-556z" />
    <glyph glyph-name="lcommaaccent" unicode="&#x13c;" horiz-adv-x="226" 
d="M98 -203q-5 -10 -11.5 -16.5t-17.5 -6.5q-12 0 -20 8t-8 19q0 4 3 15l23 103q5 17 14 27t26 10q14 0 26 -10t12 -27q0 -9 -3 -18zM113 682q17 0 27 -10t10 -26v-615q0 -16 -10 -26t-27 -10t-27 10t-10 26v615q0 16 10 26t27 10z" />
    <glyph glyph-name="Lcaron" unicode="&#x13d;" horiz-adv-x="462" 
d="M273 538q-4 -10 -10 -16t-17 -6t-18.5 7.5t-7.5 18.5q0 1 0.5 4t1.5 8l9 72q2 16 11.5 26t26.5 10q14 0 25.5 -9t11.5 -25q0 -8 -3 -18zM159 69h259q15 0 24 -10t9 -25t-9 -24.5t-24 -9.5h-298q-17 0 -27 10t-10 27v588q0 17 10.5 27t27.5 10t27.5 -10t10.5 -27v-556z
" />
    <glyph glyph-name="lcaron" unicode="&#x13e;" horiz-adv-x="226" 
d="M245 558q-4 -10 -10 -16t-17 -6t-18.5 7.5t-7.5 18.5q0 1 0.5 4t1.5 8l9 72q2 16 11.5 26t26.5 10q14 0 25.5 -9t11.5 -25q0 -8 -3 -18zM113 682q17 0 27 -10t10 -26v-615q0 -16 -10 -26t-27 -10t-27 10t-10 26v615q0 16 10 26t27 10z" />
    <glyph glyph-name="Ldot" unicode="&#x13f;" horiz-adv-x="462" 
d="M159 69h259q15 0 24 -10t9 -25t-9 -24.5t-24 -9.5h-298q-17 0 -27 10t-10 27v588q0 17 10.5 27t27.5 10t27.5 -10t10.5 -27v-556zM300 348q0 22 14.5 36.5t35.5 14.5t36 -14.5t15 -36.5q0 -21 -15 -35.5t-36 -14.5t-35.5 14.5t-14.5 35.5z" />
    <glyph glyph-name="ldot" unicode="&#x140;" horiz-adv-x="289" 
d="M113 682q17 0 27 -10t10 -26v-615q0 -16 -10 -26t-27 -10t-27 10t-10 26v615q0 16 10 26t27 10zM208 356q0 22 14.5 36.5t35.5 14.5t36 -14.5t15 -36.5q0 -21 -15 -35.5t-36 -14.5t-35.5 14.5t-14.5 35.5z" />
    <glyph glyph-name="Lslash" unicode="&#x141;" horiz-adv-x="465" 
d="M163 394l100 51q8 5 17 5q13 0 21 -8.5t8 -20.5q0 -19 -20 -29l-126 -65v-258h259q15 0 24 -10t9 -25t-9 -24.5t-24 -9.5h-298q-17 0 -27 10t-10 27v251l-32 -16q-10 -4 -17 -4q-13 0 -21.5 8.5t-8.5 20.5q0 18 20 28l59 30v270q0 17 10.5 27t27.5 10t27.5 -10t10.5 -27
v-231z" />
    <glyph glyph-name="lslash" unicode="&#x142;" horiz-adv-x="248" 
d="M125 682q17 0 27 -10t10 -26v-215l28 15q8 5 17 5q13 0 21 -8.5t8 -21.5q0 -8 -4.5 -15.5t-15.5 -12.5l-54 -29v-333q0 -16 -10 -26t-27 -10t-27 10t-10 26v295l-27 -14q-8 -5 -17 -5q-13 0 -21 8.5t-8 21.5q0 8 4 15.5t15 12.5l54 28v253q0 16 10 26t27 10z" />
    <glyph glyph-name="Nacute" unicode="&#x143;" horiz-adv-x="585" 
d="M354 826q12 12 25 12q14 0 23.5 -10t9.5 -24q0 -16 -12 -26l-96 -74q-7 -5 -15 -5q-11 0 -18 7t-7 17q0 6 2 10.5t7 9.5zM502 32q0 -17 -10 -27t-27 -10q-15 0 -23.5 7.5t-14.5 17.5l-273 488v-479q0 -15 -10.5 -24.5t-25.5 -9.5t-25 9.5t-10 24.5v596q0 17 11 27t28 10
q16 0 24.5 -6t16.5 -22l268 -477v471q0 15 10 24.5t25 9.5t25.5 -9.5t10.5 -24.5v-596z" />
    <glyph glyph-name="nacute" unicode="&#x144;" horiz-adv-x="509" 
d="M318 680q11 11 25 11t23.5 -9.5t9.5 -24.5q0 -14 -12 -26l-96 -74q-7 -5 -15 -5q-11 0 -18 7t-7 17t9 21zM139 431q22 32 56 50t78 18q81 0 124.5 -48.5t43.5 -130.5v-289q0 -16 -10 -26t-27 -10q-16 0 -26 10t-10 26v290q0 47 -27.5 80t-80.5 33q-54 0 -84.5 -35
t-30.5 -86v-282q0 -16 -10 -26t-26 -10q-17 0 -27 10t-10 26v430q0 15 8 24t23 9q11 0 19.5 -6t10.5 -20z" />
    <glyph glyph-name="Ncommaaccent" unicode="&#x145;" horiz-adv-x="585" 
d="M286 -203q-5 -10 -11.5 -16.5t-17.5 -6.5q-12 0 -20 8t-8 19q0 4 3 15l23 103q5 17 14 27t26 10q14 0 26 -10t12 -27q0 -9 -3 -18zM502 32q0 -17 -10 -27t-27 -10q-15 0 -23.5 7.5t-14.5 17.5l-273 488v-479q0 -15 -10.5 -24.5t-25.5 -9.5t-25 9.5t-10 24.5v596
q0 17 11 27t28 10q16 0 24.5 -6t16.5 -22l268 -477v471q0 15 10 24.5t25 9.5t25.5 -9.5t10.5 -24.5v-596z" />
    <glyph glyph-name="ncommaaccent" unicode="&#x146;" horiz-adv-x="509" 
d="M246 -203q-5 -10 -11.5 -16.5t-17.5 -6.5q-12 0 -20 8t-8 19q0 4 3 15l23 103q5 17 14 27t26 10q14 0 26 -10t12 -27q0 -9 -3 -18zM139 431q22 32 56 50t78 18q81 0 124.5 -48.5t43.5 -130.5v-289q0 -16 -10 -26t-27 -10q-16 0 -26 10t-10 26v290q0 47 -27.5 80t-80.5 33
q-54 0 -84.5 -35t-30.5 -86v-282q0 -16 -10 -26t-26 -10q-17 0 -27 10t-10 26v430q0 15 8 24t23 9q11 0 19.5 -6t10.5 -20z" />
    <glyph glyph-name="Ncaron" unicode="&#x147;" horiz-adv-x="585" 
d="M502 32q0 -17 -10 -27t-27 -10q-15 0 -23.5 7.5t-14.5 17.5l-273 488v-479q0 -15 -10.5 -24.5t-25.5 -9.5t-25 9.5t-10 24.5v596q0 17 11 27t28 10q16 0 24.5 -6t16.5 -22l268 -477v471q0 15 10 24.5t25 9.5t25.5 -9.5t10.5 -24.5v-596zM178 805q-6 6 -6 14t6.5 14
t14.5 6q9 0 16 -7l86 -77l86 78q6 6 14 6t14 -5.5t6 -13.5q0 -7 -5 -14l-85 -103q-5 -7 -12.5 -12t-18.5 -5t-19 5t-13 12z" />
    <glyph glyph-name="ncaron" unicode="&#x148;" horiz-adv-x="509" 
d="M141 662q-6 7 -6 14q0 8 6.5 14t14.5 6q9 0 16 -7l86 -77l86 78q6 6 14 6t14 -5.5t6 -13.5q0 -7 -5 -14l-85 -102q-5 -8 -12.5 -13t-18.5 -5t-19 5t-13 13zM139 431q22 32 56 50t78 18q81 0 124.5 -48.5t43.5 -130.5v-289q0 -16 -10 -26t-27 -10q-16 0 -26 10t-10 26v290
q0 47 -27.5 80t-80.5 33q-54 0 -84.5 -35t-30.5 -86v-282q0 -16 -10 -26t-26 -10q-17 0 -27 10t-10 26v430q0 15 8 24t23 9q11 0 19.5 -6t10.5 -20z" />
    <glyph glyph-name="napostrophe" unicode="&#x149;" horiz-adv-x="521" 
d="M65 518q-5 -10 -11.5 -16.5t-17.5 -6.5q-12 0 -20 8t-8 19q0 4 3 15l23 103q5 17 14 27t26 10q14 0 26 -10t12 -27q0 -9 -3 -18zM151 431q22 32 56 50t78 18q81 0 124.5 -48.5t43.5 -130.5v-289q0 -16 -10 -26t-27 -10q-16 0 -26 10t-10 26v290q0 47 -27.5 80t-80.5 33
q-54 0 -84.5 -35t-30.5 -86v-282q0 -16 -10 -26t-26 -10q-17 0 -27 10t-10 26v430q0 15 8 24t23 9q11 0 19.5 -6t10.5 -20z" />
    <glyph glyph-name="Omacron" unicode="&#x14c;" horiz-adv-x="562" 
d="M141 198q0 -60 36.5 -99.5t103.5 -39.5t103 39.5t36 99.5v261q0 60 -36 99.5t-103 39.5t-103.5 -39.5t-36.5 -99.5v-261zM497 200q0 -48 -16 -87t-44.5 -66.5t-68 -42t-87.5 -14.5t-88 14.5t-68.5 42t-44 66.5t-15.5 87v257q0 48 15 87t43.5 66.5t68 42t89.5 14.5
q48 0 87.5 -14.5t68 -42t44.5 -66.5t16 -87v-257zM159 760q0 12 7.5 19.5t19.5 7.5h191q12 0 19.5 -7.5t7.5 -19.5q0 -13 -7.5 -20.5t-19.5 -7.5h-191q-12 0 -19.5 8t-7.5 20z" />
    <glyph glyph-name="omacron" unicode="&#x14d;" horiz-adv-x="483" 
d="M119 600q0 12 7.5 19.5t19.5 7.5h191q12 0 19.5 -7.5t7.5 -19.5q0 -13 -7.5 -20.5t-19.5 -7.5h-191q-12 0 -19.5 8t-7.5 20zM128 174q0 -52 29.5 -86.5t83.5 -34.5t83.5 34.5t29.5 86.5v140q0 52 -29.5 86.5t-83.5 34.5t-83.5 -34.5t-29.5 -86.5v-140zM428 180
q0 -44 -13.5 -79t-38.5 -60t-59 -38t-76 -13t-76 13t-58.5 38t-38 60t-13.5 79v129q0 44 13.5 79t38 60t58.5 38t76 13t76 -13t59 -38t38.5 -60t13.5 -79v-129z" />
    <glyph glyph-name="Obreve" unicode="&#x14e;" horiz-adv-x="562" 
d="M141 198q0 -60 36.5 -99.5t103.5 -39.5t103 39.5t36 99.5v261q0 60 -36 99.5t-103 39.5t-103.5 -39.5t-36.5 -99.5v-261zM497 200q0 -48 -16 -87t-44.5 -66.5t-68 -42t-87.5 -14.5t-88 14.5t-68.5 42t-44 66.5t-15.5 87v257q0 48 15 87t43.5 66.5t68 42t89.5 14.5
q48 0 87.5 -14.5t68 -42t44.5 -66.5t16 -87v-257zM358 817q11 0 17.5 -6.5t5.5 -17.5q1 -40 -26 -69t-75 -29q-24 0 -43 8t-32 21.5t-19.5 31.5t-6.5 37q0 11 7 17.5t18 6.5q22 0 24 -22q-1 -23 11.5 -40t40.5 -17q27 0 40 16.5t13 40.5q0 22 25 22z" />
    <glyph glyph-name="obreve" unicode="&#x14f;" horiz-adv-x="483" 
d="M128 174q0 -52 29.5 -86.5t83.5 -34.5t83.5 34.5t29.5 86.5v140q0 52 -29.5 86.5t-83.5 34.5t-83.5 -34.5t-29.5 -86.5v-140zM428 180q0 -44 -13.5 -79t-38.5 -60t-59 -38t-76 -13t-76 13t-58.5 38t-38 60t-13.5 79v129q0 44 13.5 79t38 60t58.5 38t76 13t76 -13t59 -38
t38.5 -60t13.5 -79v-129zM319 671q11 0 17.5 -7t5.5 -18q1 -39 -26.5 -68.5t-74.5 -29.5q-24 0 -43 8t-32 21.5t-19.5 31.5t-6.5 37q0 11 7 18t18 7t17 -6.5t7 -16.5q-1 -23 11.5 -40t40.5 -17q27 0 40 16.5t13 40.5q0 10 6.5 16.5t18.5 6.5z" />
    <glyph glyph-name="Ohungarumlaut" unicode="&#x150;" horiz-adv-x="562" 
d="M219 704q-7 -7 -14 -7q-8 0 -14 6t-6 13t7 17l85 88q8 11 21 11q12 0 21 -8.5t9 -20.5t-12 -22zM343 701q-8 -6 -15 -6q-9 0 -14.5 5.5t-5.5 13.5q0 5 0.5 8t5.5 8l79 93q9 11 22 11q12 0 20.5 -8.5t8.5 -20.5q0 -6 -3 -11.5t-7 -9.5zM141 198q0 -60 36.5 -99.5
t103.5 -39.5t103 39.5t36 99.5v261q0 60 -36 99.5t-103 39.5t-103.5 -39.5t-36.5 -99.5v-261zM497 200q0 -48 -16 -87t-44.5 -66.5t-68 -42t-87.5 -14.5t-88 14.5t-68.5 42t-44 66.5t-15.5 87v257q0 48 15 87t43.5 66.5t68 42t89.5 14.5q48 0 87.5 -14.5t68 -42t44.5 -66.5
t16 -87v-257z" />
    <glyph glyph-name="ohungarumlaut" unicode="&#x151;" horiz-adv-x="483" 
d="M181 560q-8 -6 -14 -6q-8 0 -14 6t-6 13t7 17l85 88q9 11 21 11t21 -9t9 -20q0 -13 -12 -22zM305 558q-4 -3 -7 -5t-8 -2q-9 0 -14.5 6t-5.5 13q0 5 0.5 8.5t5.5 8.5l79 92q9 12 22 12q12 0 20.5 -8.5t8.5 -20.5q0 -7 -3 -12.5t-7 -8.5zM128 174q0 -52 29.5 -86.5
t83.5 -34.5t83.5 34.5t29.5 86.5v140q0 52 -29.5 86.5t-83.5 34.5t-83.5 -34.5t-29.5 -86.5v-140zM428 180q0 -44 -13.5 -79t-38.5 -60t-59 -38t-76 -13t-76 13t-58.5 38t-38 60t-13.5 79v129q0 44 13.5 79t38 60t58.5 38t76 13t76 -13t59 -38t38.5 -60t13.5 -79v-129z" />
    <glyph glyph-name="OE" unicode="&#x152;" horiz-adv-x="854" 
d="M497 370h248q16 0 25 -10t9 -25t-9 -24t-25 -9h-248v-233h281q15 0 24 -10t9 -25t-9 -24.5t-24 -9.5h-322q-14 0 -23.5 7.5t-9.5 19.5v20q-26 -27 -63.5 -42t-82.5 -15q-47 0 -86 14.5t-67 42t-43.5 66.5t-15.5 87v257q0 48 15 87t42.5 66.5t66.5 42t88 14.5
q45 0 82.5 -15t63.5 -43v20q0 13 9.5 20.5t23.5 7.5h313q15 0 24.5 -9.5t9.5 -24.5q0 -16 -9.5 -25.5t-24.5 -9.5h-272v-218zM141 198q0 -60 36.5 -99.5t103.5 -39.5q66 0 102.5 38t36.5 96v266q0 60 -36 99.5t-103 39.5t-103.5 -39.5t-36.5 -99.5v-261z" />
    <glyph glyph-name="oe" unicode="&#x153;" horiz-adv-x="774" 
d="M688 168q16 0 24.5 -11.5t6.5 -28.5q-8 -63 -55.5 -100.5t-122.5 -37.5q-52 0 -91.5 22.5t-59.5 64.5q-20 -42 -59 -64.5t-90 -22.5q-42 0 -76 13t-58.5 38t-38 60t-13.5 79v129q0 44 13.5 79t38 60t58.5 38t76 13q52 0 90.5 -23.5t59.5 -66.5q20 43 59 66.5t90 23.5
q40 0 73.5 -13t57.5 -38t37.5 -60t13.5 -79v-38q0 -17 -10 -26.5t-26 -9.5h-259v-70q0 -49 30 -82t85 -33q54 0 80.5 27.5t33.5 63.5q2 12 10 19.5t22 7.5zM128 174q0 -52 29.5 -86.5t83.5 -34.5t83.5 34.5t29.5 86.5v140q0 52 -29.5 86.5t-83.5 34.5t-83.5 -34.5
t-29.5 -86.5v-140zM427 292h226v24q0 53 -29.5 88t-83.5 35t-83.5 -35t-29.5 -88v-24z" />
    <glyph glyph-name="Racute" unicode="&#x154;" horiz-adv-x="557" 
d="M159 590v-265h120q69 0 109 37t40 98q0 60 -40 95t-109 35h-120zM487 48q4 -8 4 -15q0 -16 -11.5 -27t-27.5 -11q-11 0 -20.5 6.5t-14.5 17.5l-109 241q-7 0 -13.5 -0.5t-13.5 -0.5h-122v-227q0 -17 -10.5 -27t-27.5 -10t-27.5 10t-10.5 27v588q0 17 10 27t27 10h165
q48 0 88.5 -14t70 -39.5t46 -61.5t16.5 -81q0 -66 -33 -113.5t-89 -69.5zM301 826q12 12 25 12q14 0 23.5 -10t9.5 -24q0 -16 -12 -26l-96 -74q-7 -5 -15 -5q-11 0 -18 7t-7 17q0 6 2 10.5t7 9.5z" />
    <glyph glyph-name="racute" unicode="&#x155;" horiz-adv-x="315" 
d="M228 680q11 11 25 11t23.5 -9.5t9.5 -24.5q0 -14 -12 -26l-96 -74q-7 -5 -15 -5q-11 0 -18 7t-7 17t9 21zM140 427q20 33 52 51.5t73 18.5q15 0 24.5 -9.5t9.5 -24.5t-8.5 -24t-22.5 -9q-57 0 -90 -34t-33 -88v-277q0 -16 -9.5 -26t-26.5 -10t-27 10t-10 26v430
q0 15 8 24t23 9q11 0 19.5 -5.5t10.5 -20.5z" />
    <glyph glyph-name="Rcommaaccent" unicode="&#x156;" horiz-adv-x="557" 
d="M270 -203q-5 -10 -11.5 -16.5t-17.5 -6.5q-12 0 -20 8t-8 19q0 4 3 15l23 103q5 17 14 27t26 10q14 0 26 -10t12 -27q0 -9 -3 -18zM159 590v-265h120q69 0 109 37t40 98q0 60 -40 95t-109 35h-120zM487 48q4 -8 4 -15q0 -16 -11.5 -27t-27.5 -11q-11 0 -20.5 6.5
t-14.5 17.5l-109 241q-7 0 -13.5 -0.5t-13.5 -0.5h-122v-227q0 -17 -10.5 -27t-27.5 -10t-27.5 10t-10.5 27v588q0 17 10 27t27 10h165q48 0 88.5 -14t70 -39.5t46 -61.5t16.5 -81q0 -66 -33 -113.5t-89 -69.5z" />
    <glyph glyph-name="rcommaaccent" unicode="&#x157;" horiz-adv-x="315" 
d="M97 -203q-5 -10 -11.5 -16.5t-17.5 -6.5q-12 0 -20 8t-8 19q0 4 3 15l23 103q5 17 14 27t26 10q14 0 26 -10t12 -27q0 -9 -3 -18zM140 427q20 33 52 51.5t73 18.5q15 0 24.5 -9.5t9.5 -24.5t-8.5 -24t-22.5 -9q-57 0 -90 -34t-33 -88v-277q0 -16 -9.5 -26t-26.5 -10
t-27 10t-10 26v430q0 15 8 24t23 9q11 0 19.5 -5.5t10.5 -20.5z" />
    <glyph glyph-name="Rcaron" unicode="&#x158;" horiz-adv-x="557" 
d="M159 590v-265h120q69 0 109 37t40 98q0 60 -40 95t-109 35h-120zM487 48q4 -8 4 -15q0 -16 -11.5 -27t-27.5 -11q-11 0 -20.5 6.5t-14.5 17.5l-109 241q-7 0 -13.5 -0.5t-13.5 -0.5h-122v-227q0 -17 -10.5 -27t-27.5 -10t-27.5 10t-10.5 27v588q0 17 10 27t27 10h165
q48 0 88.5 -14t70 -39.5t46 -61.5t16.5 -81q0 -66 -33 -113.5t-89 -69.5zM137 805q-6 6 -6 14t6.5 14t14.5 6q9 0 16 -7l86 -77l86 78q6 6 14 6t14 -5.5t6 -13.5q0 -7 -5 -14l-85 -103q-5 -7 -12.5 -12t-18.5 -5t-19 5t-13 12z" />
    <glyph glyph-name="rcaron" unicode="&#x159;" horiz-adv-x="315" 
d="M47 662q-6 7 -6 14q0 8 6.5 14t14.5 6q9 0 16 -7l86 -77l86 78q6 6 14 6t14 -5.5t6 -13.5q0 -7 -5 -14l-85 -102q-5 -8 -12.5 -13t-18.5 -5t-19 5t-13 13zM140 427q20 33 52 51.5t73 18.5q15 0 24.5 -9.5t9.5 -24.5t-8.5 -24t-22.5 -9q-57 0 -90 -34t-33 -88v-277
q0 -16 -9.5 -26t-26.5 -10t-27 10t-10 26v430q0 15 8 24t23 9q11 0 19.5 -5.5t10.5 -20.5z" />
    <glyph glyph-name="Sacute" unicode="&#x15a;" horiz-adv-x="525" 
d="M426 460q-14 0 -23.5 8t-11.5 22q-7 51 -39 82t-91 31q-60 0 -93.5 -27.5t-33.5 -71.5q0 -35 21.5 -59t53.5 -37l108 -44q28 -11 56.5 -25t51 -35t37 -51t14.5 -72q0 -44 -15.5 -79t-44 -60t-67.5 -38.5t-87 -13.5q-91 0 -147.5 43t-65.5 122q-2 17 7 30t29 13
q32 0 35 -31q5 -50 40 -81t101 -31q67 0 103.5 33t36.5 84q0 27 -9 46t-24 33t-35.5 24.5t-43.5 19.5l-93 38q-28 11 -52.5 25.5t-43 34.5t-29 46t-10.5 59q0 37 14.5 68t40.5 53.5t63 35t82 12.5q85 0 139.5 -43.5t61.5 -120.5q2 -17 -8 -30t-28 -13zM321 826q12 12 25 12
q14 0 23.5 -10t9.5 -24q0 -16 -12 -26l-96 -74q-7 -5 -15 -5q-11 0 -18 7t-7 17q0 6 2 10.5t7 9.5z" />
    <glyph glyph-name="sacute" unicode="&#x15b;" horiz-adv-x="448" 
d="M281 680q11 11 25 11t23.5 -9.5t9.5 -24.5q0 -14 -12 -26l-96 -74q-7 -5 -15 -5q-11 0 -18 7t-7 17t9 21zM170 234q-21 7 -41.5 17t-36.5 25t-25.5 36t-9.5 50q0 28 12 52.5t34 43.5t52.5 30t67.5 11q71 0 115.5 -31t54.5 -82q3 -16 -4.5 -29.5t-25.5 -13.5q-25 0 -33 27
q-9 29 -33.5 50t-72.5 21q-18 0 -35.5 -4.5t-31.5 -13.5t-22.5 -22.5t-8.5 -32.5q0 -25 14 -40t45 -25l83 -26q27 -9 51 -19.5t42 -26.5t28.5 -38t10.5 -54q0 -33 -12.5 -60.5t-35 -47t-55 -30.5t-72.5 -11q-75 0 -124.5 34t-56.5 94q-2 14 6.5 26.5t25.5 12.5q26 0 31 -26
q7 -33 34 -57.5t83 -24.5q52 0 78.5 23t26.5 59q0 30 -15 46.5t-50 27.5z" />
    <glyph glyph-name="Scircumflex" unicode="&#x15c;" horiz-adv-x="525" 
d="M426 460q-14 0 -23.5 8t-11.5 22q-7 51 -39 82t-91 31q-60 0 -93.5 -27.5t-33.5 -71.5q0 -35 21.5 -59t53.5 -37l108 -44q28 -11 56.5 -25t51 -35t37 -51t14.5 -72q0 -44 -15.5 -79t-44 -60t-67.5 -38.5t-87 -13.5q-91 0 -147.5 43t-65.5 122q-2 17 7 30t29 13
q32 0 35 -31q5 -50 40 -81t101 -31q67 0 103.5 33t36.5 84q0 27 -9 46t-24 33t-35.5 24.5t-43.5 19.5l-93 38q-28 11 -52.5 25.5t-43 34.5t-29 46t-10.5 59q0 37 14.5 68t40.5 53.5t63 35t82 12.5q85 0 139.5 -43.5t61.5 -120.5q2 -17 -8 -30t-28 -13zM376 730q6 -6 6 -14
t-6 -14t-14 -6q-9 0 -16 7l-86 77l-86 -78q-6 -6 -15 -6q-8 0 -13.5 5.5t-5.5 13.5q0 7 5 14l85 103q5 7 12.5 12t18.5 5t19 -5t13 -12z" />
    <glyph glyph-name="scircumflex" unicode="&#x15d;" horiz-adv-x="448" 
d="M336 583q6 -6 6 -14t-6 -14t-14 -6q-9 0 -16 7l-86 77l-86 -78q-6 -6 -15 -6q-8 0 -13.5 6t-5.5 14q0 6 5 13l85 103q5 7 12.5 12t18.5 5t19 -5t13 -12zM170 234q-21 7 -41.5 17t-36.5 25t-25.5 36t-9.5 50q0 28 12 52.5t34 43.5t52.5 30t67.5 11q71 0 115.5 -31
t54.5 -82q3 -16 -4.5 -29.5t-25.5 -13.5q-25 0 -33 27q-9 29 -33.5 50t-72.5 21q-18 0 -35.5 -4.5t-31.5 -13.5t-22.5 -22.5t-8.5 -32.5q0 -25 14 -40t45 -25l83 -26q27 -9 51 -19.5t42 -26.5t28.5 -38t10.5 -54q0 -33 -12.5 -60.5t-35 -47t-55 -30.5t-72.5 -11
q-75 0 -124.5 34t-56.5 94q-2 14 6.5 26.5t25.5 12.5q26 0 31 -26q7 -33 34 -57.5t83 -24.5q52 0 78.5 23t26.5 59q0 30 -15 46.5t-50 27.5z" />
    <glyph glyph-name="Scedilla" unicode="&#x15e;" horiz-adv-x="526" 
d="M275 -45q39 0 60 -19t21 -51q0 -34 -22 -53t-59 -19h-80q-10 0 -16 6.5t-6 15.5q0 22 22 22h79q12 0 20.5 6.5t8.5 20.5t-8.5 20.5t-20.5 6.5h-45q-12 0 -18 7t-2 19l16 55q-75 8 -121.5 50t-54.5 113q-2 17 7 30t29 13q32 0 35 -31q5 -50 40 -81t101 -31q67 0 103.5 33
t36.5 84q0 27 -9 46t-24 33t-35.5 24.5t-43.5 19.5l-93 38q-28 11 -52.5 25.5t-43 34.5t-29 46t-10.5 59q0 37 14.5 68t40.5 53.5t63 35t82 12.5q85 0 139.5 -43.5t61.5 -120.5q2 -17 -8 -30t-28 -13q-14 0 -23.5 8t-11.5 22q-7 51 -39 82t-91 31q-60 0 -93.5 -27.5
t-33.5 -71.5q0 -35 21.5 -59t53.5 -37l108 -44q28 -11 56.5 -25t51 -35t37 -51t14.5 -72t-14.5 -76.5t-41.5 -59.5t-64.5 -39t-82.5 -16l-10 -35h12z" />
    <glyph glyph-name="scedilla" unicode="&#x15f;" horiz-adv-x="449" 
d="M239 -45q39 0 60 -19t21 -51q0 -34 -22 -53t-59 -19h-80q-10 0 -16 6.5t-6 15.5q0 22 22 22h79q12 0 20.5 6.5t8.5 20.5t-8.5 20.5t-20.5 6.5h-45q-12 0 -18 7t-2 19l16 55q-61 8 -100 40.5t-45 85.5q-2 14 6.5 26.5t25.5 12.5q26 0 31 -26q7 -33 34 -57.5t83 -24.5
q52 0 78.5 23t26.5 59q0 30 -15 46.5t-50 27.5l-94 29q-21 7 -41.5 17t-36.5 25t-25.5 36t-9.5 50q0 28 12 52.5t34 43.5t52.5 30t67.5 11q71 0 115.5 -31t54.5 -82q3 -16 -4.5 -29.5t-25.5 -13.5q-25 0 -33 27q-9 29 -33.5 50t-72.5 21q-18 0 -35.5 -4.5t-31.5 -13.5
t-22.5 -22.5t-8.5 -32.5q0 -25 14 -40t45 -25l83 -26q27 -9 51 -19.5t42 -26.5t28.5 -38t10.5 -54q0 -64 -44 -104.5t-119 -43.5l-10 -36h12z" />
    <glyph glyph-name="Scaron" unicode="&#x160;" horiz-adv-x="525" 
d="M426 460q-14 0 -23.5 8t-11.5 22q-7 51 -39 82t-91 31q-60 0 -93.5 -27.5t-33.5 -71.5q0 -35 21.5 -59t53.5 -37l108 -44q28 -11 56.5 -25t51 -35t37 -51t14.5 -72q0 -44 -15.5 -79t-44 -60t-67.5 -38.5t-87 -13.5q-91 0 -147.5 43t-65.5 122q-2 17 7 30t29 13
q32 0 35 -31q5 -50 40 -81t101 -31q67 0 103.5 33t36.5 84q0 27 -9 46t-24 33t-35.5 24.5t-43.5 19.5l-93 38q-28 11 -52.5 25.5t-43 34.5t-29 46t-10.5 59q0 37 14.5 68t40.5 53.5t63 35t82 12.5q85 0 139.5 -43.5t61.5 -120.5q2 -17 -8 -30t-28 -13zM146 805q-6 6 -6 14
t6.5 14t14.5 6q9 0 16 -7l86 -77l86 78q6 6 14 6t14 -5.5t6 -13.5q0 -7 -5 -14l-85 -103q-5 -7 -12.5 -12t-18.5 -5t-19 5t-13 12z" />
    <glyph glyph-name="scaron" unicode="&#x161;" horiz-adv-x="448" 
d="M106 662q-6 7 -6 14q0 8 6.5 14t14.5 6q9 0 16 -7l86 -77l86 78q6 6 14 6t14 -5.5t6 -13.5q0 -7 -5 -14l-85 -102q-5 -8 -12.5 -13t-18.5 -5t-19 5t-13 13zM170 234q-21 7 -41.5 17t-36.5 25t-25.5 36t-9.5 50q0 28 12 52.5t34 43.5t52.5 30t67.5 11q71 0 115.5 -31
t54.5 -82q3 -16 -4.5 -29.5t-25.5 -13.5q-25 0 -33 27q-9 29 -33.5 50t-72.5 21q-18 0 -35.5 -4.5t-31.5 -13.5t-22.5 -22.5t-8.5 -32.5q0 -25 14 -40t45 -25l83 -26q27 -9 51 -19.5t42 -26.5t28.5 -38t10.5 -54q0 -33 -12.5 -60.5t-35 -47t-55 -30.5t-72.5 -11
q-75 0 -124.5 34t-56.5 94q-2 14 6.5 26.5t25.5 12.5q26 0 31 -26q7 -33 34 -57.5t83 -24.5q52 0 78.5 23t26.5 59q0 30 -15 46.5t-50 27.5z" />
    <glyph glyph-name="Tcommaaccent" unicode="&#x162;" horiz-adv-x="461" 
d="M254 -45q39 0 60 -19t21 -51q0 -34 -22 -53t-59 -19h-80q-10 0 -16 6.5t-6 15.5q0 22 22 22h79q12 0 20.5 6.5t8.5 20.5t-8.5 20.5t-20.5 6.5h-45q-12 0 -18 7t-2 19l19 64q-15 10 -15 31v556h-144q-15 0 -24.5 10t-9.5 25t9.5 24.5t24.5 9.5h364q16 0 25 -10t9 -25
t-9 -24.5t-25 -9.5h-144v-556q0 -18 -12 -28l-14 -49h12z" />
    <glyph glyph-name="tcommaaccent" unicode="&#x163;" horiz-adv-x="314" 
d="M178 -45q39 0 60 -19t21 -51q0 -34 -22 -53t-59 -19h-80q-10 0 -16 6.5t-6 15.5q0 22 22 22h79q12 0 20.5 6.5t8.5 20.5t-8.5 20.5t-20.5 6.5h-45q-12 0 -18 7t-2 19l19 66q-11 11 -11 28v393h-73q-14 0 -22 8t-8 22t8 23t22 9h73v102q0 16 10 26t27 10q16 0 26.5 -10
t10.5 -26v-102h73q14 0 22 -8t8 -22t-8 -23t-22 -9h-73v-393q0 -19 -14 -29l-14 -47h12z" />
    <glyph glyph-name="Tcaron" unicode="&#x164;" horiz-adv-x="461" 
d="M14 623q0 15 9.5 24.5t24.5 9.5h364q16 0 25 -10t9 -25t-9 -24.5t-25 -9.5h-144v-556q0 -17 -10.5 -27t-27.5 -10t-27.5 10t-10.5 27v556h-144q-15 0 -24.5 10t-9.5 25zM115 805q-6 6 -6 14t6.5 14t14.5 6q9 0 16 -7l86 -77l86 78q6 6 14 6t14 -5.5t6 -13.5q0 -7 -5 -14
l-85 -103q-5 -7 -12.5 -12t-18.5 -5t-19 5t-13 12z" />
    <glyph glyph-name="tcaron" unicode="&#x165;" horiz-adv-x="314" 
d="M296 559q-4 -10 -10 -16t-17 -6t-18.5 7.5t-7.5 18.5q0 1 0.5 4t1.5 8l9 72q2 16 11.5 26t26.5 10q14 0 25.5 -9t11.5 -25q0 -8 -3 -18zM17 454q0 14 8 23t22 9h73v102q0 16 10 26t27 10q16 0 26.5 -10t10.5 -26v-102h73q14 0 22 -8t8 -22t-8 -23t-22 -9h-73v-393
q0 -16 -10.5 -26t-26.5 -10q-17 0 -27 10t-10 26v393h-73q-14 0 -22 8t-8 22z" />
    <glyph glyph-name="Tbar" unicode="&#x166;" horiz-adv-x="462" 
d="M15 623q0 15 9.5 24.5t24.5 9.5h364q16 0 25 -10t9 -25t-9 -24.5t-25 -9.5h-144v-162h111q13 0 20.5 -8.5t7.5 -21.5q0 -14 -7.5 -22t-20.5 -8h-111v-334q0 -17 -10.5 -27t-27.5 -10t-27.5 10t-10.5 27v334h-110q-13 0 -21 8t-8 22q0 13 8 21.5t21 8.5h110v162h-144
q-15 0 -24.5 10t-9.5 25z" />
    <glyph glyph-name="tbar" unicode="&#x167;" horiz-adv-x="317" 
d="M19 454q0 14 8 23t22 9h73v102q0 16 10 26t27 10q16 0 26.5 -10t10.5 -26v-102h73q14 0 22 -8t8 -22t-8 -23t-22 -9h-73v-101h58q11 0 18.5 -8t7.5 -19q0 -12 -7.5 -19.5t-18.5 -7.5h-58v-238q0 -16 -10.5 -26t-26.5 -10q-17 0 -27 10t-10 26v238h-58q-12 0 -19.5 7.5
t-7.5 19.5q0 11 7.5 19t19.5 8h58v101h-73q-14 0 -22 8t-8 22z" />
    <glyph glyph-name="Utilde" unicode="&#x168;" horiz-adv-x="579" 
d="M463 662q17 0 27.5 -10t10.5 -27v-425q0 -48 -15.5 -87t-43.5 -66.5t-67 -42t-86 -14.5t-86 14.5t-66.5 42t-43 66.5t-15.5 87v425q0 17 10.5 27t27.5 10t27.5 -10t10.5 -27v-427q0 -60 35 -99.5t100 -39.5q66 0 101 39.5t35 99.5v427q0 17 10.5 27t27.5 10zM396 790
q2 16 20 16q23 0 23 -31q0 -32 -17.5 -55.5t-53.5 -23.5q-17 0 -32.5 6t-31.5 15l-40 22q-9 5 -19.5 9.5t-20.5 4.5q-13 0 -20.5 -6t-12 -13.5t-6 -15.5t-2.5 -12q-5 -15 -21 -15q-24 0 -24 29q0 35 22.5 59.5t60.5 24.5q27 0 58 -17l41 -22q11 -7 23 -12.5t22 -5.5
q18 0 23.5 13.5t7.5 29.5z" />
    <glyph glyph-name="utilde" unicode="&#x169;" horiz-adv-x="503" 
d="M364 56q-22 -31 -56 -48.5t-77 -17.5q-78 0 -120.5 47.5t-42.5 127.5v292q0 17 9.5 27t26.5 10t27 -10t10 -27v-292q0 -47 26 -78.5t77 -31.5q54 0 84 34.5t30 85.5v282q0 17 10 27t26 10q17 0 27 -10t10 -27v-429q0 -33 -31 -33q-11 0 -19.5 6t-10.5 20zM357 650
q2 16 20 16q23 0 23 -30q0 -33 -17.5 -56.5t-53.5 -23.5q-17 0 -32.5 6.5t-31.5 14.5l-40 22q-9 5 -19.5 9.5t-20.5 4.5q-13 0 -20.5 -6t-12 -13.5t-6 -15.5t-2.5 -12q-2 -6 -7.5 -10.5t-13.5 -4.5q-11 0 -17.5 8t-6.5 22q0 35 22.5 59.5t60.5 24.5q27 0 58 -17l41 -23
q11 -7 23 -12t22 -5q18 0 23.5 13t7.5 29z" />
    <glyph glyph-name="Umacron" unicode="&#x16a;" horiz-adv-x="579" 
d="M463 662q17 0 27.5 -10t10.5 -27v-425q0 -48 -15.5 -87t-43.5 -66.5t-67 -42t-86 -14.5t-86 14.5t-66.5 42t-43 66.5t-15.5 87v425q0 17 10.5 27t27.5 10t27.5 -10t10.5 -27v-427q0 -60 35 -99.5t100 -39.5q66 0 101 39.5t35 99.5v427q0 17 10.5 27t27.5 10zM167 760
q0 12 7.5 19.5t19.5 7.5h191q12 0 19.5 -7.5t7.5 -19.5q0 -13 -7.5 -20.5t-19.5 -7.5h-191q-12 0 -19.5 8t-7.5 20z" />
    <glyph glyph-name="umacron" unicode="&#x16b;" horiz-adv-x="503" 
d="M364 56q-22 -31 -56 -48.5t-77 -17.5q-78 0 -120.5 47.5t-42.5 127.5v292q0 17 9.5 27t26.5 10t27 -10t10 -27v-292q0 -47 26 -78.5t77 -31.5q54 0 84 34.5t30 85.5v282q0 17 10 27t26 10q17 0 27 -10t10 -27v-429q0 -33 -31 -33q-11 0 -19.5 6t-10.5 20zM127 600
q0 12 7.5 19.5t19.5 7.5h191q12 0 19.5 -7.5t7.5 -19.5q0 -13 -7.5 -20.5t-19.5 -7.5h-191q-12 0 -19.5 8t-7.5 20z" />
    <glyph glyph-name="Ubreve" unicode="&#x16c;" horiz-adv-x="579" 
d="M463 662q17 0 27.5 -10t10.5 -27v-425q0 -48 -15.5 -87t-43.5 -66.5t-67 -42t-86 -14.5t-86 14.5t-66.5 42t-43 66.5t-15.5 87v425q0 17 10.5 27t27.5 10t27.5 -10t10.5 -27v-427q0 -60 35 -99.5t100 -39.5q66 0 101 39.5t35 99.5v427q0 17 10.5 27t27.5 10zM367 817
q11 0 17.5 -6.5t5.5 -17.5q1 -40 -26 -69t-75 -29q-24 0 -43 8t-32 21.5t-19.5 31.5t-6.5 37q0 11 7 17.5t18 6.5q22 0 24 -22q-1 -23 11.5 -40t40.5 -17q27 0 40 16.5t13 40.5q0 22 25 22z" />
    <glyph glyph-name="ubreve" unicode="&#x16d;" horiz-adv-x="503" 
d="M364 56q-22 -31 -56 -48.5t-77 -17.5q-78 0 -120.5 47.5t-42.5 127.5v292q0 17 9.5 27t26.5 10t27 -10t10 -27v-292q0 -47 26 -78.5t77 -31.5q54 0 84 34.5t30 85.5v282q0 17 10 27t26 10q17 0 27 -10t10 -27v-429q0 -33 -31 -33q-11 0 -19.5 6t-10.5 20zM327 671
q11 0 17.5 -7t5.5 -18q1 -39 -26.5 -68.5t-74.5 -29.5q-24 0 -43 8t-32 21.5t-19.5 31.5t-6.5 37q0 11 7 18t18 7t17 -6.5t7 -16.5q-1 -23 11.5 -40t40.5 -17q27 0 40 16.5t13 40.5q0 10 6.5 16.5t18.5 6.5z" />
    <glyph glyph-name="Uring" unicode="&#x16e;" horiz-adv-x="579" 
d="M289 720q23 0 37 16t14 39t-14 39t-37 16t-37 -16t-14 -39t14 -39t37 -16zM289 680q-43 0 -70.5 28t-27.5 67q0 40 27.5 68t70.5 28t70.5 -28t27.5 -68q0 -39 -27.5 -67t-70.5 -28zM463 662q17 0 27.5 -10t10.5 -27v-425q0 -48 -15.5 -87t-43.5 -66.5t-67 -42t-86 -14.5
t-86 14.5t-66.5 42t-43 66.5t-15.5 87v425q0 17 10.5 27t27.5 10t27.5 -10t10.5 -27v-427q0 -60 35 -99.5t100 -39.5q66 0 101 39.5t35 99.5v427q0 17 10.5 27t27.5 10z" />
    <glyph glyph-name="uring" unicode="&#x16f;" horiz-adv-x="503" 
d="M249 569q23 0 37 16t14 39t-14 38.5t-37 15.5t-37 -15.5t-14 -38.5t14 -39t37 -16zM249 528q-43 0 -70.5 28.5t-27.5 67.5t27.5 67.5t70.5 28.5t70.5 -28.5t27.5 -67.5t-27.5 -67.5t-70.5 -28.5zM364 56q-22 -31 -56 -48.5t-77 -17.5q-78 0 -120.5 47.5t-42.5 127.5v292
q0 17 9.5 27t26.5 10t27 -10t10 -27v-292q0 -47 26 -78.5t77 -31.5q54 0 84 34.5t30 85.5v282q0 17 10 27t26 10q17 0 27 -10t10 -27v-429q0 -33 -31 -33q-11 0 -19.5 6t-10.5 20z" />
    <glyph glyph-name="Uhungarumlaut" unicode="&#x170;" horiz-adv-x="579" 
d="M237 704q-7 -7 -14 -7q-8 0 -14 6t-6 13t7 17l85 88q8 11 21 11q12 0 21 -8.5t9 -20.5t-12 -22zM361 701q-8 -6 -15 -6q-9 0 -14.5 5.5t-5.5 13.5q0 5 0.5 8t5.5 8l79 93q9 11 22 11q12 0 20.5 -8.5t8.5 -20.5q0 -6 -3 -11.5t-7 -9.5zM463 662q17 0 27.5 -10t10.5 -27
v-425q0 -48 -15.5 -87t-43.5 -66.5t-67 -42t-86 -14.5t-86 14.5t-66.5 42t-43 66.5t-15.5 87v425q0 17 10.5 27t27.5 10t27.5 -10t10.5 -27v-427q0 -60 35 -99.5t100 -39.5q66 0 101 39.5t35 99.5v427q0 17 10.5 27t27.5 10z" />
    <glyph glyph-name="uhungarumlaut" unicode="&#x171;" horiz-adv-x="503" 
d="M364 56q-22 -31 -56 -48.5t-77 -17.5q-78 0 -120.5 47.5t-42.5 127.5v292q0 17 9.5 27t26.5 10t27 -10t10 -27v-292q0 -47 26 -78.5t77 -31.5q54 0 84 34.5t30 85.5v282q0 17 10 27t26 10q17 0 27 -10t10 -27v-429q0 -33 -31 -33q-11 0 -19.5 6t-10.5 20zM194 560
q-8 -6 -14 -6q-8 0 -14 6t-6 13t7 17l85 88q9 11 21 11t21 -9t9 -20q0 -13 -12 -22zM318 558q-4 -3 -7 -5t-8 -2q-9 0 -14.5 6t-5.5 13q0 5 0.5 8.5t5.5 8.5l79 92q9 12 22 12q12 0 20.5 -8.5t8.5 -20.5q0 -7 -3 -12.5t-7 -8.5z" />
    <glyph glyph-name="Uogonek" unicode="&#x172;" horiz-adv-x="579" 
d="M463 662q17 0 27.5 -10t10.5 -27v-425q0 -48 -15.5 -86t-41.5 -66q-16 -16 -31.5 -32t-27.5 -32.5t-19.5 -34t-7.5 -37.5q0 -23 11.5 -37.5t37.5 -14.5h27q11 0 17 -6.5t6 -17.5t-6 -17.5t-17 -6.5h-37q-45 0 -67.5 26t-22.5 62q0 28 12.5 52.5t29.5 44.5q-14 -3 -29 -5
t-31 -2q-47 0 -86 14.5t-66.5 42t-43 66.5t-15.5 87v425q0 17 10.5 27t27.5 10t27.5 -10t10.5 -27v-427q0 -60 35 -99.5t100 -39.5q66 0 101 39.5t35 99.5v427q0 17 10.5 27t27.5 10z" />
    <glyph glyph-name="uogonek" unicode="&#x173;" horiz-adv-x="503" 
d="M369 -188q-46 0 -68 21.5t-22 52.5q0 20 8.5 39t22 35.5t30.5 29t34 19.5q-3 5 -4 12l-6 35q-22 -31 -56 -48.5t-77 -17.5q-78 0 -120.5 47.5t-42.5 127.5v292q0 17 9.5 27t26.5 10t27 -10t10 -27v-292q0 -47 26 -78.5t77 -31.5q54 0 84 34.5t30 85.5v282q0 17 10 27
t26 10q17 0 27 -10t10 -27v-429q0 -30 -23 -32q-35 -21 -57 -46t-22 -53q0 -17 11.5 -27t37.5 -10h28q11 0 17 -6.5t6 -16.5q0 -11 -6 -18t-17 -7h-37z" />
    <glyph glyph-name="Wcircumflex" unicode="&#x174;" horiz-adv-x="738" 
d="M484 730q6 -6 6 -14t-6 -14t-14 -6q-9 0 -16 7l-86 77l-86 -78q-6 -6 -15 -6q-8 0 -13.5 5.5t-5.5 13.5q0 7 5 14l85 103q5 7 12.5 12t18.5 5t19 -5t13 -12zM560 28q-3 -15 -14 -24t-26 -9q-16 0 -27 9t-14 24l-111 492l-109 -492q-3 -15 -14 -24t-27 -9q-15 0 -26 9
t-14 24l-138 587q-1 3 -1 5.5v4.5q0 17 10.5 27t25.5 10q14 0 24 -9t13 -23l109 -492l108 489q3 15 14 24.5t26 9.5q16 0 27 -9.5t14 -24.5l109 -488l109 493q3 14 12.5 22t23.5 8q15 0 25 -10t10 -26v-4.5t-1 -5.5z" />
    <glyph glyph-name="wcircumflex" unicode="&#x175;" horiz-adv-x="657" 
d="M444 583q6 -6 6 -14t-6 -14t-14 -6q-9 0 -16 7l-86 77l-86 -78q-6 -6 -15 -6q-8 0 -13.5 6t-5.5 14q0 6 5 13l85 103q5 7 12.5 12t18.5 5t19 -5t13 -12zM500 26q-10 -31 -40 -31q-29 0 -39 31l-92 339l-91 -339q-10 -31 -40 -31q-31 0 -41 31l-117 417q-2 8 -2 12
q0 17 10.5 28t25.5 11t24.5 -8.5t12.5 -21.5l90 -352l89 350q4 14 14.5 23t25.5 9q14 0 25 -9t15 -23l89 -349l91 354q3 12 11.5 19.5t22.5 7.5t23.5 -9.5t11.5 -23.5q1 -7 -2 -20z" />
    <glyph glyph-name="Ycircumflex" unicode="&#x176;" horiz-adv-x="488" 
d="M282 262v-230q0 -17 -10.5 -27t-27.5 -10t-27.5 10t-10.5 27v230l-170 346q-4 7 -4 17q0 15 10.5 26t25.5 11q23 0 33 -20l145 -305l147 306q5 11 13 15t18 4q14 0 24 -9.5t10 -21.5q1 -5 -1 -11t-4 -11zM359 730q6 -6 6 -14t-6 -14t-14 -6q-9 0 -16 7l-86 77l-86 -78
q-6 -6 -15 -6q-8 0 -13.5 5.5t-5.5 13.5q0 7 5 14l85 103q5 7 12.5 12t18.5 5t19 -5t13 -12z" />
    <glyph glyph-name="ycircumflex" unicode="&#x177;" horiz-adv-x="457" 
d="M205 -167q-4 -11 -12.5 -18t-19.5 -7q-17 0 -26.5 13t-4.5 30l54 147l-161 445q-5 15 3.5 33t30.5 18q28 0 36 -26l126 -369l126 370q7 25 32 25q19 0 29.5 -15t4.5 -33zM343 583q6 -6 6 -14t-6 -14t-14 -6q-9 0 -16 7l-86 77l-86 -78q-6 -6 -15 -6q-8 0 -13.5 6t-5.5 14
q0 6 5 13l85 103q5 7 12.5 12t18.5 5t19 -5t13 -12z" />
    <glyph glyph-name="Ydieresis" unicode="&#x178;" horiz-adv-x="488" 
d="M282 262v-230q0 -17 -10.5 -27t-27.5 -10t-27.5 10t-10.5 27v230l-170 346q-4 7 -4 17q0 15 10.5 26t25.5 11q23 0 33 -20l145 -305l147 306q5 11 13 15t18 4q14 0 24 -9.5t10 -21.5q1 -5 -1 -11t-4 -11zM144 762q0 18 13 30.5t32 12.5q18 0 30 -12.5t12 -30.5
q0 -19 -12 -32t-30 -13q-19 0 -32 13t-13 32zM258 762q0 18 13 30.5t31 12.5t30.5 -12.5t12.5 -30.5q0 -19 -12.5 -32t-30.5 -13t-31 13t-13 32z" />
    <glyph glyph-name="Zacute" unicode="&#x179;" horiz-adv-x="464" 
d="M388 657q14 0 24 -8t10 -22q0 -10 -4.5 -20t-9.5 -19l-279 -520h272q15 0 24 -9.5t9 -24.5q0 -16 -9 -25t-24 -9h-334q-14 0 -23.5 8t-9.5 22q0 10 4 20.5t9 18.5l279 520h-250q-15 0 -24.5 9t-9.5 25q0 15 9.5 24.5t24.5 9.5h312zM293 826q12 12 25 12q14 0 23.5 -10
t9.5 -24q0 -16 -12 -26l-96 -74q-7 -5 -15 -5q-11 0 -18 7t-7 17q0 6 2 10.5t7 9.5z" />
    <glyph glyph-name="zacute" unicode="&#x17a;" horiz-adv-x="429" 
d="M274 680q11 11 25 11t23.5 -9.5t9.5 -24.5q0 -14 -12 -26l-96 -74q-7 -5 -15 -5q-11 0 -18 7t-7 17t9 21zM127 61h239q13 0 21 -9t8 -22q0 -14 -8 -22t-21 -8h-299q-31 0 -31 28q0 11 4 18.5t9 16.5l246 364h-225q-14 0 -22 8.5t-8 22.5q0 13 8 22t22 9h286q30 0 30 -28
q0 -11 -4 -19t-9 -16z" />
    <glyph glyph-name="Zdotaccent" unicode="&#x17b;" horiz-adv-x="464" 
d="M183 760q0 21 14 35t34 14q21 0 35 -14t14 -35q0 -20 -14 -34t-35 -14q-20 0 -34 14t-14 34zM388 657q14 0 24 -8t10 -22q0 -10 -4.5 -20t-9.5 -19l-279 -520h272q15 0 24 -9.5t9 -24.5q0 -16 -9 -25t-24 -9h-334q-14 0 -23.5 8t-9.5 22q0 10 4 20.5t9 18.5l279 520h-250
q-15 0 -24.5 9t-9.5 25q0 15 9.5 24.5t24.5 9.5h312z" />
    <glyph glyph-name="zdotaccent" unicode="&#x17c;" horiz-adv-x="429" 
d="M127 61h239q13 0 21 -9t8 -22q0 -14 -8 -22t-21 -8h-299q-31 0 -31 28q0 11 4 18.5t9 16.5l246 364h-225q-14 0 -22 8.5t-8 22.5q0 13 8 22t22 9h286q30 0 30 -28q0 -11 -4 -19t-9 -16zM165 607q0 20 14 34.5t34 14.5q21 0 35 -14.5t14 -34.5t-14 -34t-35 -14
q-20 0 -34 14t-14 34z" />
    <glyph glyph-name="Zcaron" unicode="&#x17d;" horiz-adv-x="464" 
d="M388 657q14 0 24 -8t10 -22q0 -10 -4.5 -20t-9.5 -19l-279 -520h272q15 0 24 -9.5t9 -24.5q0 -16 -9 -25t-24 -9h-334q-14 0 -23.5 8t-9.5 22q0 10 4 20.5t9 18.5l279 520h-250q-15 0 -24.5 9t-9.5 25q0 15 9.5 24.5t24.5 9.5h312zM121 805q-6 6 -6 14t6.5 14t14.5 6
q9 0 16 -7l86 -77l86 78q6 6 14 6t14 -5.5t6 -13.5q0 -7 -5 -14l-85 -103q-5 -7 -12.5 -12t-18.5 -5t-19 5t-13 12z" />
    <glyph glyph-name="zcaron" unicode="&#x17e;" horiz-adv-x="429" 
d="M99 662q-6 7 -6 14q0 8 6.5 14t14.5 6q9 0 16 -7l86 -77l86 78q6 6 14 6t14 -5.5t6 -13.5q0 -7 -5 -14l-85 -102q-5 -8 -12.5 -13t-18.5 -5t-19 5t-13 13zM127 61h239q13 0 21 -9t8 -22q0 -14 -8 -22t-21 -8h-299q-31 0 -31 28q0 11 4 18.5t9 16.5l246 364h-225
q-14 0 -22 8.5t-8 22.5q0 13 8 22t22 9h286q30 0 30 -28q0 -11 -4 -19t-9 -16z" />
    <glyph glyph-name="longs" unicode="&#x17f;" horiz-adv-x="237" 
d="M234 614q-50 0 -69.5 -28t-19.5 -71v-484q0 -16 -10 -26t-26 -10q-17 0 -27 10t-10 26v479q0 81 41.5 124t120.5 43h19q14 0 22.5 -9t8.5 -23t-8.5 -22.5t-22.5 -8.5h-19z" />
    <glyph glyph-name="florin" unicode="&#x192;" horiz-adv-x="413" 
d="M81 337q0 14 8 22.5t22 8.5h54v137q0 81 42 124t120 43h18q14 0 22.5 -9t8.5 -23q0 -31 -31 -31h-18q-50 0 -69.5 -28t-19.5 -71v-142h102q14 0 22 -8.5t8 -22.5t-8 -22.5t-22 -8.5h-102v-326q0 -81 -41.5 -124t-120.5 -43h-18q-14 0 -22.5 9t-8.5 23t8.5 22.5t22.5 8.5
h18q50 0 69.5 28t19.5 71v331h-54q-14 0 -22 8.5t-8 22.5z" />
    <glyph glyph-name="Scommaaccent" unicode="&#x218;" horiz-adv-x="525" 
d="M252 -203q-5 -10 -11.5 -16.5t-17.5 -6.5q-12 0 -20 8t-8 19q0 4 3 15l23 103q5 17 14 27t26 10q14 0 26 -10t12 -27q0 -9 -3 -18zM426 460q-14 0 -23.5 8t-11.5 22q-7 51 -39 82t-91 31q-60 0 -93.5 -27.5t-33.5 -71.5q0 -35 21.5 -59t53.5 -37l108 -44q28 -11 56.5 -25
t51 -35t37 -51t14.5 -72q0 -44 -15.5 -79t-44 -60t-67.5 -38.5t-87 -13.5q-91 0 -147.5 43t-65.5 122q-2 17 7 30t29 13q32 0 35 -31q5 -50 40 -81t101 -31q67 0 103.5 33t36.5 84q0 27 -9 46t-24 33t-35.5 24.5t-43.5 19.5l-93 38q-28 11 -52.5 25.5t-43 34.5t-29 46
t-10.5 59q0 37 14.5 68t40.5 53.5t63 35t82 12.5q85 0 139.5 -43.5t61.5 -120.5q2 -17 -8 -30t-28 -13z" />
    <glyph glyph-name="scommaaccent" unicode="&#x219;" horiz-adv-x="448" 
d="M214 -203q-5 -10 -11.5 -16.5t-17.5 -6.5q-12 0 -20 8t-8 19q0 4 3 15l23 103q5 17 14 27t26 10q14 0 26 -10t12 -27q0 -9 -3 -18zM170 234q-21 7 -41.5 17t-36.5 25t-25.5 36t-9.5 50q0 28 12 52.5t34 43.5t52.5 30t67.5 11q71 0 115.5 -31t54.5 -82q3 -16 -4.5 -29.5
t-25.5 -13.5q-25 0 -33 27q-9 29 -33.5 50t-72.5 21q-18 0 -35.5 -4.5t-31.5 -13.5t-22.5 -22.5t-8.5 -32.5q0 -25 14 -40t45 -25l83 -26q27 -9 51 -19.5t42 -26.5t28.5 -38t10.5 -54q0 -33 -12.5 -60.5t-35 -47t-55 -30.5t-72.5 -11q-75 0 -124.5 34t-56.5 94
q-2 14 6.5 26.5t25.5 12.5q26 0 31 -26q7 -33 34 -57.5t83 -24.5q52 0 78.5 23t26.5 59q0 30 -15 46.5t-50 27.5z" />
    <glyph glyph-name="uni021A" unicode="&#x21a;" horiz-adv-x="461" 
d="M214 -203q-5 -10 -11.5 -16.5t-17.5 -6.5q-12 0 -20 8t-8 19q0 4 3 15l23 103q5 17 14 27t26 10q14 0 26 -10t12 -27q0 -9 -3 -18zM14 623q0 15 9.5 24.5t24.5 9.5h364q16 0 25 -10t9 -25t-9 -24.5t-25 -9.5h-144v-556q0 -17 -10.5 -27t-27.5 -10t-27.5 10t-10.5 27v556
h-144q-15 0 -24.5 10t-9.5 25z" />
    <glyph glyph-name="uni021B" unicode="&#x21b;" horiz-adv-x="314" 
d="M142 -203q-5 -10 -11.5 -16.5t-17.5 -6.5q-12 0 -20 8t-8 19q0 4 3 15l23 103q5 17 14 27t26 10q14 0 26 -10t12 -27q0 -9 -3 -18zM17 454q0 14 8 23t22 9h73v102q0 16 10 26t27 10q16 0 26.5 -10t10.5 -26v-102h73q14 0 22 -8t8 -22t-8 -23t-22 -9h-73v-393
q0 -16 -10.5 -26t-26.5 -10q-17 0 -27 10t-10 26v393h-73q-14 0 -22 8t-8 22z" />
    <glyph glyph-name="uni0237" unicode="&#x237;" horiz-adv-x="217" 
d="M-29 -134q51 2 76 30.5t25 78.5v482q0 17 9.5 27t26.5 10t27 -10t10 -27v-477q0 -88 -47 -132.5t-125 -44.5q-17 0 -27 7.5t-10 24.5q0 29 35 31z" />
    <glyph glyph-name="circumflex" unicode="&#x2c6;" horiz-adv-x="286" 
d="M258 583q6 -6 6 -14t-6 -14t-14 -6q-9 0 -16 7l-86 77l-86 -78q-6 -6 -15 -6q-8 0 -13.5 6t-5.5 14q0 6 5 13l85 103q5 7 12.5 12t18.5 5t19 -5t13 -12l83 -102v0z" />
    <glyph glyph-name="caron" unicode="&#x2c7;" horiz-adv-x="286" 
d="M28 662q-6 7 -6 14q0 8 6.5 14t14.5 6q9 0 16 -7l86 -77l86 78q6 6 14 6t14 -5.5t6 -13.5q0 -7 -5 -14l-85 -102q-5 -8 -12.5 -13t-18.5 -5t-19 5t-13 13z" />
    <glyph glyph-name="uni02C9" unicode="&#x2c9;" horiz-adv-x="275" 
d="M15 601q0 12 7.5 20t19.5 8h191q12 0 19.5 -8t7.5 -20q0 -11 -7.5 -19t-19.5 -8h-191q-12 0 -19.5 8t-7.5 19z" />
    <glyph glyph-name="breve" unicode="&#x2d8;" horiz-adv-x="243" 
d="M199 671q11 0 17.5 -7t5.5 -18q1 -39 -26.5 -68.5t-74.5 -29.5q-24 0 -43 8t-32 21.5t-19.5 31.5t-6.5 37q0 11 7 18t18 7t17 -6.5t7 -16.5q-1 -23 11.5 -40t40.5 -17q27 0 40 16.5t13 40.5q0 10 6.5 16.5t18.5 6.5z" />
    <glyph glyph-name="dotaccent" unicode="&#x2d9;" horiz-adv-x="137" 
d="M20 607q0 20 14 34.5t34 14.5q21 0 35 -14.5t14 -34.5t-14 -34t-35 -14q-20 0 -34 14t-14 34z" />
    <glyph glyph-name="ring" unicode="&#x2da;" horiz-adv-x="236" 
d="M118 569q23 0 37 16t14 39t-14 38.5t-37 15.5t-37 -15.5t-14 -38.5t14 -39t37 -16zM118 528q-43 0 -70.5 28.5t-27.5 67.5t27.5 67.5t70.5 28.5t70.5 -28.5t27.5 -67.5t-27.5 -67.5t-70.5 -28.5z" />
    <glyph glyph-name="ogonek" unicode="&#x2db;" horiz-adv-x="236" 
d="M172 -140q11 0 17 -6.5t6 -16.5q0 -11 -6 -18t-17 -7h-37q-46 0 -68 21.5t-22 52.5q0 20 8.5 39t22.5 35t32 28.5t37 20.5l37 -9q-38 -21 -62.5 -47.5t-24.5 -55.5q0 -17 12 -27t38 -10h27z" />
    <glyph glyph-name="tilde" unicode="&#x2dc;" horiz-adv-x="341" 
d="M278 650q2 16 20 16q23 0 23 -30q0 -33 -17.5 -56.5t-53.5 -23.5q-17 0 -32.5 6.5t-31.5 14.5l-40 22q-9 5 -19.5 9.5t-20.5 4.5q-13 0 -20.5 -6t-12 -13.5t-6 -15.5t-2.5 -12q-2 -6 -7.5 -10.5t-13.5 -4.5q-11 0 -17.5 8t-6.5 22q0 35 22.5 59.5t60.5 24.5q27 0 58 -17
l41 -23q11 -7 23 -12t22 -5q18 0 23.5 13t7.5 29z" />
    <glyph glyph-name="hungarumlaut" unicode="&#x2dd;" horiz-adv-x="311" 
d="M57 560q-8 -6 -14 -6q-8 0 -14 6t-6 13t7 17l85 88q9 11 21 11t21 -9t9 -20q0 -13 -12 -22zM181 558q-4 -3 -7 -5t-8 -2q-9 0 -14.5 6t-5.5 13q0 5 0.5 8.5t5.5 8.5l79 92q9 12 22 12q12 0 20.5 -8.5t8.5 -20.5q0 -7 -3 -12.5t-7 -8.5z" />
    <glyph glyph-name="Delta" unicode="&#x394;" horiz-adv-x="515" 
d="M64 0q-37 2 -27 37l172 588q5 17 18.5 27t30.5 10q18 0 30.5 -10t17.5 -27l173 -588q5 -17 -3 -27t-25 -10h-387zM121 68h270l-135 470z" />
    <glyph glyph-name="Omega" unicode="&#x3a9;" horiz-adv-x="589" 
d="M510 216q0 -58 -19.5 -96.5t-55.5 -61.5h82q13 0 20.5 -8.5t7.5 -20.5t-7.5 -20.5t-20.5 -8.5h-125q-14 0 -23 9t-9 23v19q0 12 5 20t16 17q25 17 39 44.5t14 67.5v259q0 60 -36 99.5t-103 39.5t-103.5 -39.5t-36.5 -99.5v-259q0 -40 14 -67.5t39 -44.5q12 -9 16.5 -17
t4.5 -20v-19q0 -14 -8.5 -23t-22.5 -9h-126q-12 0 -20 8.5t-8 20.5t8 20.5t20 8.5h82q-36 23 -55.5 61.5t-19.5 96.5v241q0 48 15 87t43.5 66.5t68 42t89.5 14.5q49 0 89 -14.5t68 -42t43 -66.5t15 -87v-241z" />
    <glyph glyph-name="mu" unicode="&#x3bc;" horiz-adv-x="507" 
d="M367 56q-21 -31 -55 -48.5t-78 -17.5q-61 0 -95 36l6 -170v-12q0 -16 -10 -26t-27 -10t-27 10t-10 26v613q0 17 10 27t27 10t27 -10t10 -27v-292q0 -47 26 -78.5t77 -31.5q53 0 83 34.5t30 85.5v282q0 17 10 27t27 10t27 -10t10 -27v-429q0 -33 -30 -33q-24 0 -30 26z
" />
    <glyph glyph-name="pi" unicode="&#x3c0;" horiz-adv-x="624" 
d="M20 455q0 15 9 24.5t24 9.5h518q15 0 24 -9.5t9 -24.5q0 -14 -9 -23.5t-24 -9.5h-70v-391q0 -16 -10 -26t-26 -10t-26.5 10t-10.5 26v391h-232v-391q0 -16 -10 -26t-26 -10t-26.5 10t-10.5 26v391h-70q-15 0 -24 9.5t-9 23.5z" />
    <glyph glyph-name="Wgrave" unicode="&#x1e80;" horiz-adv-x="738" 
d="M389 743q5 -5 7 -9.5t2 -10.5q0 -10 -7 -17t-18 -7q-8 0 -15 5l-96 74q-12 10 -12 26q0 14 9.5 24t23.5 10q13 0 25 -12zM560 28q-3 -15 -14 -24t-26 -9q-16 0 -27 9t-14 24l-111 492l-109 -492q-3 -15 -14 -24t-27 -9q-15 0 -26 9t-14 24l-138 587q-1 3 -1 5.5v4.5
q0 17 10.5 27t25.5 10q14 0 24 -9t13 -23l109 -492l108 489q3 15 14 24.5t26 9.5q16 0 27 -9.5t14 -24.5l109 -488l109 493q3 14 12.5 22t23.5 8q15 0 25 -10t10 -26v-4.5t-1 -5.5z" />
    <glyph glyph-name="wgrave" unicode="&#x1e81;" horiz-adv-x="657" 
d="M500 26q-10 -31 -40 -31q-29 0 -39 31l-92 339l-91 -339q-10 -31 -40 -31q-31 0 -41 31l-117 417q-2 8 -2 12q0 17 10.5 28t25.5 11t24.5 -8.5t12.5 -21.5l90 -352l89 350q4 14 14.5 23t25.5 9q14 0 25 -9t15 -23l89 -349l91 354q3 12 11.5 19.5t22.5 7.5t23.5 -9.5
t11.5 -23.5q1 -7 -2 -20zM348 597q9 -11 9 -21t-7 -17t-18 -7q-8 0 -15 5l-96 74q-12 12 -12 26q0 15 9.5 24.5t23.5 9.5t25 -11z" />
    <glyph glyph-name="Wacute" unicode="&#x1e82;" horiz-adv-x="738" 
d="M433 826q12 12 25 12q14 0 23.5 -10t9.5 -24q0 -16 -12 -26l-96 -74q-7 -5 -15 -5q-11 0 -18 7t-7 17q0 6 2 10.5t7 9.5zM560 28q-3 -15 -14 -24t-26 -9q-16 0 -27 9t-14 24l-111 492l-109 -492q-3 -15 -14 -24t-27 -9q-15 0 -26 9t-14 24l-138 587q-1 3 -1 5.5v4.5
q0 17 10.5 27t25.5 10q14 0 24 -9t13 -23l109 -492l108 489q3 15 14 24.5t26 9.5q16 0 27 -9.5t14 -24.5l109 -488l109 493q3 14 12.5 22t23.5 8q15 0 25 -10t10 -26v-4.5t-1 -5.5z" />
    <glyph glyph-name="wacute" unicode="&#x1e83;" horiz-adv-x="657" 
d="M390 680q11 11 25 11t23.5 -9.5t9.5 -24.5q0 -14 -12 -26l-96 -74q-7 -5 -15 -5q-11 0 -18 7t-7 17t9 21zM500 26q-10 -31 -40 -31q-29 0 -39 31l-92 339l-91 -339q-10 -31 -40 -31q-31 0 -41 31l-117 417q-2 8 -2 12q0 17 10.5 28t25.5 11t24.5 -8.5t12.5 -21.5l90 -352
l89 350q4 14 14.5 23t25.5 9q14 0 25 -9t15 -23l89 -349l91 354q3 12 11.5 19.5t22.5 7.5t23.5 -9.5t11.5 -23.5q1 -7 -2 -20z" />
    <glyph glyph-name="Wdieresis" unicode="&#x1e84;" horiz-adv-x="738" 
d="M560 28q-3 -15 -14 -24t-26 -9q-16 0 -27 9t-14 24l-111 492l-109 -492q-3 -15 -14 -24t-27 -9q-15 0 -26 9t-14 24l-138 587q-1 3 -1 5.5v4.5q0 17 10.5 27t25.5 10q14 0 24 -9t13 -23l109 -492l108 489q3 15 14 24.5t26 9.5q16 0 27 -9.5t14 -24.5l109 -488l109 493
q3 14 12.5 22t23.5 8q15 0 25 -10t10 -26v-4.5t-1 -5.5zM268 762q0 18 13 30.5t32 12.5q18 0 30 -12.5t12 -30.5q0 -19 -12 -32t-30 -13q-19 0 -32 13t-13 32zM382 762q0 18 13 30.5t31 12.5t30.5 -12.5t12.5 -30.5q0 -19 -12.5 -32t-30.5 -13t-31 13t-13 32z" />
    <glyph glyph-name="wdieresis" unicode="&#x1e85;" horiz-adv-x="657" 
d="M228 607q0 18 13 30.5t32 12.5q18 0 30 -12.5t12 -30.5q0 -19 -12 -32t-30 -13q-19 0 -32 13t-13 32zM342 607q0 18 13 30.5t31 12.5t30.5 -12.5t12.5 -30.5q0 -19 -12.5 -32t-30.5 -13t-31 13t-13 32zM500 26q-10 -31 -40 -31q-29 0 -39 31l-92 339l-91 -339
q-10 -31 -40 -31q-31 0 -41 31l-117 417q-2 8 -2 12q0 17 10.5 28t25.5 11t24.5 -8.5t12.5 -21.5l90 -352l89 350q4 14 14.5 23t25.5 9q14 0 25 -9t15 -23l89 -349l91 354q3 12 11.5 19.5t22.5 7.5t23.5 -9.5t11.5 -23.5q1 -7 -2 -20z" />
    <glyph glyph-name="endash" unicode="&#x2013;" horiz-adv-x="511" 
d="M63 263q0 13 7.5 21t20.5 8h329q13 0 20.5 -8t7.5 -21t-7.5 -21t-20.5 -8h-329q-13 0 -20.5 8t-7.5 21z" />
    <glyph glyph-name="emdash" unicode="&#x2014;" horiz-adv-x="796" 
d="M63 263q0 13 7.5 21t20.5 8h613q13 0 20.5 -8t7.5 -21t-7.5 -21t-20.5 -8h-613q-13 0 -20.5 8t-7.5 21z" />
    <glyph glyph-name="quoteleft" unicode="&#x2018;" horiz-adv-x="219" 
d="M112 640q5 11 11 16.5t17 5.5q14 0 21.5 -9.5t3.5 -25.5l-28 -118q-4 -17 -13.5 -27.5t-26.5 -10.5q-11 0 -20 4.5t-14.5 12t-6 18.5t5.5 24z" />
    <glyph glyph-name="quoteright" unicode="&#x2019;" horiz-adv-x="218" 
d="M110 493q-5 -11 -10.5 -16.5t-16.5 -5.5q-14 0 -22 9.5t-4 24.5l28 118q5 17 14 28t27 11q20 0 33.5 -17t1.5 -42z" />
    <glyph glyph-name="quotesinglbase" unicode="&#x201a;" horiz-adv-x="222" 
d="M97 -78q-5 -11 -11 -16.5t-17 -5.5q-14 0 -21.5 9.5t-4.5 24.5l28 118q5 17 14.5 28t26.5 11q21 0 34 -16.5t1 -42.5z" />
    <glyph glyph-name="quotedblleft" unicode="&#x201c;" horiz-adv-x="341" 
d="M235 640q5 11 11 16.5t17 5.5q14 0 21.5 -9.5t3.5 -25.5l-27 -118q-5 -17 -14.5 -27.5t-26.5 -10.5q-21 0 -34 16.5t-1 42.5zM110 640q5 11 11 16.5t17 5.5q14 0 22 -9.5t4 -25.5l-28 -118q-5 -17 -14.5 -27.5t-26.5 -10.5q-21 0 -34 16.5t-1 42.5z" />
    <glyph glyph-name="quotedblright" unicode="&#x201d;" horiz-adv-x="340" 
d="M109 493q-5 -11 -11 -16.5t-17 -5.5q-14 0 -21.5 9.5t-3.5 24.5l27 118q5 17 14.5 28t26.5 11q21 0 34 -16.5t1 -42.5zM234 493q-5 -11 -11 -16.5t-17 -5.5q-14 0 -22 9.5t-4 24.5l28 118q5 17 14.5 28t26.5 11q21 0 34 -16.5t1 -42.5z" />
    <glyph glyph-name="quotedblbase" unicode="&#x201e;" horiz-adv-x="345" 
d="M97 -78q-5 -11 -10.5 -16.5t-16.5 -5.5q-14 0 -22 9.5t-4 24.5l28 118q5 17 14 28t27 11q20 0 33.5 -17t1.5 -42zM222 -78q-5 -11 -11 -16.5t-17 -5.5q-14 0 -21.5 9.5t-3.5 24.5l27 118q5 17 14.5 28t26.5 11q21 0 34 -16.5t1 -42.5z" />
    <glyph glyph-name="dagger" unicode="&#x2020;" horiz-adv-x="383" 
d="M218 489h111q11 0 18 -7.5t7 -18.5q0 -25 -25 -25h-116l15 -443v-76q0 -16 -10.5 -25.5t-25.5 -9.5q-16 0 -26 9.5t-10 25.5v76l13 443h-114q-25 0 -25 25q0 11 7 18.5t18 7.5h109l-8 62v76q0 16 10 25.5t26 9.5q15 0 25.5 -9.5t10.5 -25.5v-76z" />
    <glyph glyph-name="daggerdbl" unicode="&#x2021;" horiz-adv-x="417" 
d="M241 489h105q11 0 17.5 -7t6.5 -18t-6.5 -18.5t-17.5 -7.5h-108l-8 -165l8 -165h108q11 0 17.5 -7t6.5 -18t-6.5 -18.5t-17.5 -7.5h-105l3 -62v-76q0 -16 -10 -25.5t-25 -9.5q-16 0 -26 9.5t-10 25.5v76l2 62h-104q-11 0 -17.5 7.5t-6.5 18.5q0 25 24 25h108l8 165
l-8 165h-108q-11 0 -17.5 7.5t-6.5 18.5t6.5 18t17.5 7h104l-2 62v76q0 16 10 25.5t26 9.5q15 0 25 -9.5t10 -25.5v-76z" />
    <glyph glyph-name="bullet" unicode="&#x2022;" horiz-adv-x="339" 
d="M78 274q0 19 7 36t19.5 29.5t29 20t35.5 7.5t36 -7.5t29.5 -20t19.5 -29.5t7 -36q0 -18 -7 -34.5t-19.5 -29t-29.5 -20t-36 -7.5t-35.5 7.5t-29 20t-19.5 29t-7 34.5z" />
    <glyph glyph-name="ellipsis" unicode="&#x2026;" horiz-adv-x="594" 
d="M60 38q0 21 14 35t34 14q21 0 35 -14t14 -35q0 -20 -14 -34t-35 -14q-20 0 -34 14t-14 34zM248 38q0 21 14.5 35t34.5 14t34 -14t14 -35q0 -20 -14 -34t-34 -14t-34.5 14t-14.5 34zM437 38q0 21 14 35t34 14t34.5 -14t14.5 -35q0 -20 -14.5 -34t-34.5 -14t-34 14t-14 34z
" />
    <glyph glyph-name="perthousand" unicode="&#x2030;" horiz-adv-x="899" 
d="M107 437q0 -26 15 -43.5t44 -17.5q28 0 43 17.5t15 43.5v121q0 26 -15 43.5t-43 17.5q-29 0 -44 -17.5t-15 -43.5v-121zM279 438q0 -50 -31 -80t-82 -30q-53 0 -83.5 30t-30.5 80v119q0 50 30.5 80t83.5 30q51 0 82 -30t31 -80v-119zM404 99q0 -26 15 -43.5t43 -17.5
q29 0 43.5 17.5t14.5 43.5v121q0 26 -14.5 43.5t-43.5 17.5q-28 0 -43 -17.5t-15 -43.5v-121zM576 100q0 -50 -31 -80t-83 -30q-53 0 -83.5 30t-30.5 80v119q0 50 30.5 80t83.5 30q52 0 83 -30t31 -80v-119zM681 99q0 -26 15 -43.5t43 -17.5q29 0 44 17.5t15 43.5v121
q0 26 -15 43.5t-44 17.5q-28 0 -43 -17.5t-15 -43.5v-121zM853 100q0 -50 -31 -80t-83 -30t-82.5 30t-30.5 80v119q0 50 30.5 80t82.5 30t83 -30t31 -80v-119zM344 328l-187 -320q-8 -13 -24 -13q-12 0 -20.5 8t-8.5 20q0 8 5 15l175 291l188 320q8 13 24 13q11 0 19.5 -8
t8.5 -20q0 -7 -4 -15z" />
    <glyph glyph-name="guilsinglleft" unicode="&#x2039;" horiz-adv-x="250" 
d="M178 103q8 -17 -0.5 -29.5t-25.5 -12.5q-11 0 -17.5 5.5t-10.5 13.5l-60 124l-6 14t-3 15t3 15l6 14l60 124q4 8 10.5 13.5t17.5 5.5q17 0 25 -13.5t1 -28.5l-54 -130z" />
    <glyph glyph-name="guilsinglright" unicode="&#x203a;" horiz-adv-x="250" 
d="M126 233l-54 130q-7 15 1 28.5t25 13.5q11 0 17.5 -5.5t10.5 -13.5l60 -124l6 -14t3 -15t-3 -15l-6 -14l-60 -124q-4 -8 -10.5 -13.5t-17.5 -5.5q-17 0 -25.5 12.5t-0.5 29.5z" />
    <glyph glyph-name="fraction" unicode="&#x2044;" horiz-adv-x="109" 
d="M85 328l-187 -320q-8 -13 -24 -13q-12 0 -20.5 8t-8.5 20q0 8 5 15l175 291l188 320q8 13 24 13q11 0 19.5 -8t8.5 -20q0 -7 -4 -15z" />
    <glyph glyph-name="uni2070" unicode="&#x2070;" horiz-adv-x="291" 
d="M95 579q0 -23 13 -38t37 -15q25 0 38 15t13 38v130q0 24 -13 38.5t-38 14.5q-24 0 -37 -14.5t-13 -38.5v-130zM253 580q0 -49 -29.5 -77t-78.5 -28q-48 0 -77.5 28t-29.5 77v128q0 49 28 77t79 28q49 0 78.5 -28t29.5 -77v-128z" />
    <glyph glyph-name="uni2074" unicode="&#x2074;" horiz-adv-x="290" 
d="M192 813q17 0 27 -8.5t10 -22.5v-182h17q11 0 17 -7t6 -17q0 -11 -6 -18t-17 -7h-17v-48q0 -13 -8 -20.5t-21 -7.5q-28 0 -28 28v48h-115q-17 0 -26.5 10.5t-9.5 22.5q0 16 4.5 25t13.5 22l105 154q9 14 19.5 21t28.5 7zM172 600v142l-98 -142h98z" />
    <glyph glyph-name="uni2075" unicode="&#x2075;" horiz-adv-x="278" 
d="M237 784q0 -25 -24 -25h-118v-90q10 8 23.5 12.5t32.5 4.5q44 0 70.5 -27.5t26.5 -75.5q0 -51 -30 -79.5t-78 -28.5q-42 0 -69.5 18t-32.5 49q-2 14 4.5 23.5t20.5 9.5q17 0 23 -18q5 -16 16.5 -25t34.5 -9q26 0 39 15.5t13 42.5q0 25 -11 41.5t-38 16.5q-14 0 -22.5 -3
t-15 -6.5t-14 -6.5t-18.5 -3t-19 7t-8 18v135q0 13 8 20.5t21 7.5h141q24 0 24 -24z" />
    <glyph glyph-name="uni2076" unicode="&#x2076;" horiz-adv-x="286" 
d="M145 631q-20 0 -31 -7t-18 -15v-28q0 -58 49 -58q24 0 36.5 14t12.5 38q0 23 -11.5 39.5t-37.5 16.5zM253 577q0 -50 -30 -76t-78 -26t-77 27.5t-29 78.5v126q0 49 28.5 77.5t79.5 28.5q40 0 69 -20.5t31 -54.5q1 -11 -7 -19t-20 -8q-18 0 -26 21q-4 11 -14 21.5
t-32 10.5q-26 0 -39 -14t-13 -38v-54q11 8 25.5 14t34.5 6q45 0 71 -27.5t26 -73.5z" />
    <glyph glyph-name="uni2077" unicode="&#x2077;" horiz-adv-x="239" 
d="M114 494q-4 -8 -11.5 -13.5t-17.5 -5.5q-11 0 -19 8t-8 19q0 7 3 13l96 244h-119q-11 0 -17.5 6.5t-6.5 17.5t6.5 18t17.5 7h148q14 0 23.5 -8t9.5 -24q0 -6 -2.5 -15t-9.5 -27z" />
    <glyph glyph-name="uni2078" unicode="&#x2078;" horiz-adv-x="281" 
d="M242 723q0 -28 -11 -46t-28 -27q20 -9 32.5 -28.5t12.5 -50.5q0 -43 -29.5 -69.5t-77.5 -26.5q-49 0 -78.5 26.5t-29.5 69.5q0 31 12.5 50.5t32.5 28.5q-18 9 -29 27t-11 46q0 40 27.5 65t75.5 25q46 0 73.5 -25t27.5 -65zM91 574q0 -24 13 -38.5t37 -14.5t36.5 14.5
t12.5 38.5t-12 38.5t-38 14.5t-37.5 -14.5t-11.5 -38.5zM95 718q0 -22 11 -35.5t35 -13.5q23 0 33.5 13.5t10.5 35.5t-11 34.5t-34 12.5q-22 0 -33.5 -12.5t-11.5 -34.5z" />
    <glyph glyph-name="uni2079" unicode="&#x2079;" horiz-adv-x="284" 
d="M140 657q20 0 31 7t19 16v21q0 64 -50 64q-24 0 -36.5 -14t-12.5 -38q0 -23 11.5 -39.5t37.5 -16.5zM33 711q0 50 29.5 76t77.5 26t77.5 -28.5t29.5 -83.5v-120q0 -49 -28.5 -77.5t-79.5 -28.5q-42 0 -70.5 20t-30.5 55q-1 12 7 19.5t20 7.5q18 0 26 -21
q5 -11 14.5 -21.5t31.5 -10.5q26 0 39.5 14t13.5 38v55q-11 -9 -26 -15t-35 -6q-45 0 -70.5 27.5t-25.5 73.5z" />
    <glyph glyph-name="uni207D" unicode="&#x207d;" horiz-adv-x="173" 
d="M97 522q0 -20 9 -32t24 -14q22 -5 22 -26q0 -13 -8.5 -20t-20.5 -5q-38 5 -60.5 30t-22.5 70v236q0 46 23 71t60 28q12 2 20.5 -5t8.5 -19q0 -20 -22 -25q-33 -6 -33 -47v-242v0z" />
    <glyph glyph-name="uni207E" unicode="&#x207e;" horiz-adv-x="173" 
d="M75 764q0 41 -33 47q-21 5 -21 25q0 12 8.5 19t20.5 5q37 -3 59.5 -28t22.5 -71v-236q0 -45 -22 -70t-60 -30q-11 -2 -20 5t-9 20q0 21 21 26q33 5 33 46v242z" />
    <glyph glyph-name="uni2080" unicode="&#x2080;" horiz-adv-x="301" 
d="M100 -48q0 -23 13 -38t37 -15q25 0 38 15t13 38v130q0 24 -13 38.5t-38 14.5q-24 0 -37 -14.5t-13 -38.5v-130zM258 -47q0 -49 -29.5 -77t-78.5 -28q-48 0 -77.5 28t-29.5 77v128q0 49 28 77t79 28q49 0 78.5 -28t29.5 -77v-128z" />
    <glyph glyph-name="uni2081" unicode="&#x2081;" horiz-adv-x="227" 
d="M29 156q0 25 25 25h69q25 0 25 -25v-254h39q11 0 17.5 -7t6.5 -18t-6.5 -17.5t-17.5 -6.5h-134q-11 0 -17.5 6.5t-6.5 17.5t6.5 18t17.5 7h38v229h-37q-25 0 -25 25z" />
    <glyph glyph-name="uni2082" unicode="&#x2082;" horiz-adv-x="286" 
d="M36 -117q0 28 11.5 58t47.5 53l57 37q17 11 27.5 26t10.5 36q0 19 -12 30.5t-35 11.5t-34.5 -11t-15.5 -27q-5 -23 -27 -23q-11 0 -19.5 7t-8.5 19q1 34 30.5 60t75.5 26q48 0 76.5 -24t28.5 -67q0 -33 -15 -57t-44 -44l-58 -38q-20 -13 -25.5 -27t-7.5 -24h129
q12 0 19 -7.5t7 -19.5q0 -25 -26 -25h-163q-13 0 -21 8t-8 21v1z" />
    <glyph glyph-name="uni2083" unicode="&#x2083;" horiz-adv-x="286" 
d="M106 22q0 22 21 22h10q26 0 37.5 12.5t11.5 33.5t-12 33t-35 12q-20 0 -31.5 -10t-16.5 -27q-7 -20 -26 -20q-11 0 -19 7t-8 18q0 17 8.5 32t22.5 26.5t32.5 18t39.5 6.5q47 0 74.5 -24.5t27.5 -64.5q0 -27 -10.5 -45.5t-28.5 -27.5q21 -11 33 -31t12 -49
q0 -45 -29.5 -70.5t-79.5 -25.5q-21 0 -40 6.5t-33.5 17t-22.5 25t-8 31.5q0 12 7.5 20t19.5 8q11 0 17.5 -6.5t9.5 -16.5q5 -14 15.5 -25t33.5 -11q25 0 38 14t13 39q0 22 -13 36t-40 14h-10q-21 0 -21 22z" />
    <glyph glyph-name="uni2084" unicode="&#x2084;" horiz-adv-x="295" 
d="M193 186q17 0 27 -8.5t10 -22.5v-182h17q11 0 17 -7t6 -17q0 -11 -6 -18t-17 -7h-17v-48q0 -13 -8 -20.5t-21 -7.5q-28 0 -28 28v48h-115q-17 0 -26.5 10.5t-9.5 22.5q0 16 4.5 25t13.5 22l105 154q9 14 19.5 21t28.5 7zM173 -27v142l-98 -142h98z" />
    <glyph glyph-name="uni2085" unicode="&#x2085;" horiz-adv-x="283" 
d="M240 157q0 -25 -24 -25h-118v-90q10 8 23.5 12.5t32.5 4.5q44 0 70.5 -27.5t26.5 -75.5q0 -51 -30 -79.5t-78 -28.5q-42 0 -69.5 18t-32.5 49q-2 14 4.5 23.5t20.5 9.5q17 0 23 -18q5 -16 16.5 -25t34.5 -9q26 0 39 15.5t13 42.5q0 25 -11 41.5t-38 16.5q-14 0 -22.5 -3
t-15 -6.5t-14 -6.5t-18.5 -3t-19 7t-8 18v135q0 13 8 20.5t21 7.5h141q24 0 24 -24z" />
    <glyph glyph-name="uni2086" unicode="&#x2086;" horiz-adv-x="293" 
d="M150 4q-20 0 -31 -7t-18 -15v-28q0 -58 49 -58q24 0 36.5 14t12.5 38q0 23 -11.5 39.5t-37.5 16.5zM258 -50q0 -50 -30 -76t-78 -26t-77 27.5t-29 78.5v126q0 49 28.5 77.5t79.5 28.5q40 0 69 -20.5t31 -54.5q1 -11 -7 -19t-20 -8q-18 0 -26 21q-4 11 -14 21.5t-32 10.5
q-26 0 -39 -14t-13 -38v-54q11 8 25.5 14t34.5 6q45 0 71 -27.5t26 -73.5z" />
    <glyph glyph-name="uni2087" unicode="&#x2087;" horiz-adv-x="243" 
d="M117 -133q-4 -8 -11.5 -13.5t-17.5 -5.5q-11 0 -19 8t-8 19q0 7 3 13l96 244h-119q-11 0 -17.5 6.5t-6.5 17.5t6.5 18t17.5 7h148q14 0 23.5 -8t9.5 -24q0 -6 -2.5 -15t-9.5 -27z" />
    <glyph glyph-name="uni2088" unicode="&#x2088;" horiz-adv-x="291" 
d="M247 96q0 -28 -11 -46t-28 -27q20 -9 32.5 -28.5t12.5 -50.5q0 -43 -29.5 -69.5t-77.5 -26.5q-49 0 -78.5 26.5t-29.5 69.5q0 31 12.5 50.5t32.5 28.5q-18 9 -29 27t-11 46q0 40 27.5 65t75.5 25q46 0 73.5 -25t27.5 -65zM96 -53q0 -24 13 -38.5t37 -14.5t36.5 14.5
t12.5 38.5t-12 38.5t-38 14.5t-37.5 -14.5t-11.5 -38.5zM100 91q0 -22 11 -35.5t35 -13.5q23 0 33.5 13.5t10.5 35.5t-11 34.5t-34 12.5q-22 0 -33.5 -12.5t-11.5 -34.5z" />
    <glyph glyph-name="uni2089" unicode="&#x2089;" horiz-adv-x="293" 
d="M143 30q20 0 31 7t19 16v21q0 64 -50 64q-24 0 -36.5 -14t-12.5 -38q0 -23 11.5 -39.5t37.5 -16.5zM36 84q0 50 29.5 76t77.5 26t77.5 -28.5t29.5 -83.5v-120q0 -49 -28.5 -77.5t-79.5 -28.5q-42 0 -70.5 20t-30.5 55q-1 12 7 19.5t20 7.5q18 0 26 -21q5 -11 14.5 -21.5
t31.5 -10.5q26 0 39.5 14t13.5 38v55q-11 -9 -26 -15t-35 -6q-45 0 -70.5 27.5t-25.5 73.5z" />
    <glyph glyph-name="uni208D" unicode="&#x208d;" horiz-adv-x="181" 
d="M102 -105q0 -20 9 -32t24 -14q22 -5 22 -26q0 -13 -8.5 -20t-20.5 -5q-38 5 -60.5 30t-22.5 70v236q0 46 23 71t60 28q12 2 20.5 -5t8.5 -19q0 -20 -22 -25q-33 -6 -33 -47v-242v0z" />
    <glyph glyph-name="uni208E" unicode="&#x208e;" horiz-adv-x="181" 
d="M78 137q0 41 -33 47q-21 5 -21 25q0 12 8.5 19t20.5 5q37 -3 59.5 -28t22.5 -71v-236q0 -45 -22 -70t-60 -30q-11 -2 -20 5t-9 20q0 21 21 26q33 5 33 46v242z" />
    <glyph glyph-name="franc" unicode="&#x20a3;" horiz-adv-x="527" 
d="M116 620q0 17 10 27t27 10h310q14 0 23.5 -10t9.5 -24q0 -15 -9.5 -25t-23.5 -10h-270v-163h158q13 0 20.5 -9t7.5 -22q0 -28 -28 -28h-158v-77h158q13 0 20.5 -9t7.5 -22q0 -28 -28 -28h-158v-198q0 -17 -11 -27t-28 -10t-27.5 10t-10.5 27v198h-40q-13 0 -20.5 8
t-7.5 21t7.5 21.5t20.5 8.5h40v77h-40q-13 0 -20.5 8.5t-7.5 21.5t7.5 21t20.5 8h40v195z" />
    <glyph glyph-name="lira" unicode="&#x20a4;" horiz-adv-x="562" 
d="M195 65h285q15 0 23.5 -9t8.5 -24q0 -14 -8.5 -23t-23.5 -9h-396q-15 0 -23.5 9t-8.5 24q0 14 8.5 23t23.5 9h36v130h-43q-11 0 -18 7.5t-7 19.5q0 11 7 18.5t18 7.5h43v78h-43q-11 0 -18 7.5t-7 19.5q0 11 7 18.5t18 7.5h43v82q0 48 14.5 86t40.5 64.5t62 41t80 14.5
q40 0 73 -12.5t57 -35.5t38.5 -55.5t17.5 -72.5q2 -17 -7.5 -29.5t-28.5 -12.5q-14 0 -24 9t-11 24q-4 51 -32 84.5t-83 33.5q-60 0 -91 -38.5t-31 -98.5v-84h152q11 0 18 -8.5t7 -19.5q0 -25 -25 -25h-152v-78h152q11 0 18 -8.5t7 -19.5q0 -25 -25 -25h-152v-130z" />
    <glyph glyph-name="peseta" unicode="&#x20a7;" horiz-adv-x="1200" 
d="M84 620q0 17 10 27t27 10h164q48 0 89 -15t70.5 -42t46 -65.5t16.5 -86.5t-16.5 -87.5t-46 -67.5t-70.5 -43t-89 -15h-125v-203q0 -17 -10.5 -27t-27.5 -10t-27.5 10t-10.5 27v588zM160 590v-288h120q69 0 109 39.5t40 105.5t-40 104.5t-109 38.5h-120zM918 234
q-21 7 -41.5 17t-36.5 25t-25.5 36t-9.5 50q0 28 12 52.5t34 43.5t52.5 30t67.5 11q71 0 115.5 -31t54.5 -82q3 -16 -4.5 -29.5t-25.5 -13.5q-25 0 -33 27q-9 29 -33.5 50t-72.5 21q-18 0 -35.5 -4.5t-31.5 -13.5t-22.5 -22.5t-8.5 -32.5q0 -25 14 -40t45 -25l83 -26
q27 -9 51 -19.5t42 -26.5t28.5 -38t10.5 -54q0 -33 -12.5 -60.5t-35 -47t-55 -30.5t-72.5 -11q-75 0 -124.5 34t-56.5 94q-2 14 6.5 26.5t25.5 12.5q26 0 31 -26q7 -33 34 -57.5t83 -24.5q52 0 78.5 23t26.5 59q0 30 -15 46.5t-50 27.5zM528 454q0 14 8 23t22 9h73v102
q0 16 10 26t27 10q16 0 26.5 -10t10.5 -26v-102h73q14 0 22 -8t8 -22t-8 -23t-22 -9h-73v-393q0 -16 -10.5 -26t-26.5 -10q-17 0 -27 10t-10 26v393h-73q-14 0 -22 8t-8 22z" />
    <glyph glyph-name="Euro" unicode="&#x20ac;" horiz-adv-x="581" 
d="M115 457q0 48 15 87t42 66.5t66 42t87 14.5q42 0 77.5 -13t61.5 -36.5t41.5 -56t17.5 -72.5q1 -17 -8 -29.5t-28 -12.5q-14 0 -23 8t-11 22q-6 56 -37 90t-91 34q-66 0 -101.5 -40t-35.5 -102v-34h121q11 0 18 -8t7 -19t-7 -18.5t-18 -7.5h-121v-78h121q11 0 18 -8t7 -19
t-7 -18.5t-18 -7.5h-121v-43q0 -62 35.5 -102t101.5 -40q60 0 92.5 35.5t35.5 91.5q1 16 10.5 24.5t24.5 8.5q17 0 26.5 -12.5t8.5 -29.5q-2 -43 -17.5 -77t-41.5 -58t-61.5 -36.5t-77.5 -12.5q-47 0 -85.5 14.5t-66 42t-43 66.5t-15.5 87v41h-48q-12 0 -19 7.5t-7 18.5
t7 19t19 8h48v78h-48q-12 0 -19 7.5t-7 18.5t7 19t19 8h48v32z" />
    <glyph glyph-name="afii61289" unicode="&#x2113;" horiz-adv-x="453" 
d="M192 272v-100q0 -51 26 -80t80 -29h88q14 0 22.5 -8.5t8.5 -22.5q0 -15 -8.5 -23.5t-22.5 -8.5h-92q-81 0 -128 44.5t-47 132.5v43l-38 -27q-8 -6 -17.5 -6.5t-17.5 4t-13 12t-5 18.5q0 18 16 30l75 52v204q0 76 42 119t111 43q36 0 64 -11t47 -30.5t29 -45.5t10 -55
q0 -54 -30 -94t-71 -69zM192 354l90 63q27 18 49 44t22 64q0 35 -20.5 58t-59.5 23t-60 -27t-21 -69v-156z" />
    <glyph glyph-name="trademark" unicode="&#x2122;" horiz-adv-x="778" 
d="M54 631q0 11 7 18.5t18 7.5h225q11 0 18 -7.5t7 -18.5q0 -26 -25 -26h-81v-293q0 -13 -9 -20.5t-22 -7.5t-22 7.5t-9 20.5v293h-82q-11 0 -18 7.5t-7 18.5zM636 639q12 22 36 22q14 0 22 -8.5t8 -19.5v-322q0 -12 -9 -19.5t-20 -7.5q-12 0 -21 7.5t-9 19.5v232l-87 -152
q-5 -8 -10.5 -12t-15.5 -4q-16 0 -24 16l-86 150v-231q0 -12 -9 -19t-20 -7q-12 0 -20.5 7t-8.5 19v323q0 11 8 19.5t22 8.5q24 0 36 -22l104 -183z" />
    <glyph glyph-name="uni2126" unicode="&#x2126;" horiz-adv-x="592" 
d="M512 216q0 -58 -20 -96.5t-55 -61.5h82q12 0 20 -8.5t8 -20.5t-8 -20.5t-20 -8.5h-126q-14 0 -22.5 9t-8.5 23v19q0 12 4.5 20t15.5 17q25 17 39.5 44.5t14.5 67.5v259q0 60 -36.5 99.5t-103.5 39.5t-103 -39.5t-36 -99.5v-259q0 -40 14 -67.5t39 -44.5q11 -9 16 -17
t5 -20v-19q0 -14 -9 -23t-23 -9h-126q-12 0 -19.5 8.5t-7.5 20.5t7.5 20.5t19.5 8.5h82q-35 23 -55 61.5t-20 96.5v241q0 48 15.5 87t43.5 66.5t68 42t89 14.5t89 -14.5t68.5 -42t43.5 -66.5t15 -87v-241z" />
    <glyph glyph-name="estimated" unicode="&#x212e;" horiz-adv-x="768" 
d="M386 616q-65 0 -120.5 -27t-94.5 -73v-147h430v146q-39 47 -94 74t-121 27zM644 105q-46 -53 -114 -84.5t-145 -31.5q-71 0 -132.5 26.5t-107.5 72t-72.5 107t-26.5 132.5q0 70 26.5 132t73 108.5t108 73t132.5 26.5q69 0 129.5 -25.5t105.5 -69t72.5 -101.5t32.5 -122
q0 -11 -6.5 -20.5t-22.5 -9.5h-526v-181q39 -45 94 -71.5t120 -26.5t122.5 27t97.5 75q8 8 19 8q12 0 19.5 -7.5t7.5 -18.5q0 -12 -7 -19z" />
    <glyph glyph-name="onethird" unicode="&#x2153;" horiz-adv-x="634" 
d="M49 632q0 25 25 25h69q25 0 25 -25v-254h39q11 0 17.5 -7t6.5 -18t-6.5 -17.5t-17.5 -6.5h-134q-11 0 -17.5 6.5t-6.5 17.5t6.5 18t17.5 7h38v229h-37q-25 0 -25 25zM351 328l-187 -320q-8 -13 -24 -13q-12 0 -20.5 8t-8.5 20q0 8 5 15l175 291l188 320q8 13 24 13
q11 0 19.5 -8t8.5 -20q0 -7 -4 -15zM442 169q0 22 21 22h10q26 0 37.5 12.5t11.5 33.5t-12 33t-35 12q-20 0 -31.5 -10t-16.5 -27q-7 -20 -26 -20q-11 0 -19 7t-8 18q0 17 8.5 32t22.5 26.5t32.5 18t39.5 6.5q47 0 74.5 -24.5t27.5 -64.5q0 -27 -10.5 -45.5t-28.5 -27.5
q21 -11 33 -31t12 -49q0 -45 -29.5 -70.5t-79.5 -25.5q-21 0 -40 6.5t-33.5 17t-22.5 25t-8 31.5q0 12 7.5 20t19.5 8q11 0 17.5 -6.5t9.5 -16.5q5 -14 15.5 -25t33.5 -11q25 0 38 14t13 39q0 22 -13 36t-40 14h-10q-21 0 -21 22z" />
    <glyph glyph-name="twothirds" unicode="&#x2154;" horiz-adv-x="665" 
d="M51 359q0 28 11.5 58t47.5 53l57 37q17 11 27.5 26t10.5 36q0 19 -12 30.5t-35 11.5t-34.5 -11t-15.5 -27q-5 -23 -27 -23q-11 0 -19.5 7t-8.5 19q1 34 30.5 60t75.5 26q48 0 76.5 -24t28.5 -67q0 -33 -15 -57t-44 -44l-58 -38q-20 -13 -25.5 -27t-7.5 -24h129
q12 0 19 -7.5t7 -19.5q0 -25 -26 -25h-163q-13 0 -21 8t-8 21v1zM382 328l-187 -320q-8 -13 -24 -13q-12 0 -20.5 8t-8.5 20q0 8 5 15l175 291l188 320q8 13 24 13q11 0 19.5 -8t8.5 -20q0 -7 -4 -15zM473 169q0 22 21 22h10q26 0 37.5 12.5t11.5 33.5t-12 33t-35 12
q-20 0 -31.5 -10t-16.5 -27q-7 -20 -26 -20q-11 0 -19 7t-8 18q0 17 8.5 32t22.5 26.5t32.5 18t39.5 6.5q47 0 74.5 -24.5t27.5 -64.5q0 -27 -10.5 -45.5t-28.5 -27.5q21 -11 33 -31t12 -49q0 -45 -29.5 -70.5t-79.5 -25.5q-21 0 -40 6.5t-33.5 17t-22.5 25t-8 31.5
q0 12 7.5 20t19.5 8q11 0 17.5 -6.5t9.5 -16.5q5 -14 15.5 -25t33.5 -11q25 0 38 14t13 39q0 22 -13 36t-40 14h-10q-21 0 -21 22z" />
    <glyph glyph-name="uni2155" unicode="&#x2155;" horiz-adv-x="648" 
d="M351 328l-187 -320q-8 -13 -24 -13q-12 0 -20.5 8t-8.5 20q0 8 5 15l175 291l188 320q8 13 24 13q11 0 19.5 -8t8.5 -20q0 -7 -4 -15zM49 632q0 25 25 25h69q25 0 25 -25v-254h39q11 0 17.5 -7t6.5 -18t-6.5 -17.5t-17.5 -6.5h-134q-11 0 -17.5 6.5t-6.5 17.5t6.5 18
t17.5 7h38v229h-37q-25 0 -25 25zM588 304q0 -25 -24 -25h-118v-90q10 8 23.5 12.5t32.5 4.5q44 0 70.5 -27.5t26.5 -75.5q0 -51 -30 -79.5t-78 -28.5q-42 0 -69.5 18t-32.5 49q-2 14 4.5 23.5t20.5 9.5q17 0 23 -18q5 -16 16.5 -25t34.5 -9q26 0 39 15.5t13 42.5
q0 25 -11 41.5t-38 16.5q-14 0 -22.5 -3t-15 -6.5t-14 -6.5t-18.5 -3t-19 7t-8 18v135q0 13 8 20.5t21 7.5h141q24 0 24 -24z" />
    <glyph glyph-name="uni2156" unicode="&#x2156;" horiz-adv-x="677" 
d="M51 359q0 28 11.5 58t47.5 53l57 37q17 11 27.5 26t10.5 36q0 19 -12 30.5t-35 11.5t-34.5 -11t-15.5 -27q-5 -23 -27 -23q-11 0 -19.5 7t-8.5 19q1 34 30.5 60t75.5 26q48 0 76.5 -24t28.5 -67q0 -33 -15 -57t-44 -44l-58 -38q-20 -13 -25.5 -27t-7.5 -24h129
q12 0 19 -7.5t7 -19.5q0 -25 -26 -25h-163q-13 0 -21 8t-8 21v1zM379 328l-187 -320q-8 -13 -24 -13q-12 0 -20.5 8t-8.5 20q0 8 5 15l175 291l188 320q8 13 24 13q11 0 19.5 -8t8.5 -20q0 -7 -4 -15zM617 304q0 -25 -24 -25h-118v-90q10 8 23.5 12.5t32.5 4.5
q44 0 70.5 -27.5t26.5 -75.5q0 -51 -30 -79.5t-78 -28.5q-42 0 -69.5 18t-32.5 49q-2 14 4.5 23.5t20.5 9.5q17 0 23 -18q5 -16 16.5 -25t34.5 -9q26 0 39 15.5t13 42.5q0 25 -11 41.5t-38 16.5q-14 0 -22.5 -3t-15 -6.5t-14 -6.5t-18.5 -3t-19 7t-8 18v135q0 13 8 20.5
t21 7.5h141q24 0 24 -24z" />
    <glyph glyph-name="uni2157" unicode="&#x2157;" horiz-adv-x="648" 
d="M350 328l-187 -320q-8 -13 -24 -13q-12 0 -20.5 8t-8.5 20q0 8 5 15l175 291l188 320q8 13 24 13q11 0 19.5 -8t8.5 -20q0 -7 -4 -15zM588 304q0 -25 -24 -25h-118v-90q10 8 23.5 12.5t32.5 4.5q44 0 70.5 -27.5t26.5 -75.5q0 -51 -30 -79.5t-78 -28.5q-42 0 -69.5 18
t-32.5 49q-2 14 4.5 23.5t20.5 9.5q17 0 23 -18q5 -16 16.5 -25t34.5 -9q26 0 39 15.5t13 42.5q0 25 -11 41.5t-38 16.5q-14 0 -22.5 -3t-15 -6.5t-14 -6.5t-18.5 -3t-19 7t-8 18v135q0 13 8 20.5t21 7.5h141q24 0 24 -24zM122 501q0 22 21 22h10q26 0 37.5 12.5t11.5 33.5
t-12 33t-35 12q-20 0 -31.5 -10t-16.5 -27q-7 -20 -26 -20q-11 0 -19 7t-8 18q0 17 8.5 32t22.5 26.5t32.5 18t39.5 6.5q47 0 74.5 -24.5t27.5 -64.5q0 -27 -10.5 -45.5t-28.5 -27.5q21 -11 33 -31t12 -49q0 -45 -29.5 -70.5t-79.5 -25.5q-21 0 -40 6.5t-33.5 17t-22.5 25
t-8 31.5q0 12 7.5 20t19.5 8q11 0 17.5 -6.5t9.5 -16.5q5 -14 15.5 -25t33.5 -11q25 0 38 14t13 39q0 22 -13 36t-40 14h-10q-21 0 -21 22z" />
    <glyph glyph-name="uni2158" unicode="&#x2158;" horiz-adv-x="669" 
d="M208 662q17 0 27 -8.5t10 -22.5v-182h17q11 0 17 -7t6 -17q0 -11 -6 -18t-17 -7h-17v-48q0 -13 -8 -20.5t-21 -7.5q-28 0 -28 28v48h-115q-17 0 -26.5 10.5t-9.5 22.5q0 16 4.5 25t13.5 22l105 154q9 14 19.5 21t28.5 7zM188 449v142l-98 -142h98zM371 328l-187 -320
q-8 -13 -24 -13q-12 0 -20.5 8t-8.5 20q0 8 5 15l175 291l188 320q8 13 24 13q11 0 19.5 -8t8.5 -20q0 -7 -4 -15zM609 304q0 -25 -24 -25h-118v-90q10 8 23.5 12.5t32.5 4.5q44 0 70.5 -27.5t26.5 -75.5q0 -51 -30 -79.5t-78 -28.5q-42 0 -69.5 18t-32.5 49q-2 14 4.5 23.5
t20.5 9.5q17 0 23 -18q5 -16 16.5 -25t34.5 -9q26 0 39 15.5t13 42.5q0 25 -11 41.5t-38 16.5q-14 0 -22.5 -3t-15 -6.5t-14 -6.5t-18.5 -3t-19 7t-8 18v135q0 13 8 20.5t21 7.5h141q24 0 24 -24z" />
    <glyph glyph-name="uni2159" unicode="&#x2159;" horiz-adv-x="643" 
d="M485 151q-20 0 -31 -7t-18 -15v-28q0 -58 49 -58q24 0 36.5 14t12.5 38q0 23 -11.5 39.5t-37.5 16.5zM593 97q0 -50 -30 -76t-78 -26t-77 27.5t-29 78.5v126q0 49 28.5 77.5t79.5 28.5q40 0 69 -20.5t31 -54.5q1 -11 -7 -19t-20 -8q-18 0 -26 21q-4 11 -14 21.5t-32 10.5
q-26 0 -39 -14t-13 -38v-54q11 8 25.5 14t34.5 6q45 0 71 -27.5t26 -73.5zM49 632q0 25 25 25h69q25 0 25 -25v-254h39q11 0 17.5 -7t6.5 -18t-6.5 -17.5t-17.5 -6.5h-134q-11 0 -17.5 6.5t-6.5 17.5t6.5 18t17.5 7h38v229h-37q-25 0 -25 25zM351 328l-187 -320
q-8 -13 -24 -13q-12 0 -20.5 8t-8.5 20q0 8 5 15l175 291l188 320q8 13 24 13q11 0 19.5 -8t8.5 -20q0 -7 -4 -15z" />
    <glyph glyph-name="uni215A" unicode="&#x215a;" horiz-adv-x="645" 
d="M487 151q-20 0 -31 -7t-18 -15v-28q0 -58 49 -58q24 0 36.5 14t12.5 38q0 23 -11.5 39.5t-37.5 16.5zM595 97q0 -50 -30 -76t-78 -26t-77 27.5t-29 78.5v126q0 49 28.5 77.5t79.5 28.5q40 0 69 -20.5t31 -54.5q1 -11 -7 -19t-20 -8q-18 0 -26 21q-4 11 -14 21.5t-32 10.5
q-26 0 -39 -14t-13 -38v-54q11 8 25.5 14t34.5 6q45 0 71 -27.5t26 -73.5zM353 328l-187 -320q-8 -13 -24 -13q-12 0 -20.5 8t-8.5 20q0 8 5 15l175 291l188 320q8 13 24 13q11 0 19.5 -8t8.5 -20q0 -7 -4 -15zM253 633q0 -25 -24 -25h-118v-90q10 8 23.5 12.5t32.5 4.5
q44 0 70.5 -27.5t26.5 -75.5q0 -51 -30 -79.5t-78 -28.5q-42 0 -69.5 18t-32.5 49q-2 14 4.5 23.5t20.5 9.5q17 0 23 -18q5 -16 16.5 -25t34.5 -9q26 0 39 15.5t13 42.5q0 25 -11 41.5t-38 16.5q-14 0 -22.5 -3t-15 -6.5t-14 -6.5t-18.5 -3t-19 7t-8 18v135q0 13 8 20.5
t21 7.5h141q24 0 24 -24z" />
    <glyph glyph-name="oneeighth" unicode="&#x215b;" horiz-adv-x="637" 
d="M351 328l-187 -320q-8 -13 -24 -13q-12 0 -20.5 8t-8.5 20q0 8 5 15l175 291l188 320q8 13 24 13q11 0 19.5 -8t8.5 -20q0 -7 -4 -15zM49 632q0 25 25 25h69q25 0 25 -25v-254h39q11 0 17.5 -7t6.5 -18t-6.5 -17.5t-17.5 -6.5h-134q-11 0 -17.5 6.5t-6.5 17.5t6.5 18
t17.5 7h38v229h-37q-25 0 -25 25zM582 243q0 -28 -11 -46t-28 -27q20 -9 32.5 -28.5t12.5 -50.5q0 -43 -29.5 -69.5t-77.5 -26.5q-49 0 -78.5 26.5t-29.5 69.5q0 31 12.5 50.5t32.5 28.5q-18 9 -29 27t-11 46q0 40 27.5 65t75.5 25q46 0 73.5 -25t27.5 -65zM431 94
q0 -24 13 -38.5t37 -14.5t36.5 14.5t12.5 38.5t-12 38.5t-38 14.5t-37.5 -14.5t-11.5 -38.5zM435 238q0 -22 11 -35.5t35 -13.5q23 0 33.5 13.5t10.5 35.5t-11 34.5t-34 12.5q-22 0 -33.5 -12.5t-11.5 -34.5z" />
    <glyph glyph-name="threeeighths" unicode="&#x215c;" horiz-adv-x="638" 
d="M352 328l-187 -320q-8 -13 -24 -13q-12 0 -20.5 8t-8.5 20q0 8 5 15l175 291l188 320q8 13 24 13q11 0 19.5 -8t8.5 -20q0 -7 -4 -15zM583 243q0 -28 -11 -46t-28 -27q20 -9 32.5 -28.5t12.5 -50.5q0 -43 -29.5 -69.5t-77.5 -26.5q-49 0 -78.5 26.5t-29.5 69.5
q0 31 12.5 50.5t32.5 28.5q-18 9 -29 27t-11 46q0 40 27.5 65t75.5 25q46 0 73.5 -25t27.5 -65zM432 94q0 -24 13 -38.5t37 -14.5t36.5 14.5t12.5 38.5t-12 38.5t-38 14.5t-37.5 -14.5t-11.5 -38.5zM436 238q0 -22 11 -35.5t35 -13.5q23 0 33.5 13.5t10.5 35.5t-11 34.5
t-34 12.5q-22 0 -33.5 -12.5t-11.5 -34.5zM122 501q0 22 21 22h10q26 0 37.5 12.5t11.5 33.5t-12 33t-35 12q-20 0 -31.5 -10t-16.5 -27q-7 -20 -26 -20q-11 0 -19 7t-8 18q0 17 8.5 32t22.5 26.5t32.5 18t39.5 6.5q47 0 74.5 -24.5t27.5 -64.5q0 -27 -10.5 -45.5
t-28.5 -27.5q21 -11 33 -31t12 -49q0 -45 -29.5 -70.5t-79.5 -25.5q-21 0 -40 6.5t-33.5 17t-22.5 25t-8 31.5q0 12 7.5 20t19.5 8q11 0 17.5 -6.5t9.5 -16.5q5 -14 15.5 -25t33.5 -11q25 0 38 14t13 39q0 22 -13 36t-40 14h-10q-21 0 -21 22z" />
    <glyph glyph-name="fiveeighths" unicode="&#x215d;" horiz-adv-x="639" 
d="M353 328l-187 -320q-8 -13 -24 -13q-12 0 -20.5 8t-8.5 20q0 8 5 15l175 291l188 320q8 13 24 13q11 0 19.5 -8t8.5 -20q0 -7 -4 -15zM584 243q0 -28 -11 -46t-28 -27q20 -9 32.5 -28.5t12.5 -50.5q0 -43 -29.5 -69.5t-77.5 -26.5q-49 0 -78.5 26.5t-29.5 69.5
q0 31 12.5 50.5t32.5 28.5q-18 9 -29 27t-11 46q0 40 27.5 65t75.5 25q46 0 73.5 -25t27.5 -65zM433 94q0 -24 13 -38.5t37 -14.5t36.5 14.5t12.5 38.5t-12 38.5t-38 14.5t-37.5 -14.5t-11.5 -38.5zM437 238q0 -22 11 -35.5t35 -13.5q23 0 33.5 13.5t10.5 35.5t-11 34.5
t-34 12.5q-22 0 -33.5 -12.5t-11.5 -34.5zM253 633q0 -25 -24 -25h-118v-90q10 8 23.5 12.5t32.5 4.5q44 0 70.5 -27.5t26.5 -75.5q0 -51 -30 -79.5t-78 -28.5q-42 0 -69.5 18t-32.5 49q-2 14 4.5 23.5t20.5 9.5q17 0 23 -18q5 -16 16.5 -25t34.5 -9q26 0 39 15.5t13 42.5
q0 25 -11 41.5t-38 16.5q-14 0 -22.5 -3t-15 -6.5t-14 -6.5t-18.5 -3t-19 7t-8 18v135q0 13 8 20.5t21 7.5h141q24 0 24 -24z" />
    <glyph glyph-name="seveneighths" unicode="&#x215e;" horiz-adv-x="617" 
d="M146 343q-4 -8 -11.5 -13.5t-17.5 -5.5q-11 0 -19 8t-8 19q0 7 3 13l96 244h-119q-11 0 -17.5 6.5t-6.5 17.5t6.5 18t17.5 7h148q14 0 23.5 -8t9.5 -24q0 -6 -2.5 -15t-9.5 -27zM323 328l-187 -320q-8 -13 -24 -13q-12 0 -20.5 8t-8.5 20q0 8 5 15l175 291l188 320
q8 13 24 13q11 0 19.5 -8t8.5 -20q0 -7 -4 -15zM562 243q0 -28 -11 -46t-28 -27q20 -9 32.5 -28.5t12.5 -50.5q0 -43 -29.5 -69.5t-77.5 -26.5q-49 0 -78.5 26.5t-29.5 69.5q0 31 12.5 50.5t32.5 28.5q-18 9 -29 27t-11 46q0 40 27.5 65t75.5 25q46 0 73.5 -25t27.5 -65z
M411 94q0 -24 13 -38.5t37 -14.5t36.5 14.5t12.5 38.5t-12 38.5t-38 14.5t-37.5 -14.5t-11.5 -38.5zM415 238q0 -22 11 -35.5t35 -13.5q23 0 33.5 13.5t10.5 35.5t-11 34.5t-34 12.5q-22 0 -33.5 -12.5t-11.5 -34.5z" />
    <glyph glyph-name="uni215F" unicode="&#x215f;" horiz-adv-x="376" 
d="M49 632q0 25 25 25h69q25 0 25 -25v-254h39q11 0 17.5 -7t6.5 -18t-6.5 -17.5t-17.5 -6.5h-134q-11 0 -17.5 6.5t-6.5 17.5t6.5 18t17.5 7h38v229h-37q-25 0 -25 25zM351 328l-187 -320q-8 -13 -24 -13q-12 0 -20.5 8t-8.5 20q0 8 5 15l175 291l188 320q8 13 24 13
q11 0 19.5 -8t8.5 -20q0 -7 -4 -15z" />
    <glyph glyph-name="partialdiff" unicode="&#x2202;" horiz-adv-x="489" 
d="M126 174q0 -52 29.5 -86.5t83.5 -34.5t83.5 34.5t29.5 86.5v102q0 52 -29.5 86.5t-83.5 34.5t-83.5 -34.5t-29.5 -86.5v-102zM196 687q52 0 89.5 -17t63.5 -45t41 -64.5t23 -76t10.5 -79t2.5 -73.5v-152q0 -44 -13.5 -79t-38.5 -60t-59 -38t-76 -13t-76 13t-58.5 38
t-38 60t-13.5 79v90q0 88 48 139t129 51q42 0 73.5 -17t50.5 -49q-4 51 -15 94t-31 73.5t-49.5 48t-69.5 17.5q-20 0 -36 -4t-27 -7q-16 -5 -27 3.5t-11 23.5q0 11 6 18.5t14 10.5q13 5 36.5 10t51.5 5z" />
    <glyph glyph-name="uni2206" unicode="&#x2206;" horiz-adv-x="522" 
d="M67 0q-37 2 -27 37l172 588q5 17 18.5 27t30.5 10q18 0 30.5 -10t17.5 -27l173 -588q5 -17 -3 -27t-25 -10h-387zM124 68h270l-135 470z" />
    <glyph glyph-name="product" unicode="&#x220f;" horiz-adv-x="588" 
d="M505 32q0 -17 -11 -27t-28 -10t-27.5 10t-10.5 27v556h-269v-556q0 -17 -10.5 -27t-27.5 -10t-27.5 10t-10.5 27v588q0 17 10 27t27 10h348q17 0 27 -10t10 -27v-588z" />
    <glyph glyph-name="summation" unicode="&#x2211;" horiz-adv-x="547" 
d="M445 657q15 0 24 -10t9 -25q0 -14 -9 -24t-24 -10h-288l194 -226q21 -27 -2 -53l-209 -238h330q15 0 24 -10.5t9 -25.5q0 -14 -9 -24.5t-24 -10.5h-393q-15 0 -25 10.5t-10 27.5q0 15 7 27.5t16 23.5l215 246l-204 233q-10 11 -16.5 23.5t-6.5 27.5q0 17 10 27.5t24 10.5
h358v0z" />
    <glyph glyph-name="minus" unicode="&#x2212;" horiz-adv-x="523" 
d="M66 328q0 14 8 24t22 10h331q14 0 22 -10t8 -24t-8 -23t-22 -9h-331q-14 0 -22 9t-8 23z" />
    <glyph glyph-name="uni2215" unicode="&#x2215;" horiz-adv-x="481" 
d="M271 328l-187 -320q-8 -13 -24 -13q-12 0 -20.5 8t-8.5 20q0 8 5 15l175 291l188 320q8 13 24 13q11 0 19.5 -8t8.5 -20q0 -7 -4 -15z" />
    <glyph glyph-name="uni2219" unicode="&#x2219;" horiz-adv-x="299" 
d="M58 274q0 19 7 36t19.5 29.5t29 20t35.5 7.5t36 -7.5t29.5 -20t19.5 -29.5t7 -36q0 -18 -7 -34.5t-19.5 -29t-29.5 -20t-36 -7.5t-35.5 7.5t-29 20t-19.5 29t-7 34.5z" />
    <glyph glyph-name="radical" unicode="&#x221a;" horiz-adv-x="578" 
d="M340 -63q-5 -15 -17 -24.5t-28 -9.5q-17 0 -28.5 9.5t-16.5 24.5l-136 455h-58q-13 0 -21 8.5t-8 22.5t8 22.5t21 8.5h85q16 0 27.5 -9t15.5 -24l114 -395l185 641q4 13 12.5 18.5t18.5 5.5q15 0 24.5 -9t9.5 -22q0 -7 -1 -11z" />
    <glyph glyph-name="infinity" unicode="&#x221e;" horiz-adv-x="757" 
d="M559 412q31 0 57 -10.5t45 -30t30 -46.5t11 -59q0 -29 -11 -55.5t-31 -46.5t-47 -32t-58 -12q-46 0 -86 26t-91 74q-40 -39 -85 -69t-94 -30h-1q-30 0 -56.5 10.5t-45.5 30t-30 46.5t-11 59q0 29 11.5 55.5t31 46.5t46.5 32t58 12q46 0 85.5 -26.5t90.5 -74.5
q40 39 85.5 69.5t94.5 30.5h1zM199 187q37 0 70.5 24t62.5 54q-33 34 -64 58t-66 24t-58 -23.5t-23 -56.5q0 -35 22 -57.5t55 -22.5h1zM558 346q-37 0 -70 -24.5t-63 -53.5q33 -34 64 -58t66 -24t58 23.5t23 56.5q0 35 -21.5 57.5t-55.5 22.5h-1z" />
    <glyph glyph-name="integral" unicode="&#x222b;" horiz-adv-x="390" 
d="M159 575q0 81 41.5 124t120.5 43h18q14 0 22.5 -9t8.5 -23t-8.5 -22.5t-22.5 -8.5h-18q-50 0 -69.5 -28t-19.5 -71v-545q0 -81 -41.5 -124t-120.5 -43h-18q-14 0 -22.5 9t-8.5 23t8.5 22.5t22.5 8.5h18q50 0 69.5 28.5t19.5 70.5v545z" />
    <glyph glyph-name="approxequal" unicode="&#x2248;" horiz-adv-x="534" 
d="M465 415q-19 -33 -44 -56t-61 -23q-27 0 -47.5 10.5t-43.5 26.5q-17 11 -33.5 20.5t-36.5 9.5q-26 0 -44.5 -17.5t-35.5 -46.5q-8 -11 -23 -11q-12 0 -20 8t-8 20q0 9 5 17q23 41 53.5 66t73.5 25q32 0 55 -12.5t44 -25.5q17 -11 31 -20t30 -9q18 0 31.5 14t25.5 34
q10 13 24 13q11 0 19.5 -8.5t8.5 -20.5q0 -4 -1 -7t-3 -7zM465 226q-19 -33 -44 -56t-61 -23q-27 0 -47.5 10.5t-43.5 25.5q-17 11 -33.5 21t-36.5 10q-26 0 -44.5 -17.5t-35.5 -46.5q-9 -12 -23 -12q-12 0 -20 8t-8 20q0 8 5 18q23 41 53.5 65.5t73.5 24.5q32 0 55 -12.5
t44 -25.5q17 -11 31 -20t30 -9q18 0 31.5 14t25.5 34q10 13 24 13q11 0 19.5 -8t8.5 -20q0 -6 -4 -14z" />
    <glyph glyph-name="notequal" unicode="&#x2260;" horiz-adv-x="516" 
d="M347 450h75q14 0 22 -9t8 -23q0 -31 -30 -31h-106l-58 -115h164q14 0 22 -9t8 -23q0 -31 -30 -31h-194l-52 -103q-8 -15 -24 -15q-11 0 -18.5 7t-7.5 18q0 4 0.5 6.5t2.5 6.5l40 80h-75q-14 0 -22 8.5t-8 22.5t8 23t22 9h106l58 115h-164q-30 0 -30 31q0 14 8 23t22 9
h194l54 105q7 15 24 15q11 0 18.5 -7.5t7.5 -18.5q0 -6 -3 -12z" />
    <glyph glyph-name="lessequal" unicode="&#x2264;" horiz-adv-x="520" 
d="M163 370l271 -87q20 -7 20 -28q0 -14 -8.5 -23.5t-21.5 -9.5q-4 0 -7 1t-5 2l-314 105q-29 10 -29 39t29 37l314 105q6 2 12 2q13 0 21.5 -8.5t8.5 -21.5q0 -21 -20 -28zM65 137q0 12 7 19.5t19 7.5h337q12 0 19 -7.5t7 -19.5q0 -11 -7 -19t-19 -8h-337q-12 0 -19 8
t-7 19z" />
    <glyph glyph-name="greaterequal" unicode="&#x2265;" horiz-adv-x="520" 
d="M86 455q-20 7 -20 28q0 13 8.5 21.5t21.5 8.5q6 0 12 -2l314 -105q29 -8 29 -37t-29 -39l-314 -105q-2 -1 -5 -2t-7 -1q-13 0 -21.5 9.5t-8.5 23.5q0 21 20 28l271 87zM455 137q0 -11 -7 -19t-19 -8h-337q-12 0 -19 8t-7 19q0 12 7 19.5t19 7.5h337q12 0 19 -7.5t7 -19.5
z" />
    <glyph glyph-name="lozenge" unicode="&#x25ca;" horiz-adv-x="495" 
d="M452 357q7 -13 7 -29t-7 -28l-158 -290q-7 -13 -20 -20.5t-27 -7.5t-26.5 7.5t-19.5 20.5l-157 290q-8 12 -8 28t8 29l157 290q7 13 20 20.5t27 7.5t26.5 -7.5t19.5 -20.5zM109 328l138 -254l137 254l-137 254z" />
    <glyph glyph-name="uniF629" unicode="&#xf629;" horiz-adv-x="263" 
d="M135 338q9 0 15 -5.5t6 -14.5v-29q31 -5 52 -24t21 -45q0 -11 -7.5 -18.5t-18.5 -7.5q-19 0 -25 21q-4 11 -13 20.5t-29 9.5q-21 0 -31.5 -13t-10.5 -34v-67q0 -21 10.5 -34.5t31.5 -13.5q20 0 28.5 9.5t13.5 22.5q4 11 9.5 17t16.5 6t18.5 -7.5t7.5 -19.5
q0 -26 -21 -46.5t-53 -25.5v-29q0 -9 -6 -14.5t-15 -5.5t-15 5.5t-6 14.5v29q-35 6 -55.5 31t-20.5 65v59q0 40 20.5 64.5t55.5 30.5v29q0 9 6 14.5t15 5.5z" />
    <glyph glyph-name="uniF62A" unicode="&#xf62a;" horiz-adv-x="272" 
d="M209 226q-19 0 -26 23q-4 14 -14.5 25.5t-32.5 11.5t-34 -11t-12 -28q0 -12 6.5 -23t21.5 -17l46 -18q14 -6 28 -13t25.5 -18t18.5 -27t7 -38q0 -40 -24 -66t-64 -31v-35q0 -9 -6 -14.5t-15 -5.5t-15 5.5t-6 14.5v36q-36 5 -58 26.5t-26 50.5q-2 12 5.5 21.5t21.5 9.5
q20 0 27 -23q5 -17 16.5 -28.5t34.5 -11.5q26 0 39.5 13t13.5 33t-11.5 30t-28.5 18l-46 20q-28 12 -47 32t-19 54q0 33 20.5 58t57.5 31v36q0 20 20 20q22 0 22 -20v-36q34 -5 54 -25.5t25 -46.5q3 -13 -4 -23t-21 -10z" />
    <glyph glyph-name="uniF62B" unicode="&#xf62b;" horiz-adv-x="215" 
d="M43 129q0 25 24 25h80q25 0 25 -25q0 -11 -7 -17.5t-18 -6.5h-80q-11 0 -17.5 6.5t-6.5 17.5z" />
    <glyph glyph-name="uniF62C" unicode="&#xf62c;" horiz-adv-x="181" 
d="M103 42q0 -20 9 -32t24 -14q22 -5 22 -26q0 -13 -8.5 -20t-20.5 -5q-38 5 -60.5 30t-22.5 70v236q0 46 23 71t60 28q12 2 20.5 -5t8.5 -19q0 -20 -22 -25q-33 -6 -33 -47v-242v0z" />
    <glyph glyph-name="uniF62D" unicode="&#xf62d;" horiz-adv-x="181" 
d="M78 284q0 41 -33 47q-21 5 -21 25q0 12 8.5 19t20.5 5q37 -3 59.5 -28t22.5 -71v-236q0 -45 -22 -70t-60 -30q-11 -2 -20 5t-9 20q0 21 21 26q33 5 33 46v242z" />
    <glyph glyph-name="uniF62E" unicode="&#xf62e;" horiz-adv-x="263" 
d="M135 668q9 0 15 -5.5t6 -14.5v-29q31 -5 52 -24t21 -45q0 -11 -7.5 -18.5t-18.5 -7.5q-19 0 -25 21q-4 11 -13 20.5t-29 9.5q-21 0 -31.5 -13t-10.5 -34v-67q0 -21 10.5 -34.5t31.5 -13.5q20 0 28.5 9.5t13.5 22.5q4 11 9.5 17t16.5 6t18.5 -7.5t7.5 -19.5
q0 -26 -21 -46.5t-53 -25.5v-29q0 -9 -6 -14.5t-15 -5.5t-15 5.5t-6 14.5v29q-35 6 -55.5 31t-20.5 65v59q0 40 20.5 64.5t55.5 30.5v29q0 9 6 14.5t15 5.5z" />
    <glyph glyph-name="uniF62F" unicode="&#xf62f;" horiz-adv-x="272" 
d="M209 556q-19 0 -26 23q-4 14 -14.5 25.5t-32.5 11.5t-34 -11t-12 -28q0 -12 6.5 -23t21.5 -17l46 -18q14 -6 28 -13t25.5 -18t18.5 -27t7 -38q0 -40 -24 -66t-64 -31v-35q0 -9 -6 -14.5t-15 -5.5t-15 5.5t-6 14.5v36q-36 5 -58 26.5t-26 50.5q-2 12 5.5 21.5t21.5 9.5
q20 0 27 -23q5 -17 16.5 -28.5t34.5 -11.5q26 0 39.5 13t13.5 33t-11.5 30t-28.5 18l-46 20q-28 12 -47 32t-19 54q0 33 20.5 58t57.5 31v36q0 20 20 20q22 0 22 -20v-36q34 -5 54 -25.5t25 -46.5q3 -13 -4 -23t-21 -10z" />
    <glyph glyph-name="uniF630" unicode="&#xf630;" horiz-adv-x="215" 
d="M43 459q0 25 24 25h80q25 0 25 -25q0 -11 -7 -17.5t-18 -6.5h-80q-11 0 -17.5 6.5t-6.5 17.5z" />
    <glyph glyph-name="uniF631" unicode="&#xf631;" horiz-adv-x="180" 
d="M102 372q0 -20 9 -32t24 -14q22 -5 22 -26q0 -13 -8.5 -20t-20.5 -5q-38 5 -60.5 30t-22.5 70v236q0 46 23 71t60 28q12 2 20.5 -5t8.5 -19q0 -20 -22 -25q-33 -6 -33 -47v-242v0z" />
    <glyph glyph-name="uniF632" unicode="&#xf632;" horiz-adv-x="180" 
d="M77 614q0 41 -33 47q-21 5 -21 25q0 12 8.5 19t20.5 5q37 -3 59.5 -28t22.5 -71v-236q0 -45 -22 -70t-60 -30q-11 -2 -20 5t-9 20q0 21 21 26q33 5 33 46v242z" />
    <glyph glyph-name="uniF655" unicode="&#xf655;" horiz-adv-x="303" 
d="M101 99q0 -23 13 -38t37 -15q25 0 38 15t13 38v130q0 24 -13 38.5t-38 14.5q-24 0 -37 -14.5t-13 -38.5v-130zM259 100q0 -49 -29.5 -77t-78.5 -28q-48 0 -77.5 28t-29.5 77v128q0 49 28 77t79 28q49 0 78.5 -28t29.5 -77v-128z" />
    <glyph glyph-name="uniF656" unicode="&#xf656;" horiz-adv-x="228" 
d="M30 303q0 25 25 25h69q25 0 25 -25v-254h39q11 0 17.5 -7t6.5 -18t-6.5 -17.5t-17.5 -6.5h-134q-11 0 -17.5 6.5t-6.5 17.5t6.5 18t17.5 7h38v229h-37q-25 0 -25 25z" />
    <glyph glyph-name="uniF657" unicode="&#xf657;" horiz-adv-x="286" 
d="M36 30q0 28 11.5 58t47.5 53l57 37q17 11 27.5 26t10.5 36q0 19 -12 30.5t-35 11.5t-34.5 -11t-15.5 -27q-5 -23 -27 -23q-11 0 -19.5 7t-8.5 19q1 34 30.5 60t75.5 26q48 0 76.5 -24t28.5 -67q0 -33 -15 -57t-44 -44l-58 -38q-20 -13 -25.5 -27t-7.5 -24h129
q12 0 19 -7.5t7 -19.5q0 -25 -26 -25h-163q-13 0 -21 8t-8 21v1z" />
    <glyph glyph-name="uniF658" unicode="&#xf658;" horiz-adv-x="286" 
d="M106 169q0 22 21 22h10q26 0 37.5 12.5t11.5 33.5t-12 33t-35 12q-20 0 -31.5 -10t-16.5 -27q-7 -20 -26 -20q-11 0 -19 7t-8 18q0 17 8.5 32t22.5 26.5t32.5 18t39.5 6.5q47 0 74.5 -24.5t27.5 -64.5q0 -27 -10.5 -45.5t-28.5 -27.5q21 -11 33 -31t12 -49
q0 -45 -29.5 -70.5t-79.5 -25.5q-21 0 -40 6.5t-33.5 17t-22.5 25t-8 31.5q0 12 7.5 20t19.5 8q11 0 17.5 -6.5t9.5 -16.5q5 -14 15.5 -25t33.5 -11q25 0 38 14t13 39q0 22 -13 36t-40 14h-10q-21 0 -21 22z" />
    <glyph glyph-name="uniF659" unicode="&#xf659;" horiz-adv-x="295" 
d="M193 333q17 0 27 -8.5t10 -22.5v-182h17q11 0 17 -7t6 -17q0 -11 -6 -18t-17 -7h-17v-48q0 -13 -8 -20.5t-21 -7.5q-28 0 -28 28v48h-115q-17 0 -26.5 10.5t-9.5 22.5q0 16 4.5 25t13.5 22l105 154q9 14 19.5 21t28.5 7zM173 120v142l-98 -142h98z" />
    <glyph glyph-name="uniF65A" unicode="&#xf65a;" horiz-adv-x="285" 
d="M241 304q0 -25 -24 -25h-118v-90q10 8 23.5 12.5t32.5 4.5q44 0 70.5 -27.5t26.5 -75.5q0 -51 -30 -79.5t-78 -28.5q-42 0 -69.5 18t-32.5 49q-2 14 4.5 23.5t20.5 9.5q17 0 23 -18q5 -16 16.5 -25t34.5 -9q26 0 39 15.5t13 42.5q0 25 -11 41.5t-38 16.5q-14 0 -22.5 -3
t-15 -6.5t-14 -6.5t-18.5 -3t-19 7t-8 18v135q0 13 8 20.5t21 7.5h141q24 0 24 -24z" />
    <glyph glyph-name="uniF65B" unicode="&#xf65b;" horiz-adv-x="294" 
d="M150 151q-20 0 -31 -7t-18 -15v-28q0 -58 49 -58q24 0 36.5 14t12.5 38q0 23 -11.5 39.5t-37.5 16.5zM258 97q0 -50 -30 -76t-78 -26t-77 27.5t-29 78.5v126q0 49 28.5 77.5t79.5 28.5q40 0 69 -20.5t31 -54.5q1 -11 -7 -19t-20 -8q-18 0 -26 21q-4 11 -14 21.5t-32 10.5
q-26 0 -39 -14t-13 -38v-54q11 8 25.5 14t34.5 6q45 0 71 -27.5t26 -73.5z" />
    <glyph glyph-name="uniF65C" unicode="&#xf65c;" horiz-adv-x="243" 
d="M117 14q-4 -8 -11.5 -13.5t-17.5 -5.5q-11 0 -19 8t-8 19q0 7 3 13l96 244h-119q-11 0 -17.5 6.5t-6.5 17.5t6.5 18t17.5 7h148q14 0 23.5 -8t9.5 -24q0 -6 -2.5 -15t-9.5 -27z" />
    <glyph glyph-name="uniF65D" unicode="&#xf65d;" horiz-adv-x="291" 
d="M247 243q0 -28 -11 -46t-28 -27q20 -9 32.5 -28.5t12.5 -50.5q0 -43 -29.5 -69.5t-77.5 -26.5q-49 0 -78.5 26.5t-29.5 69.5q0 31 12.5 50.5t32.5 28.5q-18 9 -29 27t-11 46q0 40 27.5 65t75.5 25q46 0 73.5 -25t27.5 -65zM96 94q0 -24 13 -38.5t37 -14.5t36.5 14.5
t12.5 38.5t-12 38.5t-38 14.5t-37.5 -14.5t-11.5 -38.5zM100 238q0 -22 11 -35.5t35 -13.5q23 0 33.5 13.5t10.5 35.5t-11 34.5t-34 12.5q-22 0 -33.5 -12.5t-11.5 -34.5z" />
    <glyph glyph-name="uniF65E" unicode="&#xf65e;" horiz-adv-x="293" 
d="M143 177q20 0 31 7t19 16v21q0 64 -50 64q-24 0 -36.5 -14t-12.5 -38q0 -23 11.5 -39.5t37.5 -16.5zM36 231q0 50 29.5 76t77.5 26t77.5 -28.5t29.5 -83.5v-120q0 -49 -28.5 -77.5t-79.5 -28.5q-42 0 -70.5 20t-30.5 55q-1 12 7 19.5t20 7.5q18 0 26 -21
q5 -11 14.5 -21.5t31.5 -10.5q26 0 39.5 14t13.5 38v55q-11 -9 -26 -15t-35 -6q-45 0 -70.5 27.5t-25.5 73.5z" />
    <glyph glyph-name="uniF65F" unicode="&#xf65f;" horiz-adv-x="137" 
d="M64 -44q-5 -8 -8.5 -11.5t-10.5 -3.5q-10 0 -15 6.5t-3 17.5l16 70q2 11 9.5 18t19.5 7q18 0 26 -12.5t0 -28.5z" />
    <glyph glyph-name="uniF660" unicode="&#xf660;" horiz-adv-x="132" 
d="M33 27q0 14 9.5 23.5t23.5 9.5t23.5 -9.5t9.5 -23.5t-9.5 -23.5t-23.5 -9.5t-23.5 9.5t-9.5 23.5z" />
    <glyph glyph-name="uniF661" unicode="&#xf661;" horiz-adv-x="301" 
d="M100 429q0 -23 13 -38t37 -15q25 0 38 15t13 38v130q0 24 -13 38.5t-38 14.5q-24 0 -37 -14.5t-13 -38.5v-130zM258 430q0 -49 -29.5 -77t-78.5 -28q-48 0 -77.5 28t-29.5 77v128q0 49 28 77t79 28q49 0 78.5 -28t29.5 -77v-128z" />
    <glyph glyph-name="uniF662" unicode="&#xf662;" horiz-adv-x="226" 
d="M29 632q0 25 25 25h69q25 0 25 -25v-254h39q11 0 17.5 -7t6.5 -18t-6.5 -17.5t-17.5 -6.5h-134q-11 0 -17.5 6.5t-6.5 17.5t6.5 18t17.5 7h38v229h-37q-25 0 -25 25z" />
    <glyph glyph-name="uniF663" unicode="&#xf663;" horiz-adv-x="285" 
d="M35 360q0 28 11.5 58t47.5 53l57 37q17 11 27.5 26t10.5 36q0 19 -12 30.5t-35 11.5t-34.5 -11t-15.5 -27q-5 -23 -27 -23q-11 0 -19.5 7t-8.5 19q1 34 30.5 60t75.5 26q48 0 76.5 -24t28.5 -67q0 -33 -15 -57t-44 -44l-58 -38q-20 -13 -25.5 -27t-7.5 -24h129
q12 0 19 -7.5t7 -19.5q0 -25 -26 -25h-163q-13 0 -21 8t-8 21v1z" />
    <glyph glyph-name="uniF664" unicode="&#xf664;" horiz-adv-x="286" 
d="M106 499q0 22 21 22h10q26 0 37.5 12.5t11.5 33.5t-12 33t-35 12q-20 0 -31.5 -10t-16.5 -27q-7 -20 -26 -20q-11 0 -19 7t-8 18q0 17 8.5 32t22.5 26.5t32.5 18t39.5 6.5q47 0 74.5 -24.5t27.5 -64.5q0 -27 -10.5 -45.5t-28.5 -27.5q21 -11 33 -31t12 -49
q0 -45 -29.5 -70.5t-79.5 -25.5q-21 0 -40 6.5t-33.5 17t-22.5 25t-8 31.5q0 12 7.5 20t19.5 8q11 0 17.5 -6.5t9.5 -16.5q5 -14 15.5 -25t33.5 -11q25 0 38 14t13 39q0 22 -13 36t-40 14h-10q-21 0 -21 22z" />
    <glyph glyph-name="uniF665" unicode="&#xf665;" horiz-adv-x="295" 
d="M193 663q17 0 27 -8.5t10 -22.5v-182h17q11 0 17 -7t6 -17q0 -11 -6 -18t-17 -7h-17v-48q0 -13 -8 -20.5t-21 -7.5q-28 0 -28 28v48h-115q-17 0 -26.5 10.5t-9.5 22.5q0 16 4.5 25t13.5 22l105 154q9 14 19.5 21t28.5 7zM173 450v142l-98 -142h98z" />
    <glyph glyph-name="uniF666" unicode="&#xf666;" horiz-adv-x="283" 
d="M240 634q0 -25 -24 -25h-118v-90q10 8 23.5 12.5t32.5 4.5q44 0 70.5 -27.5t26.5 -75.5q0 -51 -30 -79.5t-78 -28.5q-42 0 -69.5 18t-32.5 49q-2 14 4.5 23.5t20.5 9.5q17 0 23 -18q5 -16 16.5 -25t34.5 -9q26 0 39 15.5t13 42.5q0 25 -11 41.5t-38 16.5q-14 0 -22.5 -3
t-15 -6.5t-14 -6.5t-18.5 -3t-19 7t-8 18v135q0 13 8 20.5t21 7.5h141q24 0 24 -24z" />
    <glyph glyph-name="uniF667" unicode="&#xf667;" horiz-adv-x="294" 
d="M150 481q-20 0 -31 -7t-18 -15v-28q0 -58 49 -58q24 0 36.5 14t12.5 38q0 23 -11.5 39.5t-37.5 16.5zM258 427q0 -50 -30 -76t-78 -26t-77 27.5t-29 78.5v126q0 49 28.5 77.5t79.5 28.5q40 0 69 -20.5t31 -54.5q1 -11 -7 -19t-20 -8q-18 0 -26 21q-4 11 -14 21.5
t-32 10.5q-26 0 -39 -14t-13 -38v-54q11 8 25.5 14t34.5 6q45 0 71 -27.5t26 -73.5z" />
    <glyph glyph-name="uniF668" unicode="&#xf668;" horiz-adv-x="242" 
d="M116 344q-4 -8 -11.5 -13.5t-17.5 -5.5q-11 0 -19 8t-8 19q0 7 3 13l96 244h-119q-11 0 -17.5 6.5t-6.5 17.5t6.5 18t17.5 7h148q14 0 23.5 -8t9.5 -24q0 -6 -2.5 -15t-9.5 -27z" />
    <glyph glyph-name="uniF669" unicode="&#xf669;" horiz-adv-x="291" 
d="M247 573q0 -28 -11 -46t-28 -27q20 -9 32.5 -28.5t12.5 -50.5q0 -43 -29.5 -69.5t-77.5 -26.5q-49 0 -78.5 26.5t-29.5 69.5q0 31 12.5 50.5t32.5 28.5q-18 9 -29 27t-11 46q0 40 27.5 65t75.5 25q46 0 73.5 -25t27.5 -65zM96 424q0 -24 13 -38.5t37 -14.5t36.5 14.5
t12.5 38.5t-12 38.5t-38 14.5t-37.5 -14.5t-11.5 -38.5zM100 568q0 -22 11 -35.5t35 -13.5q23 0 33.5 13.5t10.5 35.5t-11 34.5t-34 12.5q-22 0 -33.5 -12.5t-11.5 -34.5z" />
    <glyph glyph-name="uniF66A" unicode="&#xf66a;" horiz-adv-x="292" 
d="M142 507q20 0 31 7t19 16v21q0 64 -50 64q-24 0 -36.5 -14t-12.5 -38q0 -23 11.5 -39.5t37.5 -16.5zM35 561q0 50 29.5 76t77.5 26t77.5 -28.5t29.5 -83.5v-120q0 -49 -28.5 -77.5t-79.5 -28.5q-42 0 -70.5 20t-30.5 55q-1 12 7 19.5t20 7.5q18 0 26 -21
q5 -11 14.5 -21.5t31.5 -10.5q26 0 39.5 14t13.5 38v55q-11 -9 -26 -15t-35 -6q-45 0 -70.5 27.5t-25.5 73.5z" />
    <glyph glyph-name="uniF66B" unicode="&#xf66b;" horiz-adv-x="135" 
d="M63 285q-5 -8 -8.5 -11.5t-10.5 -3.5q-10 0 -15 6.5t-3 17.5l16 70q2 11 9.5 18t19.5 7q18 0 26 -12.5t0 -28.5z" />
    <glyph glyph-name="uniF66C" unicode="&#xf66c;" horiz-adv-x="134" 
d="M34 357q0 14 9.5 23.5t23.5 9.5t23.5 -9.5t9.5 -23.5t-9.5 -23.5t-23.5 -9.5t-23.5 9.5t-9.5 23.5z" />
    <glyph glyph-name="uniF6C3" unicode="&#xf6c3;" horiz-adv-x="180" 
d="M85 -203q-5 -10 -11.5 -16.5t-17.5 -6.5q-12 0 -20 8t-8 19q0 4 3 15l23 103q5 17 14 27t26 10q14 0 26 -10t12 -27q0 -9 -3 -18z" />
    <glyph glyph-name="uniF8FF" unicode="&#xf8ff;" horiz-adv-x="1420" 
d="M378 488q11 0 11 -11v-6q9 7 22.5 14t35.5 7q18 0 30.5 -7.5t20.5 -18.5q8 7 23 16.5t41 9.5t41.5 -15.5t15.5 -38.5v-132q0 -11 -12 -11h-38q-13 0 -13 11v116q0 9 -2.5 12.5t-11.5 3.5q-11 0 -21.5 -5t-16.5 -10v-117q0 -11 -11 -11h-38q-12 0 -12 11v116
q0 9 -2.5 12.5t-12.5 3.5q-11 0 -21.5 -5t-15.5 -10v-117q0 -11 -10 -11h-41q-11 0 -11 11v171q0 11 11 11h38zM1043 488q12 0 12 -11l1 -7q8 7 22 14.5t38 7.5q29 0 43 -16t14 -44v-80q0 -29 -14 -45.5t-43 -16.5q-23 0 -36.5 7.5t-21.5 13.5v-83q0 -11 -11 -11h-40
q-11 0 -11 11v249q0 11 11 11h36zM296 388q0 -11 -12 -11h-93v-23q0 -18 23 -18q25 0 25 18v1q0 11 11 11h32q12 0 12 -11v-3q0 -28 -17.5 -45t-62.5 -17t-65 17t-20 45v79q0 29 20 45t65 16t63.5 -16t18.5 -45v-43zM1370 388q0 -11 -11 -11h-94v-23q0 -18 23 -18
q24 0 24 18v1q0 11 12 11h32q11 0 11 -11v-3q0 -28 -17 -45t-62 -17t-64.5 17t-19.5 45v79q0 29 19.5 45t64.5 16t63.5 -16t18.5 -45v-43zM872 407q4 -14 5.5 -25t1.5 -12q1 1 4.5 13.5t5.5 21.5l24 72q2 5 4 8t8 3h37q14 0 11 -11l-84 -249q-4 -11 -14 -11h-28
q-14 0 -11 11l16 59l-65 190q-4 11 11 11h40q6 0 8 -3t4 -8zM762 487q11 0 11 -10v-27q0 -11 -11 -11h-31v-77q0 -18 24 -18h10q12 0 12 -11v-27q0 -11 -12 -11h-19q-45 0 -61.5 14.5t-16.5 45.5v84h-17q-11 0 -11 11v25q0 8 11 11l16 1h1v36q0 12 12 12h39q12 0 12 -12v-36
h31zM472 98q0 -4 -4 -4h-114v-48q0 -14 10.5 -23.5t39.5 -9.5t38.5 9.5t9.5 23.5v8q0 4 6 4h9q5 0 5 -4v-9q0 -21 -14.5 -34.5t-54.5 -13.5q-39 0 -54 13.5t-15 34.5v102q0 21 15 34.5t55 13.5q39 0 53.5 -13.5t14.5 -34.5v-49zM154 171q8 6 25.5 15t41.5 9q28 0 41 -13
t13 -33v-144q0 -5 -4 -5h-11q-4 0 -4 5v140q0 14 -9.5 22.5t-29.5 8.5q-23 0 -39.5 -8.5t-22.5 -14.5v-148q0 -5 -4 -5h-11q-5 0 -5 5v183q0 4 5 4h9q5 0 5 -4v-17zM603 191q4 0 4 -4v-8q0 -5 -4 -5h-47v-124q0 -14 11 -23.5t39 -9.5h6q5 0 5 -5v-7q0 -5 -5 -5h-9
q-39 0 -52.5 12.5t-13.5 35.5v126h-25q-4 0 -4 5v7q0 4 4 5h25v41q0 5 4 5h11q4 0 4 -5v-41h47zM354 110h98v36q0 14 -10 23t-38 9q-29 0 -39.5 -9t-10.5 -23v-36zM1112 423q0 5 -2.5 10t-14.5 5q-11 0 -21 -5.5t-16 -9.5v-63q6 -4 16 -10t21 -6q12 0 14.5 6t2.5 11v62z
M191 417h48v11q0 18 -25 18q-23 0 -23 -18v-11zM1265 417h47v11q0 18 -24 18q-23 0 -23 -18v-11zM70 5q0 -5 -5 -5h-11q-4 0 -4 5v30q0 5 4 5h11q5 0 5 -5v-30z" />
    <glyph glyph-name="uniFB00" unicode="&#xfb00;" horiz-adv-x="608" 
d="M182 31q0 -16 -10 -26t-27 -10t-27 10t-10 26v393h-53q-31 0 -31 31t31 31h53v24q0 81 42 124t121 43h17q14 0 23 -9t9 -23t-9 -22.5t-23 -8.5h-18q-50 0 -69 -27.5t-19 -71.5v-29h204v24q0 81 41.5 124t120.5 43h18q14 0 23 -9t9 -23t-9 -22.5t-23 -8.5h-18
q-50 0 -69.5 -28t-19.5 -71v-29h101q31 0 31 -31t-31 -31h-101v-393q0 -16 -10 -26t-27 -10q-16 0 -26 10t-10 26v393h-204v-393z" />
    <glyph glyph-name="uniFB03" unicode="&#xfb03;" horiz-adv-x="803" 
d="M24 455q0 31 31 31h53v24q0 81 42 124t121 43h17q14 0 23 -9t9 -23t-9 -22.5t-23 -8.5h-18q-50 0 -69 -27.5t-19 -71.5v-29h204v24q0 81 41.5 124t122.5 43h155q14 0 23 -8.5t9 -22.5t-9 -23t-23 -9h-152q-53 0 -73.5 -27.5t-20.5 -71.5v-29h239q15 0 24.5 -9t9.5 -25
v-421q0 -16 -10 -26t-27 -10t-27 10t-10 26v393h-199v-393q0 -16 -9.5 -26t-26.5 -10t-27 10t-10 26v393h-204v-393q0 -16 -10 -26t-27 -10t-27 10t-10 26v393h-53q-31 0 -31 31z" />
    <glyph glyph-name="uniFB04" unicode="&#xfb04;" horiz-adv-x="808" 
d="M182 31q0 -16 -10 -26t-27 -10t-27 10t-10 26v393h-53q-31 0 -31 31t31 31h53v24q0 81 42 124t121 43h17q14 0 23 -9t9 -23t-9 -22.5t-23 -8.5h-18q-50 0 -69 -27.5t-19 -71.5v-29h204v24q0 81 41.5 124t122.5 43h147q16 0 25.5 -9.5t9.5 -24.5v-612q0 -16 -10 -26
t-27 -10t-27 10t-10 26v583h-105q-53 0 -73.5 -27.5t-20.5 -71.5v-29h94q14 0 22 -8.5t8 -22.5t-8 -22.5t-22 -8.5h-94v-393q0 -16 -9.5 -26t-26.5 -10t-27 10t-10 26v393h-204v-393z" />
    <glyph glyph-name="uniFB05" unicode="&#xfb05;" horiz-adv-x="527" 
d="M234 614q-50 0 -69.5 -28t-19.5 -71v-484q0 -16 -10 -26t-26 -10q-17 0 -27 10t-10 26v479q0 81 41.5 124t120.5 43h19q14 0 22.5 -9t8.5 -23t-8.5 -22.5t-22.5 -8.5h-19zM230 454q0 14 8 23t22 9h73v102q0 16 9.5 26t26.5 10t27 -10t10 -26v-102h74q14 0 21.5 -8
t7.5 -22t-7.5 -23t-21.5 -9h-74v-393q0 -16 -10 -26t-27 -10t-26.5 10t-9.5 26v393h-73q-14 0 -22 8t-8 22z" />
    <glyph glyph-name="glyph389" horiz-adv-x="204" 
d="M169 743q5 -5 7 -9.5t2 -10.5q0 -10 -7 -17t-18 -7q-8 0 -15 5l-96 74q-12 10 -12 26q0 14 9.5 24t23.5 10q13 0 25 -12l81 -83v0z" />
    <glyph glyph-name="glyph390" horiz-adv-x="241" 
d="M20 762q0 18 13 30.5t32 12.5q18 0 30 -12.5t12 -30.5q0 -19 -12 -32t-30 -13q-19 0 -32 13t-13 32zM134 762q0 18 13 30.5t31 12.5t30.5 -12.5t12.5 -30.5q0 -19 -12.5 -32t-30.5 -13t-31 13t-13 32z" />
    <glyph glyph-name="glyph391" horiz-adv-x="275" 
d="M15 760q0 12 7.5 19.5t19.5 7.5h191q12 0 19.5 -7.5t7.5 -19.5q0 -13 -7.5 -20.5t-19.5 -7.5h-191q-12 0 -19.5 8t-7.5 20z" />
    <glyph glyph-name="glyph392" horiz-adv-x="204" 
d="M116 826q12 12 25 12q14 0 23.5 -10t9.5 -24q0 -16 -12 -26l-96 -74q-7 -5 -15 -5q-11 0 -18 7t-7 17q0 6 2 10.5t7 9.5z" />
    <glyph glyph-name="glyph393" horiz-adv-x="286" 
d="M258 730q6 -6 6 -14t-6 -14t-14 -6q-9 0 -16 7l-86 77l-86 -78q-6 -6 -15 -6q-8 0 -13.5 5.5t-5.5 13.5q0 7 5 14l85 103q5 7 12.5 12t18.5 5t19 -5t13 -12l83 -102v0z" />
    <glyph glyph-name="glyph394" horiz-adv-x="286" 
d="M28 805q-6 6 -6 14t6.5 14t14.5 6q9 0 16 -7l86 -77l86 78q6 6 14 6t14 -5.5t6 -13.5q0 -7 -5 -14l-85 -103q-5 -7 -12.5 -12t-18.5 -5t-19 5t-13 12z" />
    <glyph glyph-name="glyph395" horiz-adv-x="243" 
d="M199 817q11 0 17.5 -6.5t5.5 -17.5q1 -40 -26 -69t-75 -29q-24 0 -43 8t-32 21.5t-19.5 31.5t-6.5 37q0 11 7 17.5t18 6.5q22 0 24 -22q-1 -23 11.5 -40t40.5 -17q27 0 40 16.5t13 40.5q0 22 25 22z" />
    <glyph glyph-name="glyph396" horiz-adv-x="137" 
d="M20 760q0 21 14 35t34 14q21 0 35 -14t14 -35q0 -20 -14 -34t-35 -14q-20 0 -34 14t-14 34z" />
    <glyph glyph-name="glyph397" horiz-adv-x="236" 
d="M118 724q23 0 37 16t14 39t-14 39t-37 16t-37 -16t-14 -39t14 -39t37 -16zM118 684q-43 0 -70.5 28t-27.5 67q0 40 27.5 68t70.5 28t70.5 -28t27.5 -68q0 -39 -27.5 -67t-70.5 -28z" />
    <glyph glyph-name="glyph398" horiz-adv-x="341" 
d="M278 790q2 16 20 16q23 0 23 -31q0 -32 -17.5 -55.5t-53.5 -23.5q-17 0 -32.5 6t-31.5 15l-40 22q-9 5 -19.5 9.5t-20.5 4.5q-13 0 -20.5 -6t-12 -13.5t-6 -15.5t-2.5 -12q-5 -15 -21 -15q-24 0 -24 29q0 35 22.5 59.5t60.5 24.5q27 0 58 -17l41 -22q11 -7 23 -12.5
t22 -5.5q18 0 23.5 13.5t7.5 29.5z" />
    <glyph glyph-name="glyph399" horiz-adv-x="311" 
d="M57 704q-7 -7 -14 -7q-8 0 -14 6t-6 13t7 17l85 88q8 11 21 11q12 0 21 -8.5t9 -20.5t-12 -22zM181 701q-8 -6 -15 -6q-9 0 -14.5 5.5t-5.5 13.5q0 5 0.5 8t5.5 8l79 93q9 11 22 11q12 0 20.5 -8.5t8.5 -20.5q0 -6 -3 -11.5t-7 -9.5z" />
    <glyph glyph-name="glyph400" horiz-adv-x="152" 
d="M80 558q-4 -10 -10 -16t-17 -6t-18.5 7.5t-7.5 18.5q0 1 0.5 4t1.5 8l9 72q2 16 11.5 26t26.5 10q14 0 25.5 -9t11.5 -25q0 -8 -3 -18z" />
    <glyph glyph-name="glyph401" horiz-adv-x="191" 
d="M85 -191q-5 -10 -11 -16t-17 -6q-15 0 -22 10.5t-4 24.5l25 107q3 16 12 25.5t26 9.5t30 -14.5t4 -36.5z" />
    <glyph glyph-name="zero.tnum" horiz-adv-x="535" 
d="M140 192q0 -58 33 -95.5t95 -37.5t95 37.5t33 95.5v273q0 58 -33 95.5t-95 37.5t-95 -37.5t-33 -95.5v-273zM473 194q0 -47 -15 -85t-42 -64.5t-65 -40.5t-83 -14t-82.5 14t-64.5 40.5t-42 64.5t-15 85v269q0 47 14.5 85t41 64.5t64 40.5t84.5 14q45 0 83 -14t65 -40.5
t42 -64.5t15 -85v-269z" />
    <glyph glyph-name="one.tnum" horiz-adv-x="535" 
d="M89 622q0 15 9 25t23 10h162q14 0 23.5 -9t9.5 -24v-556h119q14 0 23 -10.5t9 -24.5t-9 -23.5t-23 -9.5h-314q-14 0 -23 9.5t-9 23.5q0 15 9 25t23 10h118v521h-118q-14 0 -23 9.5t-9 23.5z" />
    <glyph glyph-name="two.tnum" horiz-adv-x="535" 
d="M441 71q15 0 24 -11t9 -25q0 -15 -9 -25t-24 -10h-344q-14 0 -23 9t-9 24v4q0 79 31.5 137.5t106.5 110.5l103 71q38 26 60.5 59.5t22.5 78.5q0 47 -31 75.5t-92 28.5q-59 0 -90.5 -29.5t-34.5 -78.5q-1 -15 -11 -22.5t-25 -7.5q-17 0 -27 10t-9 25q1 40 16.5 71.5t42 54
t63 34.5t78.5 12q45 0 81.5 -11.5t62.5 -34t40.5 -54.5t14.5 -72q0 -59 -28.5 -105t-82.5 -83l-123 -85q-28 -19 -44.5 -39.5t-26 -40.5t-12.5 -38t-4 -33h294v0z" />
    <glyph glyph-name="three.tnum" horiz-adv-x="535" 
d="M200 342q0 14 9 22.5t22 8.5h30q33 0 56 9t37.5 24.5t20.5 36.5t6 45q0 49 -30.5 79.5t-90.5 30.5q-57 0 -86 -27.5t-34 -72.5q-2 -14 -11.5 -23t-25.5 -9t-26 10.5t-10 26.5q0 19 5 39q17 57 67 91t123 34q45 0 81 -12.5t61.5 -35t39.5 -54.5t14 -71q0 -54 -21.5 -92.5
t-64.5 -58.5q48 -21 73 -63.5t25 -102.5q0 -43 -15 -77.5t-42 -59t-65 -37.5t-84 -13q-89 0 -141.5 43.5t-60.5 115.5q-2 20 9 30.5t27 10.5q15 0 25 -8t12 -24q4 -42 35.5 -71.5t91.5 -29.5q64 0 96.5 34.5t32.5 93.5q0 23 -7 45.5t-22.5 40.5t-40.5 29t-60 11h-30
q-13 0 -22 8.5t-9 22.5z" />
    <glyph glyph-name="four.tnum" horiz-adv-x="535" 
d="M369 663q26 0 39 -15t13 -32v-394h46q14 0 23 -10t9 -24t-9 -23.5t-23 -9.5h-46v-123q0 -17 -10.5 -27t-27.5 -10t-27.5 10t-10.5 27v123h-274q-18 0 -30 10.5t-12 29.5q0 18 8 33t18 29l246 367q10 14 24.5 26.5t43.5 12.5zM345 222v349l-235 -349h235z" />
    <glyph glyph-name="five.tnum" horiz-adv-x="535" 
d="M451 623q0 -15 -9 -24.5t-23 -9.5h-257v-221q21 14 50 24t69 10q45 0 81 -14.5t61 -41t38.5 -64t13.5 -82.5q0 -49 -15 -88t-42 -66t-64.5 -41.5t-83.5 -14.5q-84 0 -137 38.5t-62 102.5q-2 17 7 30.5t29 13.5q27 0 32 -28q6 -38 37.5 -64t91.5 -26q64 0 96.5 38.5
t32.5 104.5q0 27 -6.5 51.5t-21.5 43.5t-38.5 30.5t-57.5 11.5q-37 0 -60 -8t-43 -21q-8 -5 -18 -10t-24 -5q-17 0 -27.5 9.5t-10.5 26.5v293q0 16 9.5 25.5t25.5 9.5h294q14 0 23 -10t9 -24z" />
    <glyph glyph-name="six.tnum" horiz-adv-x="535" 
d="M480 191q0 -48 -15.5 -85t-43 -63t-65.5 -39.5t-83 -13.5t-82.5 15t-64 43t-41 68.5t-14.5 91.5v260q0 46 14.5 83t41 62.5t64 39.5t84.5 14q82 0 134 -41t60 -113q3 -16 -6.5 -29.5t-28.5 -13.5q-31 0 -36 29q-2 43 -33.5 72t-88.5 29q-63 0 -96 -35t-33 -90v-138
q23 22 57.5 38t82.5 16q45 0 81 -15t61 -41.5t38 -63t13 -80.5zM277 325q-53 0 -83 -20t-47 -42v-57q0 -67 33 -108.5t95 -41.5t94 36.5t32 94.5q0 27 -6.5 51.5t-21.5 44t-38.5 31t-57.5 11.5z" />
    <glyph glyph-name="seven.tnum" horiz-adv-x="535" 
d="M236 19q-5 -11 -14 -17.5t-23 -6.5q-23 0 -32 16.5t-1 36.5l228 541h-306q-15 0 -24.5 9.5t-9.5 24.5t9.5 24.5t24.5 9.5h352q18 0 29.5 -8.5t11.5 -26.5q0 -11 -3.5 -21t-8.5 -23z" />
    <glyph glyph-name="eight.tnum" horiz-adv-x="535" 
d="M463 489q0 -54 -23.5 -91.5t-63.5 -56.5q45 -20 72 -61t27 -101q0 -43 -15 -78t-42.5 -59.5t-65.5 -38t-84 -13.5t-84 13.5t-65.5 38t-42.5 59.5t-15 78q0 60 26.5 101t71.5 61q-40 19 -63.5 57t-23.5 91q0 40 14 73t40 56t62 36t80 13q43 0 79 -13t62 -36t40 -56t14 -73
zM139 182q0 -56 33 -92t96 -36t96 36t33 92q0 27 -7.5 50t-23.5 40t-40 27t-58 10t-58.5 -10t-40 -27t-23 -40t-7.5 -50zM148 486q0 -50 28 -83.5t92 -33.5q63 0 91 33.5t28 83.5q0 51 -31 83t-88 32q-59 0 -89.5 -32t-30.5 -83z" />
    <glyph glyph-name="nine.tnum" horiz-adv-x="535" 
d="M55 466q0 48 15.5 85t43 63t65.5 39.5t83 13.5t82.5 -15t64 -44t41 -70.5t14.5 -93.5v-255q0 -46 -14.5 -83t-41 -62.5t-64.5 -39.5t-84 -14q-82 0 -134 41t-60 113q-2 16 7.5 29.5t28.5 13.5q14 0 23.5 -7.5t11.5 -21.5q5 -44 35 -72.5t87 -28.5q63 0 96 35t33 91v136
q-23 -22 -57.5 -37.5t-82.5 -15.5q-45 0 -81 15t-61 41.5t-38 63t-13 80.5zM258 332q52 0 82.5 20t47.5 42v52q0 33 -8.5 61.5t-25 49t-40 32.5t-54.5 12q-62 0 -94 -36.5t-32 -94.5q0 -27 6.5 -51.5t21.5 -44t38.5 -31t57.5 -11.5z" />
    <glyph glyph-name="a.aalt" horiz-adv-x="479" 
d="M221 52q25 0 46.5 8.5t37.5 23.5t24.5 34.5t8.5 41.5v50h-115q-16 0 -34 -2.5t-33 -11t-24.5 -24.5t-9.5 -42q0 -34 23.5 -56t75.5 -22zM344 54q-22 -30 -56.5 -47t-78.5 -17q-75 0 -118.5 34.5t-43.5 102.5q0 70 45.5 105t125.5 35h120v71q0 42 -28 70.5t-79 28.5
q-50 0 -75.5 -23.5t-33.5 -57.5q-3 -12 -11.5 -19.5t-22.5 -7.5q-17 0 -26 12t-6 29q9 58 56 93.5t121 35.5q81 0 129.5 -44.5t48.5 -122.5v-304q0 -15 -8 -24t-23 -9q-11 0 -20 5.5t-11 19.5z" />
    <glyph glyph-name="agrave.aalt" horiz-adv-x="479" 
d="M221 52q25 0 46.5 8.5t37.5 23.5t24.5 34.5t8.5 41.5v50h-115q-16 0 -34 -2.5t-33 -11t-24.5 -24.5t-9.5 -42q0 -34 23.5 -56t75.5 -22zM344 54q-22 -30 -56.5 -47t-78.5 -17q-75 0 -118.5 34.5t-43.5 102.5q0 70 45.5 105t125.5 35h120v71q0 42 -28 70.5t-79 28.5
q-50 0 -75.5 -23.5t-33.5 -57.5q-3 -12 -11.5 -19.5t-22.5 -7.5q-17 0 -26 12t-6 29q9 58 56 93.5t121 35.5q81 0 129.5 -44.5t48.5 -122.5v-304q0 -15 -8 -24t-23 -9q-11 0 -20 5.5t-11 19.5zM257 597q9 -11 9 -21t-7 -17t-18 -7q-8 0 -15 5l-96 74q-12 12 -12 26
q0 15 9.5 24.5t23.5 9.5t25 -11z" />
    </font>
</defs>
</svg>
